<svg width="120" height="40" viewBox="0 0 120 40" fill="none" xmlns="http://www.w3.org/2000/svg">
<path d="M37.3447 19.6763C37.3447 24.8906 35.3787 29.8913 31.8791 33.5784C28.3796 37.2655 23.6332 39.3369 18.6841 39.3369C13.735 39.3369 8.98856 37.2655 5.48901 33.5784C1.98947 29.8913 0.0234375 24.8906 0.0234375 19.6763C0.0234375 14.4619 1.98947 9.46118 5.48901 5.77409C8.98856 2.08701 13.735 0.015625 18.6841 0.015625C23.6332 0.015625 28.3796 2.08701 31.8791 5.77409C35.3787 9.46118 37.3447 14.4619 37.3447 19.6763ZM17.7182 12.0918C18.2754 12.335 18.9123 12.3074 19.4888 12.0152C20.0653 11.723 20.5341 11.1901 20.7922 10.5338C20.9199 10.2087 20.9921 9.86319 21.0046 9.51685C21.017 9.1705 20.9696 8.83013 20.8648 8.51517C20.7601 8.20021 20.6001 7.91684 20.3941 7.68122C20.1881 7.4456 19.9401 7.26236 19.6642 7.14195C19.107 6.89878 18.4701 6.92632 17.8936 7.21851C17.3171 7.51069 16.8483 8.0436 16.5902 8.69998C16.4625 9.02499 16.3903 9.37054 16.3778 9.71688C16.3654 10.0632 16.4128 10.4036 16.5176 10.7186C16.6223 11.0335 16.7823 11.3169 16.9883 11.5525C17.1943 11.7881 17.4423 11.9714 17.7182 12.0918ZM10.2711 16.5661C10.8307 16.8031 11.4673 16.7683 12.041 16.4693C12.6148 16.1704 13.0785 15.6317 13.3303 14.9719C13.582 14.3121 13.6011 13.5851 13.3835 12.951C13.1658 12.3168 12.7291 11.8274 12.1695 11.5904C11.6099 11.3534 10.9733 11.3882 10.3995 11.6872C9.82583 11.9861 9.36209 12.5248 9.11033 13.1846C8.85858 13.8444 8.83944 14.5714 9.05712 15.2055C9.27479 15.8397 9.71146 16.3291 10.2711 16.5661ZM25.2323 16.5806C25.5104 16.6943 25.8096 16.7422 26.1128 16.7216C26.4161 16.7009 26.7173 16.6122 26.9995 16.4604C27.2816 16.3087 27.539 16.0968 27.7571 15.837C27.9752 15.5772 28.1497 15.2746 28.2705 14.9463C28.5146 14.2833 28.5256 13.5562 28.301 12.9251C28.0764 12.294 27.6346 11.8104 27.0729 11.5809C26.7948 11.4672 26.4956 11.4193 26.1924 11.4399C25.8891 11.4606 25.5879 11.5493 25.3057 11.7011C25.0236 11.8528 24.7662 12.0647 24.5481 12.3245C24.33 12.5843 24.1555 12.8869 24.0347 13.2152C23.7906 13.8782 23.7796 14.6053 24.0042 15.2364C24.2288 15.8676 24.6706 16.3511 25.2323 16.5806ZM21.1958 13.9305C21.1958 13.8973 21.1832 13.8655 21.161 13.842C21.1387 13.8185 21.1085 13.8054 21.0769 13.8054H16.3245C16.293 13.8054 16.2627 13.8185 16.2405 13.842C16.2182 13.8655 16.2057 13.8973 16.2057 13.9305V29.7632C16.2057 29.7964 16.2182 29.8282 16.2405 29.8517C16.2627 29.8752 16.293 29.8884 16.3245 29.8884H21.0769C21.1085 29.8884 21.1387 29.8752 21.161 29.8517C21.1832 29.8282 21.1958 29.7964 21.1958 29.7632V13.9305ZM13.7106 18.3769C13.7106 18.3424 13.6976 18.3093 13.6744 18.2848C13.6512 18.2604 13.6198 18.2467 13.587 18.2467H8.84405C8.81128 18.2467 8.77985 18.2604 8.75668 18.2848C8.7335 18.3093 8.72049 18.3424 8.72049 18.3769V29.7582C8.72049 29.7927 8.7335 29.8258 8.75668 29.8502C8.77985 29.8747 8.81128 29.8884 8.84405 29.8884H13.587C13.6198 29.8884 13.6512 29.8747 13.6744 29.8502C13.6976 29.8258 13.7106 29.7927 13.7106 29.7582V18.3769ZM28.6215 18.3544C28.6215 18.3258 28.6108 18.2984 28.5916 18.2782C28.5724 18.2581 28.5464 18.2467 28.5193 18.2467H23.7336C23.7065 18.2467 23.6805 18.2581 23.6613 18.2782C23.6422 18.2984 23.6314 18.3258 23.6314 18.3544V29.7807C23.6314 29.8093 23.6422 29.8367 23.6613 29.8568C23.6805 29.877 23.7065 29.8884 23.7336 29.8884H28.5193C28.5464 29.8884 28.5724 29.877 28.5916 29.8568C28.6108 29.8367 28.6215 29.8093 28.6215 29.7807V18.3544Z" fill="white"/>
<path d="M83.2753 16.428C80.9775 15.7579 76.9854 15.342 76.2345 12.4596C74.6353 6.32181 83.5058 4.66082 86.9894 7.65013C87.9557 8.47706 88.4904 9.59944 88.5933 11.0173C88.5956 11.0498 88.5912 11.0825 88.5803 11.1133C88.5693 11.1441 88.5522 11.1723 88.5299 11.1961C88.5076 11.22 88.4806 11.239 88.4507 11.252C88.4207 11.265 88.3884 11.2716 88.3557 11.2715H85.0599C85.0059 11.2715 84.9535 11.2534 84.9112 11.2202C84.869 11.187 84.8393 11.1406 84.827 11.0886C84.4112 9.32063 82.1133 9.09726 80.8682 9.77449C79.5399 10.4992 80.1601 11.982 81.41 12.4002C83.3252 13.0418 86.065 13.1464 87.6428 14.9167C88.8104 16.2268 89.1304 17.7056 88.6029 19.3531C87.524 22.7369 83.3205 23.1694 80.4333 22.6371C77.5747 22.1072 75.7046 20.4486 75.669 17.4521C75.6686 17.4207 75.6746 17.3896 75.6864 17.3605C75.6982 17.3314 75.7156 17.3049 75.7377 17.2826C75.7598 17.2602 75.7861 17.2425 75.8151 17.2304C75.8441 17.2184 75.8752 17.2121 75.9066 17.2121H79.2024C79.2586 17.212 79.3131 17.2319 79.3562 17.2685C79.3993 17.305 79.4281 17.3558 79.4377 17.4117C79.9676 20.6838 85.7989 19.9139 84.6654 17.2905C84.5205 16.9531 83.7173 16.5563 83.2753 16.428Z" fill="white"/>
<path d="M48.0776 6.10803C51.5683 6.13892 55.1493 6.31239 56.884 9.61537C59.2246 14.0708 58.0175 20.4724 52.7683 21.9552C51.9097 22.1976 50.4737 22.3211 48.4602 22.3259C47.0551 22.3291 45.6475 22.3283 44.2376 22.3235C44.1746 22.3235 44.1142 22.2985 44.0696 22.2539C44.025 22.2094 44 22.1489 44 22.0859V6.35516C44 6.29296 44.0246 6.23322 44.0686 6.18879C44.1126 6.14436 44.1724 6.11878 44.2352 6.11754C45.5184 6.10011 46.7992 6.09694 48.0776 6.10803ZM51.1715 18.7995C55.0567 18.2696 55.1208 10.2498 51.1667 9.632C50.2606 9.491 49.2539 9.44665 48.1465 9.49893C48.0856 9.50198 48.0282 9.52835 47.9861 9.57259C47.9441 9.61683 47.9207 9.67553 47.9208 9.73655V18.6926C47.9207 18.754 47.9442 18.8131 47.9863 18.8574C48.0284 18.9017 48.0858 18.9278 48.1465 18.9302C49.162 18.9793 50.1703 18.9358 51.1715 18.7995Z" fill="white"/>
<path d="M69.778 19.3337H64.3245C64.3061 19.3333 64.2881 19.3389 64.2731 19.3496C64.2581 19.3603 64.247 19.3755 64.2413 19.3931L63.2338 22.6604C63.2282 22.6779 63.2171 22.6932 63.2021 22.7039C63.1871 22.7146 63.169 22.7202 63.1506 22.7198H59.0849C59.0715 22.7197 59.0583 22.7164 59.0463 22.7103C59.0344 22.7041 59.0241 22.6953 59.0162 22.6844C59.0084 22.6735 59.0032 22.661 59.0011 22.6477C58.999 22.6345 59 22.6209 59.0041 22.6081L64.41 6.56136C64.4155 6.54421 64.4263 6.52924 64.4408 6.51857C64.4553 6.50791 64.4728 6.50209 64.4908 6.50195H69.6093C69.627 6.50192 69.6443 6.50739 69.6587 6.51761C69.6732 6.52783 69.6842 6.54228 69.6901 6.55898L75.1031 22.6057C75.1077 22.6187 75.1091 22.6325 75.1072 22.6461C75.1053 22.6596 75.1002 22.6725 75.0923 22.6837C75.0844 22.6949 75.0739 22.704 75.0617 22.7103C75.0495 22.7166 75.036 22.7198 75.0223 22.7198H70.9566C70.9386 22.7197 70.9211 22.7139 70.9066 22.7032C70.8921 22.6925 70.8813 22.6775 70.8758 22.6604L69.8588 19.3931C69.8533 19.3759 69.8425 19.361 69.828 19.3503C69.8135 19.3396 69.796 19.3338 69.778 19.3337ZM65.256 16.2089C65.2527 16.2198 65.2519 16.2313 65.2538 16.2425C65.2557 16.2537 65.2602 16.2643 65.2668 16.2735C65.2735 16.2828 65.2822 16.2903 65.2923 16.2956C65.3024 16.3008 65.3135 16.3037 65.3249 16.304H68.7752C68.7866 16.3037 68.7977 16.3008 68.8078 16.2956C68.8179 16.2903 68.8266 16.2828 68.8333 16.2735C68.8399 16.2643 68.8444 16.2537 68.8463 16.2425C68.8482 16.2313 68.8474 16.2198 68.8441 16.2089L67.1213 10.7031C67.1172 10.6874 67.108 10.6734 67.0951 10.6634C67.0822 10.6535 67.0664 10.648 67.05 10.648C67.0337 10.648 67.0179 10.6535 67.005 10.6634C66.9921 10.6734 66.9829 10.6874 66.9788 10.7031L65.256 16.2089Z" fill="white"/>
<path d="M94.8759 19.1115H102.04C102.067 19.1115 102.092 19.122 102.111 19.1407C102.13 19.1594 102.14 19.1848 102.14 19.2113L102.142 22.2196C102.142 22.2461 102.132 22.2715 102.113 22.2902C102.095 22.3089 102.069 22.3194 102.043 22.3194H90.8957C90.8692 22.3194 90.8438 22.3089 90.8251 22.2902C90.8064 22.2715 90.7959 22.2461 90.7959 22.2196V6.20137C90.7959 6.1749 90.8064 6.14951 90.8251 6.13079C90.8438 6.11208 90.8692 6.10156 90.8957 6.10156H102.043C102.069 6.10156 102.095 6.11208 102.113 6.13079C102.132 6.14951 102.142 6.1749 102.142 6.20137V9.20969C102.142 9.22279 102.14 9.23577 102.135 9.24788C102.13 9.25999 102.122 9.27099 102.113 9.28026C102.104 9.28953 102.093 9.29688 102.081 9.30189C102.069 9.30691 102.056 9.30949 102.043 9.30949H94.8759C94.8494 9.30949 94.824 9.32001 94.8053 9.33872C94.7866 9.35744 94.7761 9.38283 94.7761 9.4093V12.477C94.7761 12.5035 94.7866 12.5289 94.8053 12.5476C94.824 12.5663 94.8494 12.5768 94.8759 12.5768H101.449C101.462 12.5768 101.475 12.5794 101.487 12.5844C101.499 12.5894 101.51 12.5968 101.519 12.6061C101.528 12.6153 101.536 12.6263 101.541 12.6384C101.546 12.6505 101.548 12.6635 101.548 12.6766V15.7444C101.548 15.7708 101.538 15.7962 101.519 15.8149C101.5 15.8336 101.475 15.8442 101.449 15.8442H94.8759C94.8494 15.8442 94.824 15.8547 94.8053 15.8734C94.7866 15.8921 94.7761 15.9175 94.7761 15.944V19.0117C94.7761 19.0382 94.7866 19.0635 94.8053 19.0823C94.824 19.101 94.8494 19.1115 94.8759 19.1115Z" fill="white"/>
<path d="M114.672 18.8317H109.223C109.206 18.832 109.19 18.8374 109.177 18.8472C109.164 18.857 109.154 18.8707 109.149 18.8864L108.116 22.1632C108.111 22.1789 108.101 22.1926 108.088 22.2025C108.074 22.2123 108.058 22.2177 108.042 22.2179H103.979C103.966 22.2178 103.954 22.2148 103.943 22.209C103.931 22.2032 103.922 22.1949 103.915 22.1846C103.907 22.1744 103.903 22.1626 103.901 22.1502C103.899 22.1378 103.901 22.1251 103.905 22.1133L109.301 6.05231C109.307 6.03667 109.317 6.02319 109.331 6.0138C109.344 6.00441 109.361 5.99958 109.377 6.00003H114.517C114.534 5.99958 114.55 6.00441 114.564 6.0138C114.577 6.02319 114.588 6.03667 114.593 6.05231L119.994 22.1133C119.999 22.1251 120 22.1378 119.998 22.1502C119.996 22.1626 119.992 22.1744 119.985 22.1846C119.977 22.1949 119.968 22.2032 119.957 22.209C119.946 22.2148 119.933 22.2178 119.921 22.2179H115.855C115.839 22.2177 115.823 22.2123 115.809 22.2025C115.796 22.1926 115.786 22.1789 115.781 22.1632L114.745 18.8864C114.74 18.8707 114.731 18.857 114.717 18.8472C114.704 18.8374 114.688 18.832 114.672 18.8317ZM110.152 15.7094C110.149 15.7204 110.148 15.7321 110.15 15.7435C110.152 15.7549 110.157 15.7657 110.164 15.7749C110.171 15.7842 110.18 15.7917 110.19 15.7968C110.2 15.8019 110.212 15.8045 110.223 15.8044L113.666 15.7997C113.678 15.7999 113.69 15.7973 113.701 15.7921C113.711 15.7868 113.72 15.7791 113.727 15.7695C113.734 15.7599 113.739 15.7488 113.741 15.7371C113.743 15.7254 113.742 15.7134 113.738 15.7022L112.005 10.2084C112.001 10.1935 111.991 10.1806 111.979 10.1714C111.966 10.1623 111.951 10.1573 111.935 10.1573C111.92 10.1573 111.905 10.1623 111.892 10.1714C111.879 10.1806 111.87 10.1935 111.865 10.2084L110.152 15.7094Z" fill="white"/>
<path d="M44.0634 25.1605C45.7553 24.8706 47.0361 26.004 46.2116 27.7173C46.0135 28.126 45.7015 28.3335 45.2753 28.3399L44.1086 28.3589C44.077 28.3595 44.0456 28.3538 44.0162 28.3422C43.9868 28.3305 43.9601 28.3131 43.9375 28.291C43.9149 28.2689 43.897 28.2424 43.8847 28.2133C43.8725 28.1842 43.8662 28.1529 43.8662 28.1212V25.3957C43.8664 25.3396 43.8863 25.2854 43.9223 25.2424C43.9583 25.1994 44.0083 25.1704 44.0634 25.1605ZM44.61 27.9288C46.4112 28.1474 46.4634 25.3149 44.6005 25.6262C44.5446 25.6357 44.4939 25.6643 44.4573 25.707C44.4208 25.7496 44.4008 25.8035 44.4009 25.8591V27.6935C44.401 27.7519 44.4224 27.8081 44.461 27.8515C44.4996 27.8948 44.5526 27.9224 44.61 27.9288Z" fill="white"/>
<path d="M47.5483 27.2237V27.6871C47.5481 27.7466 47.5705 27.804 47.611 27.848C47.6514 27.892 47.7071 27.9194 47.7669 27.9247C47.9285 27.9366 49.3923 27.7703 49.0406 28.2598C49.0178 28.2907 48.9883 28.3157 48.9543 28.3326C48.9204 28.3496 48.8832 28.358 48.8458 28.3572L47.2489 28.343C47.1863 28.3423 47.1265 28.317 47.0824 28.2725C47.0384 28.228 47.0137 28.1679 47.0137 28.1053V25.3822C47.0137 25.3191 47.0387 25.2587 47.0833 25.2141C47.1278 25.1696 47.1883 25.1445 47.2513 25.1445H48.8529C48.8941 25.1447 48.9341 25.158 48.9671 25.1823C49 25.2067 49.0241 25.241 49.0359 25.28C49.1119 25.5271 48.9551 25.6245 48.7293 25.6198C48.4125 25.6166 48.0964 25.6182 47.7812 25.6245C47.719 25.6258 47.6598 25.6514 47.6162 25.6958C47.5727 25.7402 47.5483 25.7999 47.5483 25.8622V26.2732C47.5483 26.3363 47.5734 26.3967 47.6179 26.4413C47.6625 26.4858 47.7229 26.5109 47.786 26.5109H48.7269C48.7885 26.5109 48.8476 26.5353 48.8916 26.5788C48.9356 26.6223 48.9609 26.6816 48.9622 26.7437L48.9646 26.8293C48.9652 26.8497 48.9617 26.8699 48.9544 26.8889C48.947 26.9079 48.9359 26.9253 48.9217 26.9399C48.9076 26.9545 48.8906 26.9662 48.8718 26.9741C48.853 26.982 48.8329 26.9861 48.8125 26.9861H47.786C47.7229 26.9861 47.6625 27.0112 47.6179 27.0557C47.5734 27.1003 47.5483 27.1607 47.5483 27.2237Z" fill="white"/>
<path d="M50.1624 27.3883V28.1463C50.1625 28.2061 50.1398 28.2639 50.0989 28.3079C50.0579 28.352 50.0017 28.3791 49.9414 28.3839C49.7719 28.3966 49.6871 28.3079 49.6871 28.1178C49.684 27.2132 49.6855 26.3102 49.6919 25.4088C49.692 25.3505 49.7134 25.2943 49.752 25.2509C49.7906 25.2075 49.8436 25.18 49.901 25.1736C50.1925 25.1403 50.4824 25.1308 50.7707 25.1451C51.8733 25.1974 52.3628 26.0932 51.5263 27.0033C51.4936 27.0398 51.4729 27.0855 51.4669 27.1343C51.461 27.1832 51.4701 27.2328 51.4931 27.2766L51.8804 28.0013C51.8986 28.0363 51.908 28.0751 51.9077 28.1145C51.9075 28.1538 51.8977 28.1924 51.8792 28.227C51.8606 28.2615 51.8339 28.2908 51.8014 28.3124C51.7689 28.3339 51.7315 28.3471 51.6927 28.3506L51.6143 28.3578C51.5765 28.3613 51.5386 28.3537 51.5056 28.3359C51.4725 28.3181 51.4458 28.291 51.4289 28.258L50.9228 27.2956C50.9041 27.2588 50.876 27.2275 50.8414 27.205C50.8067 27.1825 50.7668 27.1695 50.7255 27.1673L50.4119 27.1506C50.3798 27.1487 50.3477 27.1534 50.3175 27.1645C50.2873 27.1755 50.2597 27.1927 50.2363 27.215C50.2129 27.2372 50.1943 27.2641 50.1816 27.2939C50.1689 27.3237 50.1623 27.3558 50.1624 27.3883ZM50.1838 25.7677C49.4614 28.2532 53.2824 25.5253 50.4048 25.5966C50.3543 25.5981 50.3057 25.6155 50.2659 25.6463C50.2262 25.677 50.1974 25.7195 50.1838 25.7677Z" fill="white"/>
<path d="M53.5408 27.174L53.258 27.1645C53.2262 27.1636 53.1946 27.169 53.1649 27.1805C53.1352 27.192 53.1082 27.2094 53.0854 27.2315C53.0625 27.2537 53.0444 27.2802 53.032 27.3095C53.0196 27.3388 53.0133 27.3703 53.0133 27.4021V28.1293C53.0133 28.184 52.9944 28.2371 52.9597 28.2796C52.9251 28.322 52.8769 28.3512 52.8232 28.3621C52.2624 28.4762 52.4786 25.7839 52.4834 25.4061C52.4839 25.3503 52.5044 25.2964 52.5413 25.2538C52.5782 25.2112 52.6292 25.1827 52.6854 25.1732C53.0735 25.113 53.4561 25.117 53.8331 25.1851C54.8311 25.3633 55.1471 26.3067 54.3606 26.9982C54.3196 27.0344 54.2922 27.0835 54.2831 27.1371C54.274 27.1908 54.2838 27.2458 54.3107 27.2928L54.7622 28.0794C54.7771 28.1051 54.7857 28.1339 54.7875 28.1635C54.7892 28.1932 54.784 28.2228 54.7722 28.2501C54.7604 28.2773 54.7424 28.3015 54.7196 28.3205C54.6969 28.3396 54.6699 28.353 54.641 28.3598C54.557 28.3788 54.4747 28.3701 54.3939 28.3336C54.1658 28.2291 53.8735 27.5352 53.7428 27.2976C53.7232 27.2608 53.6942 27.2299 53.6587 27.2082C53.6231 27.1865 53.5824 27.1747 53.5408 27.174ZM53.0347 25.7815C52.4192 28.2647 56.024 25.5225 53.258 25.6009C53.206 25.6029 53.1561 25.6216 53.1158 25.6542C53.0755 25.6868 53.047 25.7315 53.0347 25.7815Z" fill="white"/>
<path d="M56.9862 27.5218H56.0784C56.0264 27.522 55.9759 27.539 55.9347 27.5704C55.8935 27.6017 55.8639 27.6456 55.8503 27.6953L55.7173 28.1706C55.7084 28.2033 55.6925 28.2337 55.6707 28.2595C55.649 28.2854 55.6219 28.3061 55.5913 28.3203C55.1089 28.5484 55.1873 28.1064 55.2776 27.864C55.5549 27.1147 55.8234 26.3638 56.0832 25.6113C56.2068 25.2478 56.4087 24.9508 56.8127 25.2335C56.8542 25.2612 56.8851 25.3022 56.9006 25.35L57.863 28.0375C57.876 28.0732 57.8801 28.1115 57.875 28.1491C57.8698 28.1868 57.8555 28.2227 57.8334 28.2537C57.8112 28.2848 57.7818 28.3101 57.7476 28.3274C57.7135 28.3448 57.6756 28.3538 57.6373 28.3535H57.5446C57.5029 28.3536 57.4625 28.3401 57.4294 28.3152C57.3964 28.2903 57.3725 28.2554 57.3616 28.2157L57.2167 27.6953C57.2022 27.6453 57.172 27.6014 57.1304 27.5701C57.0888 27.5388 57.0382 27.5219 56.9862 27.5218ZM56.1188 27.0062C56.1151 27.0184 56.1143 27.0313 56.1165 27.0438C56.1186 27.0564 56.1238 27.0683 56.1314 27.0784C56.1391 27.0886 56.149 27.0969 56.1605 27.1025C56.1719 27.1081 56.1845 27.1109 56.1973 27.1108L56.9006 27.0989C56.9134 27.0988 56.9261 27.0957 56.9374 27.0898C56.9488 27.0839 56.9586 27.0754 56.9661 27.0649C56.9735 27.0545 56.9783 27.0424 56.9802 27.0297C56.982 27.017 56.9808 27.0041 56.9767 26.9919L56.6083 25.963C56.603 25.9466 56.5926 25.9323 56.5785 25.9222C56.5644 25.9122 56.5475 25.9069 56.5302 25.9071C56.5129 25.9074 56.4962 25.9132 56.4825 25.9237C56.4687 25.9342 56.4587 25.9488 56.4539 25.9654L56.1188 27.0062Z" fill="white"/>
<path d="M61.212 26.2153H61.1526C61.1493 26.214 61.1431 26.22 61.1352 26.2324C61.1273 26.2447 61.1182 26.2623 61.1098 26.2818L60.3637 28.0997C60.1467 28.6272 59.9455 28.6589 59.7601 28.1947L59.0045 26.2937C58.9998 26.2825 58.9926 26.2726 58.9834 26.2647C58.9742 26.2568 58.9633 26.2511 58.9516 26.2481C58.9398 26.2451 58.9275 26.2449 58.9157 26.2475C58.9039 26.25 58.8928 26.2553 58.8833 26.2628C58.85 26.2898 58.835 26.3341 58.8381 26.3959C58.8873 27.2323 58.9063 27.8327 58.8952 28.1971C58.8946 28.2176 58.8898 28.2378 58.881 28.2564C58.8722 28.275 58.8597 28.2916 58.8441 28.3052C58.8285 28.3188 58.8102 28.3291 58.7904 28.3354C58.7705 28.3418 58.7496 28.344 58.7288 28.342L58.6362 28.3349C58.5769 28.3296 58.5218 28.3022 58.4818 28.2582C58.4418 28.2142 58.4197 28.1568 58.4199 28.0973V25.4098C58.4199 25.3748 58.4275 25.3404 58.4423 25.3087C58.4571 25.2771 58.4786 25.2491 58.5055 25.2268C58.755 25.0153 59.0235 25.1816 59.1399 25.4525C59.3934 26.0387 59.6358 26.6248 59.8671 27.211C59.9811 27.5009 60.0983 27.5024 60.2187 27.2157L61.0219 25.2981C61.0395 25.2557 61.0692 25.2194 61.1072 25.1936C61.1452 25.1679 61.1899 25.1538 61.2358 25.1531L61.4401 25.146C61.4719 25.145 61.5036 25.1505 61.5333 25.162C61.5629 25.1735 61.59 25.1909 61.6128 25.213C61.6356 25.2352 61.6537 25.2617 61.6661 25.291C61.6785 25.3203 61.6849 25.3518 61.6849 25.3836C61.688 26.2628 61.6888 27.1405 61.6873 28.0165C61.6873 28.2446 61.5756 28.4418 61.3284 28.3397C61.2934 28.3255 61.2634 28.3012 61.2422 28.2699C61.2211 28.2385 61.2097 28.2016 61.2096 28.1638L61.2144 26.289C61.2144 26.2694 61.2141 26.2507 61.2137 26.2369C61.2132 26.2231 61.2126 26.2153 61.212 26.2153Z" fill="white"/>
<path d="M63.9705 27.4972L63.1031 27.5281C63.0557 27.5294 63.0096 27.5453 62.971 27.5738C62.9325 27.6022 62.9031 27.6418 62.8869 27.6873C62.8156 27.8941 62.7491 28.26 62.5471 28.3432C62.4806 28.3717 62.4117 28.3796 62.3404 28.3669C62.313 28.3627 62.2868 28.3525 62.2639 28.3368C62.2409 28.3212 62.2217 28.3006 62.2076 28.2765C62.1936 28.2524 62.1849 28.2255 62.1824 28.1976C62.1799 28.1696 62.1835 28.1415 62.193 28.115L63.2101 25.3111C63.2257 25.2668 63.2541 25.2283 63.2918 25.2003C63.3295 25.1724 63.3747 25.1563 63.4216 25.1543L63.6758 25.1447C63.7269 25.1426 63.7772 25.1567 63.8195 25.1849C63.8618 25.2131 63.8939 25.254 63.9111 25.3016L64.9043 28.1222C64.9134 28.1484 64.9168 28.1763 64.9142 28.2039C64.9116 28.2316 64.9032 28.2583 64.8894 28.2822C64.8756 28.3061 64.8569 28.3267 64.8344 28.3426C64.812 28.3584 64.7864 28.3692 64.7594 28.3741C64.4338 28.4335 64.3055 27.9725 64.2057 27.6612C64.1901 27.612 64.1587 27.5694 64.1162 27.5398C64.0737 27.5101 64.0225 27.4952 63.9705 27.4972ZM63.1008 26.9935C63.0962 27.0055 63.0946 27.0185 63.0961 27.0314C63.0976 27.0442 63.1021 27.0564 63.1094 27.0672C63.1166 27.0779 63.1262 27.0867 63.1376 27.0929C63.1489 27.0991 63.1615 27.1025 63.1744 27.1028L63.9301 27.1075C63.9432 27.1076 63.9561 27.1045 63.9677 27.0984C63.9794 27.0924 63.9894 27.0836 63.9968 27.0729C64.0043 27.0621 64.0091 27.0497 64.0107 27.0367C64.0123 27.0237 64.0107 27.0105 64.0061 26.9982L63.633 26.0049C63.6274 25.9893 63.6171 25.9757 63.6035 25.9662C63.5899 25.9566 63.5736 25.9515 63.557 25.9515C63.5404 25.9515 63.5241 25.9566 63.5105 25.9662C63.4969 25.9757 63.4866 25.9893 63.481 26.0049L63.1008 26.9935Z" fill="white"/>
<path d="M68.1877 27.5232L67.356 27.5208C67.3063 27.52 67.2576 27.5352 67.217 27.5643C67.1764 27.5934 67.146 27.6347 67.1303 27.6824L66.9616 28.1838C66.951 28.2153 66.9339 28.2442 66.9114 28.2688C66.8889 28.2933 66.8615 28.3129 66.8309 28.3264C66.3128 28.5521 66.434 28.1173 66.5219 27.8725C66.8103 27.0757 67.0962 26.2789 67.3798 25.482C67.4986 25.1446 67.7433 25.0163 68.0546 25.2159C68.0991 25.2435 68.1327 25.2855 68.1497 25.3347L69.1192 28.0697C69.1392 28.1253 69.1373 28.1865 69.114 28.2411C69.0906 28.2957 69.0475 28.3397 68.9932 28.3644C68.8221 28.442 68.6922 28.366 68.6035 28.1363C68.5259 27.9319 68.4578 27.7711 68.3992 27.6539C68.379 27.6145 68.3486 27.5814 68.3113 27.5583C68.274 27.5353 68.2312 27.5231 68.1877 27.5232ZM67.356 26.9909C67.3514 27.003 67.3498 27.016 67.3513 27.0288C67.3528 27.0416 67.3574 27.0539 67.3646 27.0646C67.3718 27.0753 67.3815 27.0841 67.3928 27.0903C67.4041 27.0965 67.4168 27.0999 67.4297 27.1002L68.152 27.1097C68.1648 27.1099 68.1774 27.1071 68.1888 27.1015C68.2003 27.0959 68.2102 27.0876 68.2179 27.0774C68.2255 27.0672 68.2307 27.0554 68.2328 27.0428C68.235 27.0303 68.2342 27.0174 68.2305 27.0052L67.8859 25.981C67.8811 25.9644 67.8711 25.9498 67.8573 25.9393C67.8436 25.9288 67.8268 25.923 67.8096 25.9228C67.7923 25.9225 67.7754 25.9278 67.7613 25.9378C67.7472 25.9479 67.7368 25.9622 67.7315 25.9787L67.356 26.9909Z" fill="white"/>
<path d="M71.0471 25.207C72.6368 25.6229 72.6938 27.9872 71.1065 28.2985C70.7009 28.3793 70.2843 28.3928 69.8566 28.3389C69.799 28.3319 69.746 28.3042 69.7075 28.2609C69.669 28.2175 69.6476 28.1616 69.6475 28.1037V25.3924C69.6473 25.3362 69.6673 25.2817 69.7038 25.2386C69.7404 25.1955 69.7911 25.1667 69.8471 25.1571C70.2669 25.0906 70.6669 25.1072 71.0471 25.207ZM71.2063 25.725C70.9845 25.6173 70.7144 25.5785 70.396 25.6086C70.3375 25.6145 70.2833 25.642 70.2438 25.6859C70.2043 25.7298 70.1824 25.7869 70.1821 25.8462V27.6878C70.1821 27.7451 70.2028 27.8004 70.2403 27.8436C70.2779 27.8868 70.3298 27.915 70.3865 27.9231C71.8597 28.1298 72.2043 26.2074 71.2063 25.725Z" fill="white"/>
<path d="M73.3212 26.316L73.3355 28.122C73.3356 28.1553 73.3288 28.1882 73.3154 28.2187C73.302 28.2492 73.2823 28.2766 73.2577 28.299C73.233 28.3214 73.204 28.3384 73.1723 28.3488C73.1407 28.3592 73.1072 28.3629 73.0741 28.3596L72.9933 28.3524C72.9556 28.3495 72.9205 28.3321 72.895 28.3039C72.8694 28.2757 72.8553 28.2387 72.8555 28.2004V25.3726C72.8554 25.3202 72.8726 25.2693 72.9045 25.2279C72.9363 25.1866 72.981 25.1572 73.0313 25.1445C73.3117 25.0685 73.4567 25.1802 73.566 25.4416C73.8099 26.0309 74.0547 26.6194 74.3002 27.2071C74.419 27.4907 74.5363 27.4907 74.6519 27.2071L75.4337 25.2918C75.4519 25.2483 75.4826 25.211 75.5219 25.1848C75.5613 25.1586 75.6074 25.1446 75.6547 25.1445H75.8852C75.9482 25.1445 76.0086 25.1696 76.0532 25.2141C76.0978 25.2587 76.1228 25.3191 76.1228 25.3821V28.0934C76.1228 28.125 76.1165 28.1563 76.1043 28.1855C76.092 28.2146 76.0741 28.241 76.0515 28.2632C76.029 28.2853 76.0022 28.3027 75.9728 28.3144C75.9434 28.326 75.912 28.3317 75.8804 28.3311L75.8163 28.3287C75.7537 28.3274 75.6941 28.3015 75.6505 28.2566C75.6069 28.2116 75.5828 28.1513 75.5834 28.0887C75.5858 27.882 75.6357 26.4111 75.5216 26.3564C75.5173 26.3543 75.5117 26.3553 75.5052 26.3596C75.4986 26.3639 75.4912 26.3712 75.4835 26.3812C75.4757 26.3912 75.4677 26.4036 75.46 26.4177C75.4522 26.4318 75.4449 26.4473 75.4384 26.4633L74.7517 28.2051C74.7317 28.2558 74.6957 28.2977 74.6495 28.3239C74.0032 28.7018 73.604 26.2091 73.3474 26.2115C73.3399 26.2118 73.3329 26.223 73.328 26.2425C73.3231 26.2621 73.3207 26.2885 73.3212 26.316Z" fill="white"/>
<path d="M77.1726 25.1419L76.9113 25.1423C76.8351 25.1425 76.7735 25.2043 76.7737 25.2804L76.7788 28.2127C76.7789 28.2888 76.8407 28.3504 76.9169 28.3503L77.1782 28.3498C77.2544 28.3497 77.316 28.2879 77.3158 28.2117L77.3107 25.2795C77.3106 25.2033 77.2488 25.1417 77.1726 25.1419Z" fill="white"/>
<path d="M78.478 26.7099L78.5113 28.1143C78.5119 28.1636 78.4971 28.2119 78.4691 28.2527C78.441 28.2935 78.401 28.3248 78.3544 28.3424C78.0994 28.4359 77.9703 28.3202 77.9671 27.9955C77.9608 27.1163 77.9616 26.2378 77.9695 25.3602C77.9696 25.3114 77.9848 25.2639 78.0129 25.2244C78.041 25.1848 78.0807 25.155 78.1263 25.1392C78.2942 25.079 78.4226 25.1163 78.5113 25.2509C78.8915 25.8339 79.2883 26.4058 79.7018 26.9666C79.9315 27.2771 80.0455 27.239 80.044 26.8525V25.3816C80.044 25.3186 80.0687 25.2581 80.1129 25.2136C80.157 25.169 80.2168 25.144 80.2792 25.144H80.341C80.404 25.144 80.4644 25.169 80.509 25.2136C80.5536 25.2581 80.5786 25.3186 80.5786 25.3816V28.0953C80.5786 28.1322 80.57 28.1685 80.5535 28.2015C80.537 28.2345 80.5131 28.2632 80.4836 28.2854C80.257 28.4565 80.0542 28.3947 79.8752 28.1C79.5172 27.5155 79.1639 27.0101 78.8154 26.584C78.5826 26.2988 78.4701 26.3408 78.478 26.7099Z" fill="white"/>
<path d="M81.5884 25.1387H81.4126C81.3142 25.1387 81.2344 25.2185 81.2344 25.3169V28.1684C81.2344 28.2668 81.3142 28.3466 81.4126 28.3466H81.5884C81.6869 28.3466 81.7667 28.2668 81.7667 28.1684V25.3169C81.7667 25.2185 81.6869 25.1387 81.5884 25.1387Z" fill="white"/>
<path d="M82.5607 26.5039C81.7456 25.5201 83.6751 24.4318 84.6256 25.7554C84.6382 25.7723 84.647 25.7917 84.6515 25.8123C84.6561 25.8329 84.6562 25.8542 84.652 25.8748C84.6477 25.8954 84.6391 25.9149 84.6268 25.932C84.6145 25.9491 84.5987 25.9634 84.5805 25.974L84.4926 26.0263C84.4391 26.0571 84.3757 26.066 84.3158 26.0509C84.2559 26.0358 84.2043 25.998 84.1718 25.9455C83.7417 25.2564 82.5963 25.6223 82.9623 26.2449C82.9916 26.2926 83.036 26.3287 83.0882 26.3471L84.3262 26.7914C84.3756 26.8084 84.4174 26.841 84.445 26.8841C85.3979 28.336 83.0787 29.0417 82.3373 27.7704C82.317 27.7347 82.3061 27.6943 82.3057 27.6531C82.3053 27.612 82.3153 27.5714 82.3349 27.5352C82.4443 27.3419 82.5797 27.3483 82.7413 27.5542C83.1421 28.0627 83.6324 28.1007 84.2122 27.6683C84.2449 27.6441 84.2709 27.6119 84.2876 27.5748C84.3043 27.5376 84.3112 27.4968 84.3076 27.4563C84.3041 27.4157 84.2901 27.3768 84.2672 27.3432C84.2442 27.3096 84.213 27.2824 84.1765 27.2643C83.6799 27.0172 82.8672 26.8722 82.5607 26.5039Z" fill="white"/>
<path d="M85.8655 25.6198H85.3451C85.2882 25.6199 85.2332 25.5995 85.19 25.5624C85.1469 25.5254 85.1184 25.4741 85.1099 25.4178L85.0956 25.3204C85.0922 25.2987 85.0935 25.2766 85.0994 25.2554C85.1054 25.2343 85.1158 25.2147 85.13 25.198C85.1443 25.1813 85.1619 25.1679 85.1818 25.1587C85.2017 25.1494 85.2234 25.1446 85.2453 25.1445H87.3483C87.4089 25.1444 87.4673 25.1672 87.5115 25.2083C87.5556 25.2494 87.5823 25.3056 87.5859 25.3655L87.5907 25.4344C87.592 25.4546 87.5892 25.4748 87.5826 25.4939C87.576 25.513 87.5656 25.5306 87.5521 25.5456C87.5386 25.5607 87.5223 25.5729 87.504 25.5815C87.4857 25.5902 87.4659 25.5951 87.4457 25.596L86.8208 25.6222C86.7606 25.6245 86.7036 25.6497 86.6613 25.6924C86.6189 25.7352 86.5944 25.7925 86.5926 25.8527C86.5689 26.6677 86.7566 28.4689 86.2837 28.3525C86.2322 28.3397 86.1864 28.3101 86.1537 28.2683C86.121 28.2266 86.1032 28.175 86.1031 28.122V25.8574C86.1031 25.7944 86.0781 25.7339 86.0335 25.6894C85.989 25.6448 85.9285 25.6198 85.8655 25.6198Z" fill="white"/>
<path d="M88.5977 27.4014V28.1333C88.5978 28.1886 88.5785 28.2424 88.5431 28.2854C87.9086 29.0458 88.1249 25.5194 88.1273 25.4077C88.1275 25.3494 88.1492 25.2932 88.1882 25.2498C88.2272 25.2064 88.2807 25.1789 88.3387 25.1725C88.6397 25.1392 88.9399 25.1305 89.2393 25.1463C90.3324 25.1986 90.8005 26.1776 89.9522 27.0069C89.9146 27.0437 89.8903 27.0918 89.883 27.1438C89.8757 27.1958 89.8858 27.2488 89.9118 27.2945L90.3372 28.043C90.355 28.074 90.3656 28.1087 90.368 28.1445C90.3704 28.1802 90.3647 28.2161 90.3512 28.2495C90.3377 28.2828 90.3168 28.3128 90.2901 28.3371C90.2634 28.3614 90.2316 28.3795 90.1969 28.3899C90.0417 28.4343 89.9181 28.3669 89.8263 28.1879C89.6758 27.8949 89.5292 27.5986 89.3867 27.2992C89.3673 27.2586 89.3367 27.2244 89.2984 27.2004C89.2602 27.1764 89.2158 27.1637 89.1704 27.1638H88.8354C88.7723 27.1638 88.7119 27.1888 88.6673 27.2334C88.6228 27.2779 88.5977 27.3384 88.5977 27.4014ZM89.8001 26.42C90.0948 25.6786 89.389 25.5646 88.8354 25.6121C88.7851 25.6161 88.7375 25.6362 88.6994 25.6696C88.6614 25.703 88.6349 25.7478 88.6239 25.7974C88.4068 26.7891 88.7625 27.037 89.6908 26.5412C89.7413 26.5151 89.7802 26.472 89.8001 26.42Z" fill="white"/>
<path d="M91.0721 28.3627C90.8511 28.3746 90.7014 28.3508 90.7989 28.0799C91.13 27.158 91.4603 26.232 91.7898 25.3021C91.8069 25.253 91.84 25.211 91.8838 25.1827C91.9277 25.1543 91.9798 25.1412 92.0321 25.1453L92.2864 25.1667C92.3326 25.1703 92.3767 25.1869 92.4133 25.2142C92.45 25.2416 92.4777 25.2787 92.4931 25.3211C92.81 26.2003 93.1347 27.0772 93.4674 27.9516C93.61 28.3239 93.5062 28.4554 93.1561 28.3461C93.122 28.335 93.0906 28.3165 93.0644 28.2919C93.0381 28.2672 93.0175 28.237 93.004 28.2035L92.802 27.6736C92.7852 27.629 92.755 27.5906 92.7155 27.5634C92.6761 27.5363 92.6292 27.5216 92.5811 27.5215H91.7161C91.6685 27.5215 91.622 27.5357 91.5826 27.5624C91.5432 27.5891 91.5127 27.627 91.4951 27.6712L91.2812 28.213C91.2644 28.2554 91.2358 28.292 91.1987 28.3186C91.1616 28.3451 91.1177 28.3604 91.0721 28.3627ZM91.6947 26.994C91.6901 27.0063 91.6885 27.0195 91.6901 27.0325C91.6917 27.0455 91.6965 27.0579 91.704 27.0686C91.7115 27.0794 91.7215 27.0882 91.7331 27.0942C91.7447 27.1003 91.7576 27.1034 91.7707 27.1033L92.4908 27.1081C92.5041 27.1085 92.5173 27.1057 92.5292 27.0998C92.5412 27.0939 92.5515 27.0852 92.5592 27.0744C92.567 27.0636 92.572 27.051 92.5737 27.0378C92.5754 27.0246 92.5739 27.0112 92.5692 26.9987L92.2151 26.0174C92.2097 26.0016 92.1996 25.9879 92.1862 25.9781C92.1727 25.9683 92.1565 25.9629 92.1399 25.9627C92.1233 25.9624 92.107 25.9673 92.0932 25.9766C92.0794 25.986 92.0689 25.9994 92.063 26.015L91.6947 26.994Z" fill="white"/>
<path d="M94.1902 25.6198H93.6223C93.6003 25.6197 93.5787 25.6149 93.5588 25.6057C93.5389 25.5964 93.5212 25.583 93.507 25.5663C93.4928 25.5496 93.4823 25.53 93.4764 25.5089C93.4704 25.4878 93.4691 25.4656 93.4726 25.4439L93.4868 25.3441C93.4964 25.2882 93.5253 25.2374 93.5683 25.2009C93.6114 25.1643 93.6659 25.1444 93.7221 25.1445H95.8155C95.8551 25.1445 95.893 25.1599 95.9214 25.1874C95.9498 25.2149 95.9664 25.2524 95.9676 25.2919L95.97 25.3774C95.9706 25.409 95.965 25.4404 95.9533 25.4698C95.9416 25.4992 95.9242 25.5259 95.9021 25.5485C95.88 25.5711 95.8536 25.589 95.8244 25.6013C95.7953 25.6135 95.764 25.6198 95.7324 25.6198H95.193C95.1299 25.6198 95.0695 25.6448 95.0249 25.6894C94.9804 25.7339 94.9553 25.7944 94.9553 25.8574V28.1338C94.9555 28.1664 94.9488 28.1986 94.9358 28.2285C94.9228 28.2583 94.9038 28.2852 94.8799 28.3073C94.856 28.3294 94.8277 28.3463 94.797 28.3569C94.7662 28.3676 94.7335 28.3717 94.7011 28.3691C94.5173 28.3564 94.4357 28.2131 94.4563 27.939C94.5102 27.2325 94.5007 26.5299 94.4278 25.8313C94.4219 25.7734 94.3944 25.7198 94.3505 25.6807C94.3066 25.6417 94.2495 25.62 94.1902 25.6198Z" fill="white"/>
<path d="M96.7515 25.1367H96.7229C96.6009 25.1367 96.502 25.2357 96.502 25.3577V28.1854C96.502 28.3075 96.6009 28.4064 96.7229 28.4064H96.7515C96.8735 28.4064 96.9724 28.3075 96.9724 28.1854V25.3577C96.9724 25.2357 96.8735 25.1367 96.7515 25.1367Z" fill="white"/>
<path d="M99.0464 27.2512L99.7236 25.3146C99.7435 25.2567 99.7861 25.2081 99.8424 25.1791C100.339 24.9344 100.249 25.3574 100.161 25.6045C99.8567 26.4583 99.5525 27.3083 99.2483 28.1542C99.2314 28.2035 99.1987 28.2454 99.1557 28.273C98.7826 28.5201 98.5497 28.2801 98.4214 27.9308C98.122 27.1118 97.8281 26.2904 97.5398 25.4667C97.5223 25.4163 97.5219 25.3616 97.5387 25.3113C97.5554 25.2609 97.5885 25.2178 97.6325 25.1886C97.84 25.054 97.9953 25.1443 98.0982 25.4595C98.2915 26.0536 98.4872 26.65 98.6852 27.2488C98.8024 27.6005 98.9228 27.6013 99.0464 27.2512Z" fill="white"/>
<path d="M102.076 27.5216H101.185C101.141 27.5215 101.097 27.5339 101.059 27.5575C101.021 27.581 100.991 27.6147 100.972 27.6547C100.889 27.8226 100.808 27.9881 100.727 28.1513C100.648 28.3113 100.541 28.3826 100.408 28.3652C100.38 28.3616 100.353 28.3516 100.329 28.336C100.305 28.3205 100.285 28.2997 100.27 28.2753C100.255 28.2508 100.246 28.2234 100.243 28.1949C100.24 28.1664 100.244 28.1377 100.254 28.1109L101.271 25.3331C101.288 25.2852 101.321 25.2435 101.366 25.2143C101.701 25.0004 101.92 25.1691 102.041 25.5018C102.347 26.3446 102.651 27.1865 102.953 28.0277C102.966 28.0636 102.97 28.1021 102.965 28.1399C102.96 28.1777 102.946 28.2138 102.924 28.245C102.902 28.2762 102.873 28.3017 102.84 28.3193C102.806 28.3369 102.768 28.3461 102.73 28.3461H102.637C102.596 28.3462 102.556 28.3328 102.523 28.3079C102.49 28.2831 102.466 28.2482 102.454 28.2083L102.305 27.6927C102.29 27.6433 102.26 27.6 102.219 27.5691C102.178 27.5383 102.128 27.5216 102.076 27.5216ZM101.692 25.9675C101.686 25.9519 101.676 25.9383 101.662 25.9288C101.648 25.9192 101.632 25.914 101.615 25.914C101.599 25.914 101.583 25.9192 101.569 25.9288C101.555 25.9383 101.545 25.9519 101.539 25.9675L101.171 26.9988C101.167 27.0109 101.166 27.0239 101.168 27.0366C101.169 27.0493 101.174 27.0613 101.182 27.0718C101.189 27.0822 101.199 27.0908 101.21 27.0967C101.222 27.1026 101.234 27.1057 101.247 27.1057H101.974C101.987 27.1057 102 27.1026 102.011 27.0967C102.022 27.0908 102.032 27.0822 102.04 27.0718C102.047 27.0613 102.052 27.0493 102.054 27.0366C102.056 27.0239 102.054 27.0109 102.05 26.9988L101.692 25.9675Z" fill="white"/>
<path d="M104.84 25.1579C107.903 24.7183 107.981 28.3634 105.683 28.3539C105.409 28.3524 105.141 28.3524 104.88 28.3539C104.849 28.3542 104.818 28.3484 104.788 28.3367C104.759 28.325 104.733 28.3078 104.711 28.2859C104.688 28.264 104.67 28.238 104.658 28.2093C104.646 28.1806 104.64 28.1498 104.64 28.1187L104.638 25.3931C104.637 25.3365 104.657 25.2814 104.694 25.2382C104.731 25.195 104.783 25.1665 104.84 25.1579ZM106.315 25.7116L105.436 25.6165C105.403 25.6125 105.37 25.6155 105.338 25.6255C105.306 25.6355 105.277 25.6521 105.252 25.6744C105.227 25.6966 105.207 25.7239 105.193 25.7545C105.18 25.785 105.172 25.8182 105.172 25.8518V27.7147C105.172 27.747 105.179 27.7789 105.191 27.8085C105.204 27.8381 105.222 27.8649 105.245 27.8871C105.269 27.9093 105.296 27.9266 105.326 27.9378C105.356 27.949 105.388 27.954 105.419 27.9523C106.657 27.9032 107.02 27.207 106.51 25.8636C106.495 25.8223 106.469 25.7861 106.434 25.7592C106.4 25.7323 106.359 25.7158 106.315 25.7116Z" fill="white"/>
<path d="M108.559 26.5107H109.621C109.643 26.5108 109.665 26.5156 109.685 26.5247C109.705 26.5339 109.723 26.5471 109.737 26.5635C109.752 26.5799 109.762 26.5992 109.768 26.62C109.775 26.6408 109.776 26.6627 109.773 26.6841L109.759 26.7839C109.75 26.8402 109.722 26.8915 109.679 26.9286C109.636 26.9656 109.581 26.986 109.524 26.9859H108.559C108.496 26.9859 108.436 27.0109 108.391 27.0555C108.346 27.1001 108.321 27.1605 108.321 27.2235V27.6964C108.321 27.7582 108.345 27.8176 108.388 27.862C108.431 27.9063 108.49 27.9322 108.552 27.934C108.737 27.9388 110.165 27.7677 109.811 28.2548C109.789 28.2849 109.76 28.3095 109.727 28.3264C109.693 28.3433 109.656 28.3522 109.619 28.3522H108.086C108.024 28.3522 107.963 28.3273 107.919 28.2828C107.874 28.2383 107.849 28.1779 107.849 28.1146L107.844 25.4128C107.844 25.3537 107.866 25.2966 107.906 25.2527C107.946 25.2087 108.001 25.1811 108.06 25.1752C108.567 25.1277 109.071 25.1126 109.571 25.1301C109.837 25.1396 109.936 25.2481 109.868 25.4556C109.853 25.5032 109.823 25.5447 109.783 25.5742C109.742 25.6036 109.693 25.6195 109.643 25.6196H108.559C108.496 25.6196 108.436 25.6446 108.391 25.6892C108.346 25.7337 108.321 25.7942 108.321 25.8572V26.273C108.321 26.3361 108.346 26.3965 108.391 26.4411C108.436 26.4856 108.496 26.5107 108.559 26.5107Z" fill="white"/>
<path d="M111.097 27.9535L112.271 27.8964C112.293 27.8952 112.316 27.9019 112.334 27.9153C112.352 27.9288 112.365 27.9481 112.37 27.9701L112.435 28.2315C112.438 28.2459 112.439 28.2609 112.435 28.2755C112.432 28.29 112.426 28.3037 112.417 28.3154C112.408 28.3271 112.396 28.3365 112.383 28.343C112.369 28.3494 112.354 28.3528 112.34 28.3527H110.557C110.532 28.3527 110.507 28.3424 110.488 28.3241C110.47 28.3059 110.46 28.2811 110.46 28.2552V25.2327C110.46 25.219 110.463 25.2055 110.468 25.193C110.474 25.1806 110.482 25.1694 110.492 25.1602C110.502 25.151 110.514 25.144 110.527 25.1397C110.54 25.1354 110.553 25.1339 110.567 25.1352L110.907 25.1685C110.93 25.1708 110.953 25.1818 110.969 25.1993C110.985 25.2168 110.994 25.2397 110.995 25.2635V27.856C110.995 27.8692 110.997 27.8823 111.002 27.8944C111.008 27.9066 111.015 27.9175 111.025 27.9267C111.034 27.9358 111.046 27.9428 111.058 27.9475C111.07 27.9521 111.084 27.9541 111.097 27.9535Z" fill="white"/>
<path d="M83.6316 29.589C83.4785 29.8069 83.4404 30.0442 83.5467 30.1189C83.653 30.1936 83.8634 30.0775 84.0166 29.8595C84.1698 29.6415 84.2078 29.4043 84.1015 29.3296C83.9952 29.2549 83.7848 29.371 83.6316 29.589Z" fill="white"/>
<path d="M44.1582 31.9047C43.7194 31.6623 43.6378 31.3463 43.9134 30.9566C44.2857 30.429 44.791 30.269 45.4295 30.4766C45.7796 30.5906 45.9895 30.7942 46.0592 31.0873C46.0766 31.1649 46.0417 31.2251 45.9546 31.2678C45.9315 31.2795 45.9056 31.2849 45.8794 31.2837C45.8532 31.2824 45.8276 31.2745 45.8049 31.2607C45.2679 30.9185 44.8378 30.5288 44.2817 31.1776C44.2568 31.2068 44.2393 31.2416 44.2307 31.279C44.2222 31.3165 44.2228 31.3555 44.2326 31.3926C44.2425 31.4298 44.2611 31.464 44.2871 31.4923C44.313 31.5207 44.3454 31.5423 44.3815 31.5554C44.8544 31.7265 45.7859 31.9379 46.0259 32.3966C46.696 33.6892 44.7095 33.8128 43.9705 33.3993C43.9169 33.3687 43.877 33.3185 43.8588 33.2591C43.7368 32.8552 43.7843 32.6659 44.0013 32.6912C44.0276 32.6935 44.053 32.7013 44.0759 32.714C44.0988 32.7267 44.1188 32.744 44.1344 32.7649C44.9352 33.8437 46.3134 32.7292 45.2608 32.3894C44.8964 32.2706 44.5289 32.109 44.1582 31.9047Z" fill="white"/>
<path d="M51.5314 31.3995C50.7211 30.0783 49.476 31.2973 49.7991 32.4688C50.0272 33.3005 50.9183 33.4739 51.453 32.7682C51.5742 32.6066 51.769 32.4426 51.9282 32.6304C51.9522 32.6585 51.9675 32.6931 51.9722 32.7298C51.9768 32.7665 51.9706 32.8038 51.9544 32.8371C51.1156 34.5218 48.9983 33.5214 49.2478 31.7583C49.4427 30.3729 50.8423 29.9024 51.8451 31.0098C51.99 31.1666 52.0589 31.6181 51.6668 31.504C51.6103 31.4872 51.562 31.4499 51.5314 31.3995Z" fill="white"/>
<path d="M56.5896 33.6914C56.2028 33.6806 55.8367 33.4956 55.5719 33.177C55.3071 32.8585 55.1652 32.4325 55.1775 31.9927C55.1836 31.775 55.2273 31.5605 55.3062 31.3614C55.3851 31.1623 55.4977 30.9825 55.6374 30.8323C55.7771 30.6821 55.9413 30.5645 56.1206 30.4861C56.2999 30.4077 56.4907 30.3702 56.6823 30.3755C57.0691 30.3863 57.4351 30.5713 57.7 30.8899C57.9648 31.2085 58.1067 31.6345 58.0944 32.0742C58.0883 32.2919 58.0446 32.5065 57.9656 32.7056C57.8867 32.9047 57.7742 33.0845 57.6345 33.2346C57.4947 33.3848 57.3306 33.5025 57.1513 33.5808C56.972 33.6592 56.7812 33.6968 56.5896 33.6914ZM56.6463 33.2239C56.8952 33.2217 57.1329 33.0942 57.307 32.8695C57.481 32.6447 57.5773 32.341 57.5745 32.0253C57.5717 31.7096 57.4702 31.4076 57.2923 31.1859C57.1143 30.9642 56.8745 30.8409 56.6256 30.843C56.3766 30.8452 56.139 30.9727 55.9649 31.1975C55.7909 31.4223 55.6946 31.7259 55.6974 32.0417C55.7001 32.3574 55.8017 32.6593 55.9796 32.881C56.1576 33.1028 56.3974 33.2261 56.6463 33.2239Z" fill="white"/>
<path d="M74.2697 32.9733C73.3572 34.4465 71.3707 33.5079 71.6701 31.7851C71.9624 30.1123 74.1295 29.8865 74.3386 31.3645C74.3422 31.3914 74.3388 31.4187 74.3288 31.4436C74.3188 31.4686 74.3025 31.4905 74.2816 31.5071C73.9465 31.7614 73.0222 29.9435 72.3117 31.374C71.8816 32.239 72.1477 33.2679 73.3406 33.1657C73.4001 33.1611 73.4554 33.1338 73.495 33.0897L73.9061 32.6406C73.9356 32.6079 73.9735 32.5841 74.0154 32.5717C74.4004 32.4624 74.4051 32.7523 74.2697 32.9733Z" fill="white"/>
<path d="M78.3477 32.5616C79.013 34.1442 80.0871 32.3881 80.3984 32.5949C80.4326 32.6169 80.4587 32.6494 80.4729 32.6875C80.487 32.7257 80.4884 32.7674 80.4768 32.8063C80.3691 33.177 80.1829 33.4123 79.9184 33.5121C76.9623 34.6218 77.1144 29.4511 79.8685 30.5537C80.2376 30.7026 80.4364 30.9782 80.4649 31.3806C80.4712 31.4725 80.43 31.5335 80.3413 31.5636C80.3136 31.5722 80.2841 31.5729 80.2564 31.5658C80.2287 31.5586 80.2037 31.5439 80.1845 31.5232C79.9255 31.2499 79.6926 30.903 79.3005 30.8531C78.3976 30.7414 78.0744 31.9105 78.3477 32.5616Z" fill="white"/>
<path d="M119.594 32.9676C118.275 35.0017 115.932 32.4734 117.379 30.8171C117.983 30.128 119.527 30.2611 119.67 31.3684C119.673 31.3987 119.667 31.4292 119.653 31.4563C119.639 31.4834 119.618 31.5057 119.591 31.5205C119.453 31.5989 119.266 31.4777 119.18 31.3447C118.645 30.5225 117.743 30.8171 117.514 31.6512C117.203 32.7918 118.52 33.9633 119.223 32.6801C119.239 32.651 119.26 32.6256 119.286 32.6055C119.313 32.5854 119.343 32.5712 119.375 32.5637C119.739 32.4734 119.722 32.768 119.594 32.9676Z" fill="white"/>
<path d="M47.4295 33.2237H48.4988C48.5614 33.2237 48.6215 33.2487 48.666 33.2932C48.7105 33.3377 48.7358 33.3981 48.7364 33.4614V33.5421C48.7364 33.568 48.7262 33.5928 48.7079 33.611C48.6896 33.6293 48.6649 33.6396 48.639 33.6396H46.8949C46.8318 33.6396 46.7714 33.6145 46.7268 33.57C46.6823 33.5254 46.6572 33.465 46.6572 33.4019V30.6693C46.6572 30.6062 46.6823 30.5458 46.7268 30.5012C46.7714 30.4567 46.8318 30.4316 46.8949 30.4316H48.4941C48.5529 30.4314 48.6097 30.4532 48.6533 30.4928C48.6968 30.5324 48.724 30.5869 48.7293 30.6455L48.7364 30.7144C48.7381 30.7313 48.7362 30.7483 48.7309 30.7644C48.7255 30.7805 48.7169 30.7954 48.7054 30.8079C48.694 30.8204 48.6801 30.8304 48.6645 30.8373C48.649 30.8441 48.6322 30.8476 48.6152 30.8475H47.4295C47.3665 30.8475 47.306 30.8725 47.2615 30.9171C47.2169 30.9617 47.1919 31.0221 47.1919 31.0851V31.5604C47.1919 31.6234 47.2169 31.6838 47.2615 31.7284C47.306 31.7729 47.3665 31.798 47.4295 31.798H48.3848C48.4312 31.798 48.4774 31.812 48.5178 31.8384C48.8909 32.0879 48.4347 32.2613 48.2184 32.2661C47.9539 32.2709 47.6901 32.2748 47.4271 32.278C47.3643 32.2792 47.3045 32.3048 47.2605 32.3492C47.2165 32.3937 47.1919 32.4534 47.1919 32.5156V32.9861C47.1919 33.0491 47.2169 33.1096 47.2615 33.1541C47.306 33.1987 47.3665 33.2237 47.4295 33.2237Z" fill="white"/>
<path d="M53.1324 30.8485L52.5669 30.8461C52.533 30.8462 52.4999 30.8375 52.4707 30.8208C52.4415 30.8041 52.4173 30.7801 52.4005 30.7511C52.3023 30.5737 52.3934 30.4794 52.6738 30.4683C53.4318 30.4374 55.1546 30.2782 54.9574 30.7083C54.9381 30.7497 54.9077 30.7848 54.8694 30.8096C54.8312 30.8343 54.7867 30.8479 54.7411 30.8485H54.1566C54.0948 30.8485 54.0354 30.8726 53.991 30.9156C53.9466 30.9586 53.9208 31.0172 53.9189 31.079C53.8857 32.2006 53.8809 32.8961 53.9047 33.1654C53.9364 33.5424 53.8191 33.6992 53.553 33.6359C53.501 33.6236 53.4547 33.5942 53.4215 33.5523C53.3883 33.5105 53.3702 33.4588 53.37 33.4054V31.0862C53.37 31.0231 53.345 30.9627 53.3004 30.9181C53.2559 30.8736 53.1954 30.8485 53.1324 30.8485Z" fill="white"/>
<path d="M60.4679 32.5711L60.9242 33.3624C60.9396 33.3898 60.948 33.4206 60.9488 33.452C60.9496 33.4835 60.9426 33.5147 60.9285 33.5428C60.9145 33.5709 60.8937 33.5952 60.8681 33.6135C60.8425 33.6317 60.8128 33.6434 60.7816 33.6475C60.7135 33.6555 60.6477 33.6499 60.5844 33.6309C60.3586 33.562 60.0354 32.8087 59.9285 32.583C59.9073 32.5407 59.8741 32.5056 59.8332 32.482C59.7922 32.4583 59.7452 32.4472 59.698 32.4499L59.4129 32.4689C59.3524 32.4726 59.2955 32.4992 59.254 32.5434C59.2125 32.5875 59.1894 32.6459 59.1895 32.7066L59.1919 33.3933C59.1917 33.4271 59.1845 33.4606 59.1707 33.4915C59.1568 33.5223 59.1367 33.5499 59.1115 33.5723C59.0864 33.5948 59.0568 33.6116 59.0248 33.6217C58.9928 33.6318 58.959 33.6349 58.9257 33.6309L58.8663 33.6238C58.8087 33.6168 58.7557 33.5888 58.7172 33.545C58.6786 33.5013 58.6573 33.4447 58.6572 33.3862V30.6986C58.6572 30.6417 58.6775 30.5867 58.7146 30.5435C58.7516 30.5003 58.803 30.4719 58.8592 30.4634C59.2949 30.3984 59.6909 30.3976 60.0473 30.461C60.9883 30.6273 61.2473 31.6135 60.5131 32.2765C60.4733 32.3128 60.4472 32.3618 60.439 32.4154C60.4308 32.4689 60.441 32.5238 60.4679 32.5711ZM59.9784 30.9054C59.2545 30.6234 58.9978 30.9125 59.2085 31.7727C59.2185 31.8137 59.2392 31.8512 59.2685 31.8813C59.2977 31.9114 59.3345 31.9329 59.3748 31.9438C60.3063 32.1957 60.9123 31.2713 59.9784 30.9054Z" fill="white"/>
<path d="M63.1723 32.5115V32.9867C63.1723 33.0497 63.1974 33.1102 63.242 33.1547C63.2865 33.1993 63.347 33.2243 63.41 33.2243H64.6219C64.6349 33.2243 64.6477 33.2269 64.6597 33.232C64.6717 33.237 64.6825 33.2444 64.6916 33.2537C64.7007 33.263 64.7078 33.274 64.7126 33.2861C64.7173 33.2982 64.7196 33.3112 64.7193 33.3242L64.7169 33.4073C64.7163 33.4693 64.691 33.5285 64.6465 33.5721C64.602 33.6157 64.5419 33.6402 64.4793 33.6402H62.8753C62.8123 33.6402 62.7519 33.6151 62.7073 33.5706C62.6627 33.526 62.6377 33.4656 62.6377 33.4026V30.677C62.6377 30.6148 62.6621 30.5551 62.7056 30.5106C62.7491 30.4662 62.8084 30.4406 62.8706 30.4394C63.3838 30.4283 63.8931 30.4267 64.3985 30.4346C64.5815 30.437 64.9403 30.5297 64.686 30.7792C64.6419 30.8218 64.5823 30.8457 64.5197 30.8457L63.4147 30.8505C63.3633 30.8503 63.3133 30.8667 63.2722 30.8971C63.231 30.9275 63.201 30.9704 63.1866 31.0192C62.7327 32.5685 64.8429 31.2449 64.5933 32.1028C64.5789 32.1521 64.5489 32.1955 64.5078 32.2263C64.4667 32.2572 64.4166 32.2738 64.3652 32.2738H63.41C63.347 32.2738 63.2865 32.2989 63.242 32.3435C63.1974 32.388 63.1723 32.4485 63.1723 32.5115Z" fill="white"/>
<path d="M67.202 30.6117C67.6107 30.7464 67.8317 31.0719 67.865 31.5883C67.9727 33.258 67.1854 33.9282 65.503 33.5986C65.4488 33.5882 65.4 33.5589 65.3649 33.516C65.3297 33.4731 65.3105 33.4191 65.3105 33.3634V30.6782C65.3107 30.6199 65.3321 30.5637 65.3707 30.5203C65.4092 30.4769 65.4623 30.4494 65.5197 30.443C66.0947 30.3733 66.6555 30.4295 67.202 30.6117ZM67.2092 31.2676C66.8606 30.9761 66.463 30.8367 66.0163 30.8493C65.9545 30.8512 65.8959 30.877 65.8529 30.9214C65.8098 30.9658 65.7858 31.0252 65.7858 31.087V32.9333C65.7857 32.9943 65.8091 33.053 65.8511 33.0973C65.8932 33.1415 65.9506 33.1679 66.0115 33.1709C67.1743 33.2295 67.5997 32.6363 67.2876 31.3911C67.2753 31.3433 67.2478 31.3001 67.2092 31.2676Z" fill="white"/>
<path d="M68.5141 33.017C68.4817 32.9754 68.4642 32.9244 68.4642 32.872L68.457 30.674C68.457 30.6122 68.4811 30.5528 68.5241 30.5085C68.5671 30.4641 68.6257 30.4382 68.6875 30.4364L68.7469 30.434C68.7789 30.4327 68.8109 30.4379 68.8408 30.4493C68.8707 30.4607 68.8981 30.478 68.9211 30.5002C68.9442 30.5224 68.9626 30.549 68.9751 30.5785C68.9876 30.6079 68.9941 30.6396 68.9941 30.6716L68.9964 32.7794C68.9964 32.8188 69.0059 32.8576 69.0241 32.8924C69.0423 32.9272 69.0687 32.9569 69.101 32.979C70.0824 33.6301 70.5481 32.9695 70.5386 32.0522C70.5355 31.5897 70.537 31.1279 70.5434 30.6669C70.544 30.6043 70.5691 30.5445 70.6131 30.5004C70.6572 30.4564 70.7166 30.4316 70.7786 30.4316H70.857C70.898 30.4316 70.9373 30.4477 70.9663 30.4762C70.9952 30.5047 71.0115 30.5434 71.0115 30.5837C71.0091 31.2776 71.1564 32.6202 70.8475 33.1524C70.3414 34.0174 69.0915 33.756 68.5141 33.017Z" fill="white"/>
<path d="M76.558 32.8075H75.674C75.6242 32.8074 75.5756 32.8229 75.5351 32.8519C75.4946 32.8809 75.4642 32.9219 75.4483 32.9691L75.2677 33.5109C75.2544 33.5501 75.229 33.5841 75.1951 33.6076C75.1613 33.6312 75.1209 33.6431 75.08 33.6416L74.9897 33.6368C74.9521 33.6354 74.9153 33.6251 74.8824 33.6068C74.8496 33.5884 74.8215 33.5625 74.8006 33.5312C74.7798 33.4998 74.7666 33.464 74.7623 33.4266C74.758 33.3892 74.7626 33.3513 74.7758 33.316C75.0879 32.4891 75.3889 31.6606 75.6788 30.8305C75.8071 30.4645 76.0424 30.2554 76.4059 30.512C76.4461 30.5398 76.4769 30.5805 76.4939 30.6285C76.8059 31.5251 77.1133 32.4225 77.4158 33.3208C77.5267 33.6503 77.4158 33.7453 77.0832 33.6059C77.0517 33.5925 77.0235 33.5728 77.0002 33.5483C76.9769 33.5238 76.959 33.4949 76.9477 33.4633L76.7838 32.9691C76.7678 32.9219 76.7374 32.8809 76.6969 32.8519C76.6564 32.8229 76.6078 32.8074 76.558 32.8075ZM75.6978 32.1707C75.6914 32.1873 75.689 32.2051 75.6908 32.2228C75.6927 32.2405 75.6988 32.2575 75.7085 32.2724C75.7183 32.2873 75.7315 32.2996 75.747 32.3084C75.7625 32.3171 75.7798 32.3221 75.7976 32.3227L76.4059 32.3418C76.4237 32.3422 76.4413 32.3384 76.4572 32.3307C76.4732 32.3229 76.4871 32.3115 76.4978 32.2973C76.5085 32.2832 76.5156 32.2667 76.5187 32.2492C76.5217 32.2317 76.5205 32.2137 76.5152 32.1968L76.2396 31.2891C76.2329 31.2667 76.2193 31.247 76.2008 31.2328C76.1823 31.2185 76.1598 31.2104 76.1364 31.2096C76.1131 31.2088 76.0901 31.2154 76.0706 31.2284C76.0512 31.2414 76.0363 31.2601 76.0281 31.2819L75.6978 32.1707Z" fill="white"/>
<path d="M81.4637 30.4368L81.1643 30.4373C81.1 30.4374 81.0479 30.4896 81.0481 30.5539L81.0532 33.5242C81.0534 33.5885 81.1056 33.6406 81.1699 33.6405L81.4693 33.6399C81.5336 33.6398 81.5856 33.5876 81.5855 33.5233L81.5803 30.553C81.5802 30.4887 81.528 30.4367 81.4637 30.4368Z" fill="white"/>
<path d="M84.982 32.351C84.9831 32.5185 84.9513 32.6847 84.8882 32.8399C84.8252 32.9952 84.7322 33.1365 84.6145 33.2558C84.4969 33.3752 84.3569 33.4701 84.2025 33.5353C84.0481 33.6005 83.8824 33.6347 83.7149 33.6359L83.4867 33.6375C83.3192 33.6386 83.153 33.6068 82.9978 33.5438C82.8425 33.4807 82.7012 33.3877 82.5818 33.27C82.4625 33.1524 82.3676 33.0124 82.3023 32.858C82.2371 32.7036 82.203 32.5379 82.2018 32.3704L82.1973 31.7241C82.1961 31.5565 82.228 31.3903 82.291 31.2351C82.3541 31.0798 82.4471 30.9385 82.5647 30.8192C82.6824 30.6998 82.8224 30.6049 82.9768 30.5397C83.1311 30.4745 83.2968 30.4403 83.4644 30.4391L83.6925 30.4375C83.8601 30.4364 84.0262 30.4682 84.1815 30.5313C84.3368 30.5943 84.4781 30.6873 84.5974 30.805C84.7167 30.9226 84.8117 31.0626 84.8769 31.217C84.9421 31.3714 84.9763 31.5371 84.9774 31.7046L84.982 32.351ZM83.6145 33.1995C83.7387 33.1986 83.8614 33.1674 83.9758 33.1076C84.0901 33.0478 84.1937 32.9606 84.2808 32.851C84.3678 32.7414 84.4366 32.6115 84.4831 32.4687C84.5297 32.326 84.5531 32.1732 84.552 32.019C84.5509 31.8649 84.5254 31.7124 84.4769 31.5703C84.4283 31.4282 84.3578 31.2993 84.2692 31.1909C84.1806 31.0825 84.0758 30.9968 83.9606 30.9386C83.8455 30.8804 83.7223 30.8509 83.5981 30.8518C83.4739 30.8527 83.3511 30.8839 83.2368 30.9437C83.1224 31.0035 83.0188 31.0907 82.9317 31.2003C82.8447 31.3099 82.7759 31.4398 82.7294 31.5825C82.6829 31.7253 82.6595 31.8781 82.6605 32.0322C82.6616 32.1864 82.6871 32.3388 82.7357 32.4809C82.7842 32.623 82.8548 32.7519 82.9433 32.8603C83.0319 32.9687 83.1368 33.0544 83.2519 33.1126C83.3671 33.1708 83.4903 33.2003 83.6145 33.1995Z" fill="white"/>
<path d="M86.1602 31.9241L86.1626 33.3973C86.1626 33.4591 86.1388 33.5185 86.0962 33.5629C86.0537 33.6072 85.9956 33.6331 85.9345 33.635L85.8751 33.6373C85.8431 33.6386 85.8111 33.6334 85.7812 33.622C85.7513 33.6107 85.7239 33.5934 85.7009 33.5712C85.6778 33.549 85.6594 33.5224 85.6469 33.4929C85.6344 33.4634 85.6279 33.4317 85.6279 33.3997V30.6694C85.6279 30.6064 85.653 30.5459 85.6975 30.5014C85.7421 30.4568 85.8025 30.4318 85.8656 30.4318H85.9844C86.0225 30.4319 86.0601 30.4412 86.094 30.459C86.1279 30.4768 86.1572 30.5025 86.1792 30.534L87.2747 32.1284C87.563 32.5498 87.7071 32.5054 87.7071 31.9953V30.6741C87.7071 30.6123 87.7309 30.553 87.7735 30.5086C87.8161 30.4642 87.8741 30.4384 87.9353 30.4365L88.0422 30.4318C88.0677 30.4308 88.0932 30.435 88.1171 30.4441C88.141 30.4533 88.1628 30.4671 88.1812 30.4849C88.1997 30.5026 88.2143 30.5239 88.2243 30.5474C88.2343 30.571 88.2394 30.5963 88.2394 30.6219C88.241 31.5106 88.2458 32.3993 88.2537 33.288C88.2584 33.8963 87.7452 33.6492 87.5622 33.3664C87.2232 32.8421 86.8707 32.3241 86.5048 31.8124C86.2751 31.4908 86.1602 31.528 86.1602 31.9241Z" fill="white"/>
<path d="M91.485 30.4916C93.0937 30.917 93.0676 33.2623 91.4565 33.5903C91.0795 33.6663 90.6905 33.6782 90.2897 33.6259C90.2328 33.6189 90.1803 33.5912 90.1422 33.5479C90.1041 33.5045 90.0831 33.4486 90.083 33.3907V30.6794C90.0829 30.6238 90.1029 30.5699 90.1395 30.5273C90.176 30.4846 90.2267 30.456 90.2826 30.4465C90.7024 30.3752 91.1032 30.3903 91.485 30.4916ZM91.4612 33.1198C92.6945 32.7419 92.2977 30.6675 90.7579 30.8409C90.6998 30.8474 90.6462 30.8751 90.6072 30.919C90.5682 30.9628 90.5465 31.0196 90.5464 31.0786L90.563 32.9439C90.5638 33.0018 90.5858 33.0575 90.6247 33.1004C90.6636 33.1432 90.7169 33.1704 90.7745 33.1768C91.0169 33.2037 91.2458 33.1847 91.4612 33.1198Z" fill="white"/>
<path d="M93.8473 31.798H95.1044C95.1258 31.798 95.1463 31.8065 95.1615 31.8216C95.1766 31.8368 95.1851 31.8573 95.1851 31.8788V32.1924C95.1851 32.2139 95.1766 32.2344 95.1615 32.2496C95.1463 32.2647 95.1258 32.2732 95.1044 32.2732H93.8568C93.8362 32.2732 93.8163 32.281 93.8013 32.2952C93.7863 32.3093 93.7772 32.3287 93.776 32.3493L93.7404 33.1382C93.7397 33.1492 93.7413 33.1602 93.7451 33.1706C93.7489 33.1809 93.7547 33.1904 93.7623 33.1984C93.7699 33.2064 93.779 33.2128 93.7891 33.2172C93.7992 33.2215 93.8102 33.2237 93.8212 33.2237H95.2327C95.2541 33.2237 95.2746 33.2322 95.2898 33.2474C95.3049 33.2625 95.3135 33.2831 95.3135 33.3045L95.3111 33.5659C95.3111 33.5873 95.3026 33.6079 95.2874 33.623C95.2723 33.6382 95.2517 33.6467 95.2303 33.6467L93.3103 33.6348C93.2997 33.6348 93.2892 33.6327 93.2794 33.6287C93.2696 33.6246 93.2607 33.6187 93.2532 33.6111C93.2457 33.6036 93.2397 33.5947 93.2356 33.5849C93.2316 33.5751 93.2295 33.5646 93.2295 33.554L93.2319 30.5124C93.2319 30.5018 93.234 30.4913 93.238 30.4815C93.2421 30.4717 93.248 30.4628 93.2555 30.4553C93.263 30.4478 93.2719 30.4419 93.2817 30.4378C93.2916 30.4337 93.3021 30.4316 93.3127 30.4316H95.1756C95.1867 30.4316 95.1976 30.4339 95.2077 30.4382C95.2178 30.4426 95.227 30.4489 95.2345 30.457C95.2421 30.465 95.2479 30.4744 95.2517 30.4848C95.2555 30.4952 95.2571 30.5062 95.2564 30.5172L95.2398 30.7714C95.2386 30.792 95.2295 30.8114 95.2145 30.8255C95.1995 30.8397 95.1796 30.8475 95.159 30.8475H93.8473C93.8259 30.8475 93.8053 30.856 93.7902 30.8711C93.775 30.8863 93.7665 30.9068 93.7665 30.9283V31.7172C93.7665 31.7386 93.775 31.7592 93.7902 31.7743C93.8053 31.7895 93.8259 31.798 93.8473 31.798Z" fill="white"/>
<path d="M97.5902 32.9613C97.4856 33.2346 97.4476 33.7122 97.0508 33.6552C97.0229 33.6512 96.9963 33.641 96.9728 33.6255C96.9493 33.6099 96.9296 33.5894 96.9151 33.5653C96.9005 33.5412 96.8915 33.5141 96.8887 33.4861C96.8858 33.4581 96.8893 33.4298 96.8987 33.4033L97.8825 30.6065C97.8991 30.5605 97.9294 30.5209 97.9694 30.4928C98.0093 30.4647 98.057 30.4497 98.1058 30.4496L98.3933 30.4473C98.4426 30.4471 98.4906 30.4624 98.5306 30.4909C98.5707 30.5195 98.6008 30.5599 98.6167 30.6065L99.61 33.3867C99.6264 33.4318 99.6247 33.4815 99.6053 33.5257C99.5858 33.5699 99.5501 33.6052 99.5054 33.6243C99.1015 33.8025 99.0017 33.1728 98.8947 32.9423C98.8754 32.9017 98.8448 32.8675 98.8065 32.8435C98.7683 32.8195 98.7239 32.8068 98.6785 32.8069H97.8112C97.763 32.8069 97.7159 32.8217 97.6764 32.8493C97.6368 32.8769 97.6068 32.916 97.5902 32.9613ZM97.8278 32.2199C97.8237 32.2316 97.8224 32.244 97.824 32.2562C97.8255 32.2684 97.83 32.2801 97.8369 32.2903C97.8439 32.3005 97.8531 32.3089 97.8639 32.3148C97.8747 32.3208 97.8868 32.3241 97.8991 32.3245L98.5811 32.3364C98.5933 32.3365 98.6053 32.3337 98.6162 32.3284C98.6271 32.323 98.6367 32.3152 98.6441 32.3055C98.6514 32.2958 98.6564 32.2845 98.6587 32.2726C98.661 32.2606 98.6604 32.2483 98.6571 32.2366L98.3339 31.2077C98.3287 31.1925 98.3189 31.1792 98.3058 31.1698C98.2928 31.1604 98.2772 31.1552 98.2611 31.1549C98.245 31.1547 98.2293 31.1594 98.2159 31.1684C98.2026 31.1774 98.1924 31.1903 98.1866 31.2053L97.8278 32.2199Z" fill="white"/>
<path d="M101.382 30.4547C102.502 30.6472 102.739 31.6737 101.886 32.4175C101.846 32.4528 101.796 32.4738 101.744 32.4769L100.883 32.522C100.823 32.5251 100.765 32.5514 100.723 32.5957C100.681 32.6399 100.658 32.6986 100.658 32.7596V33.406C100.657 33.4372 100.651 33.468 100.639 33.4967C100.626 33.5254 100.609 33.5515 100.586 33.5733C100.564 33.5952 100.538 33.6124 100.509 33.624C100.48 33.6357 100.449 33.6415 100.418 33.6412H100.311C100.261 33.6412 100.213 33.6212 100.178 33.5855C100.143 33.5499 100.123 33.5015 100.123 33.4511V30.6804C100.123 30.6235 100.144 30.5685 100.181 30.5253C100.219 30.4821 100.271 30.4537 100.327 30.4452C100.69 30.3929 101.042 30.3961 101.382 30.4547ZM101.675 31.9588C102.224 31.2317 101.558 30.7303 100.855 30.8491C100.8 30.8586 100.75 30.8874 100.714 30.9304C100.678 30.9735 100.658 31.028 100.658 31.0844V31.8614C100.658 31.8943 100.664 31.9268 100.677 31.957C100.691 31.9871 100.71 32.0142 100.734 32.0365C100.758 32.0589 100.786 32.076 100.818 32.0867C100.849 32.0975 100.882 32.1017 100.914 32.099L101.504 32.0539C101.537 32.051 101.57 32.041 101.599 32.0246C101.629 32.0082 101.655 31.9858 101.675 31.9588Z" fill="white"/>
<path d="M103.521 33.5095C103.144 33.3621 102.952 33.1087 102.944 32.7491L102.903 30.6746C102.903 30.643 102.908 30.6116 102.92 30.5822C102.932 30.5528 102.949 30.5261 102.971 30.5035C102.993 30.4809 103.02 30.463 103.049 30.4508C103.078 30.4385 103.109 30.4322 103.141 30.4322H103.212C103.275 30.4322 103.336 30.4573 103.38 30.5018C103.425 30.5464 103.45 30.6068 103.45 30.6699L103.452 32.8013C103.452 32.8437 103.464 32.8855 103.486 32.9223C103.508 32.9591 103.54 32.9896 103.578 33.0105C105.943 34.2722 104.41 30.0568 105.318 30.4275C105.363 30.4457 105.401 30.4768 105.428 30.5166C105.454 30.5565 105.468 30.6033 105.467 30.6508C105.444 31.9031 105.843 34.4172 103.521 33.5095Z" fill="white"/>
<path d="M108.017 32.5611L108.409 33.3571C108.423 33.3865 108.43 33.4189 108.428 33.4514C108.426 33.4838 108.416 33.5153 108.398 33.5428C108.381 33.5704 108.357 33.593 108.329 33.6088C108.3 33.6245 108.268 33.6328 108.236 33.6328L108.112 33.6304C108.069 33.6303 108.027 33.6185 107.99 33.5963C107.953 33.5742 107.923 33.5424 107.903 33.5045L107.416 32.5777C107.396 32.5392 107.366 32.5071 107.329 32.4848C107.292 32.4626 107.25 32.4511 107.207 32.4518H106.895C106.832 32.4518 106.772 32.4768 106.727 32.5214C106.683 32.566 106.658 32.6264 106.658 32.6894V33.4023C106.658 33.4653 106.633 33.5258 106.588 33.5703C106.544 33.6149 106.483 33.6399 106.42 33.6399H106.335C106.294 33.6399 106.256 33.6239 106.227 33.5954C106.199 33.5669 106.183 33.5282 106.183 33.4878V30.6577C106.183 30.6257 106.189 30.594 106.202 30.5646C106.214 30.5351 106.232 30.5084 106.256 30.4863C106.279 30.4641 106.306 30.4468 106.336 30.4354C106.366 30.424 106.398 30.4188 106.43 30.4201L107.853 30.4819C107.913 30.4849 107.969 30.5104 108.01 30.5532C108.583 31.1346 108.599 31.7152 108.057 32.295C108.024 32.3297 108.002 32.3739 107.995 32.4216C107.988 32.4693 107.995 32.518 108.017 32.5611ZM107.832 31.7603C108.195 31.0332 107.461 30.8074 106.907 30.8431C106.857 30.8466 106.81 30.8654 106.771 30.8969C106.732 30.9284 106.704 30.971 106.691 31.0189C106.449 31.9488 106.787 32.234 107.706 31.8744C107.761 31.8528 107.806 31.8122 107.832 31.7603Z" fill="white"/>
<path d="M109.36 30.4336H109.122C109.04 30.4336 108.973 30.5006 108.973 30.5833V33.4918C108.973 33.5745 109.04 33.6415 109.122 33.6415H109.36C109.443 33.6415 109.51 33.5745 109.51 33.4918V30.5833C109.51 30.5006 109.443 30.4336 109.36 30.4336Z" fill="white"/>
<path d="M112.589 32.2632L112.085 33.4893C112.068 33.5327 112.039 33.5699 112 33.5963C111.335 34.043 111.061 31.6311 110.741 31.6834C110.729 31.6846 110.718 31.6901 110.71 31.6989C110.702 31.7077 110.698 31.7191 110.698 31.7309V33.3967C110.698 33.4585 110.674 33.5178 110.631 33.5622C110.588 33.6066 110.529 33.6324 110.467 33.6343L110.36 33.639C110.335 33.64 110.309 33.6358 110.285 33.6267C110.261 33.6175 110.24 33.6037 110.221 33.5859C110.203 33.5682 110.188 33.5469 110.178 33.5234C110.168 33.4998 110.163 33.4745 110.163 33.4489V30.6616C110.163 30.6096 110.18 30.5591 110.212 30.5179C110.243 30.4767 110.287 30.447 110.337 30.4335C110.645 30.3479 110.817 30.4501 110.943 30.7448C111.186 31.3182 111.419 31.8957 111.641 32.477C111.757 32.7764 111.875 32.7772 111.995 32.4794L112.763 30.5856C112.78 30.5424 112.81 30.5055 112.848 30.4793C112.886 30.4531 112.931 30.4388 112.977 30.4382L113.186 30.4311C113.217 30.4301 113.249 30.4356 113.279 30.4471C113.308 30.4586 113.335 30.476 113.358 30.4981C113.381 30.5203 113.399 30.5468 113.412 30.5761C113.424 30.6054 113.43 30.6369 113.43 30.6687V33.4418C113.43 33.4849 113.419 33.5271 113.397 33.5639C113.375 33.6007 113.344 33.6308 113.307 33.6509C113.062 33.7816 112.953 33.5273 112.955 33.3206C112.96 32.9911 112.96 32.6616 112.955 32.3321C112.947 31.7095 112.825 31.6865 112.589 32.2632Z" fill="white"/>
<path d="M115.766 32.807H114.885C114.837 32.8069 114.79 32.8212 114.751 32.8479C114.712 32.8746 114.681 32.9125 114.664 32.9567L114.438 33.5294C114.418 33.5789 114.383 33.6205 114.338 33.6482C113.955 33.8715 113.925 33.5151 114.013 33.268C114.328 32.3808 114.641 31.4937 114.953 30.6066C114.97 30.5589 115.002 30.5178 115.044 30.4892C115.085 30.4605 115.135 30.4459 115.186 30.4474L115.479 30.4592C115.526 30.4607 115.572 30.4764 115.611 30.5044C115.649 30.5324 115.679 30.5713 115.695 30.6161C116.01 31.5032 116.322 32.3903 116.631 33.2775C116.758 33.6402 116.645 33.7495 116.291 33.6054C116.26 33.5926 116.232 33.5731 116.208 33.5481C116.185 33.5231 116.167 33.4932 116.156 33.4604L115.992 32.9686C115.976 32.9214 115.946 32.8804 115.905 32.8514C115.865 32.8224 115.816 32.8068 115.766 32.807ZM114.894 32.2034C114.889 32.2169 114.888 32.2314 114.889 32.2457C114.891 32.2599 114.896 32.2736 114.904 32.2854C114.913 32.2973 114.923 32.307 114.936 32.3138C114.949 32.3206 114.963 32.3243 114.977 32.3246L115.652 32.3365C115.667 32.337 115.682 32.3339 115.695 32.3274C115.708 32.3209 115.72 32.3112 115.728 32.2993C115.737 32.2873 115.743 32.2734 115.745 32.2587C115.747 32.2441 115.745 32.2292 115.74 32.2153L115.417 31.2909C115.411 31.2728 115.4 31.257 115.385 31.2455C115.37 31.2341 115.352 31.2276 115.333 31.2271C115.314 31.2266 115.296 31.232 115.28 31.2426C115.264 31.2532 115.252 31.2684 115.246 31.2862L114.894 32.2034Z" fill="white"/>
</svg>
