<svg version="1.2" xmlns="http://www.w3.org/2000/svg" viewBox="0 0 517 163" width="517" height="163"><style>.a{fill:none;stroke:#809feb;stroke-width:2}.b{fill:#fff}.c{fill:#003fd6}</style><path fill-rule="evenodd" class="a" d="m163 82.5c0-10.4-2.1-20.6-6-30.1-4-9.5-9.7-18.2-17-25.5-7.3-7.3-16-13-25.5-17-9.5-3.9-19.8-6-30.1-6-10.3 0-20.5 2.1-30 6-9.5 4-18.2 9.7-25.5 17-7.3 7.3-13.1 16-17 25.5-4 9.5-6 19.7-6 30.1 0 10.3 2 20.5 6 30 3.9 9.5 9.7 18.2 17 25.5 7.3 7.3 16 13.1 25.5 17 9.5 4 19.7 6 30 6 10.3 0 20.6-2 30.1-6 9.5-3.9 18.2-9.7 25.5-17 7.3-7.3 13-16 17-25.5 3.9-9.5 6-19.7 6-30z"/><path fill-rule="evenodd" class="a" d="m326.7 54.3c3.2 12.1 20 13.8 29.7 16.6 1.8 0.6 5.2 2.3 5.8 3.7 4.8 11-19.8 14.3-22 0.5q0-0.2-0.1-0.3-0.1-0.2-0.2-0.3-0.2-0.1-0.3-0.2-0.2-0.1-0.4 0h-13.9q-0.2 0-0.3 0-0.2 0.1-0.4 0.2-0.1 0.2-0.2 0.4-0.1 0.2-0.1 0.4c0.2 12.6 8.1 19.6 20.1 21.8 12.1 2.2 29.8 0.4 34.4-13.8q3.3-10.4-4.1-18.7c-6.6-7.5-18.1-7.9-26.2-10.6-5.3-1.8-7.9-8-2.3-11.1 5.3-2.8 14.9-1.9 16.7 5.6q0 0.1 0.1 0.3 0.1 0.1 0.2 0.2 0.2 0.1 0.3 0.2 0.2 0 0.4 0.1h13.8q0.2 0 0.4-0.1 0.2-0.1 0.4-0.3 0.1-0.1 0.2-0.3 0-0.2 0-0.4-0.6-9-6.7-14.2c-14.7-12.6-52-5.6-45.3 20.3z"/><path fill-rule="evenodd" class="a" d="m245.7 43.5c-7.3-13.9-22.3-14.6-37-14.8q-8.1 0-16.2 0.1-0.2 0-0.4 0.1-0.2 0-0.3 0.2-0.1 0.1-0.2 0.3-0.1 0.2-0.1 0.4v66.2q0 0.2 0.1 0.4 0.1 0.2 0.2 0.3 0.1 0.1 0.3 0.2 0.2 0.1 0.4 0.1 8.9 0 17.8 0 12.7 0 18.1-1.6c22.1-6.2 27.2-33.1 17.3-51.9z"/><path fill-rule="evenodd" class="a" d="m298.4 82.8q0.1 0 0.2 0 0 0 0.1 0 0 0.1 0 0.1 0.1 0 0.1 0.1l4.3 13.8q0 0 0 0.1 0 0 0.1 0 0 0.1 0.1 0.1 0 0 0.1 0h17.1q0.1 0 0.2 0 0.1-0.1 0.1-0.2 0.1 0 0.1-0.1 0-0.1 0-0.2l-22.8-67.5q0-0.1-0.1-0.1 0-0.1-0.1-0.1 0 0-0.1 0 0-0.1-0.1 0h-21.5q-0.1 0-0.1 0-0.1 0-0.1 0-0.1 0.1-0.1 0.1 0 0-0.1 0.1l-22.7 67.5q0 0.1 0 0.2 0 0.1 0.1 0.2 0 0 0.1 0.1 0.1 0 0.1 0h17.2q0 0 0.1 0 0 0 0.1-0.1 0 0 0 0 0.1-0.1 0.1-0.1l4.2-13.8q0.1-0.1 0.1-0.1 0 0 0.1-0.1 0 0 0.1 0 0-0.1 0.1 0z"/><path fill-rule="evenodd" class="a" d="m405.2 83.5q-0.1 0-0.2 0-0.1-0.1-0.1-0.1-0.1-0.1-0.1-0.2 0 0 0-0.1v-12.9q0-0.1 0-0.2 0-0.1 0.1-0.1 0-0.1 0.1-0.1 0.1 0 0.2 0h27.6q0.1-0.1 0.2-0.1 0.1 0 0.1-0.1 0.1 0 0.1-0.1 0-0.1 0-0.2l0.1-12.9q-0.1-0.1-0.1-0.1 0-0.1-0.1-0.2 0 0-0.1-0.1-0.1 0-0.2 0h-27.6q-0.1 0-0.2 0-0.1-0.1-0.1-0.1-0.1-0.1-0.1-0.2 0 0 0-0.1v-12.9q0-0.1 0-0.2 0-0.1 0.1-0.1 0-0.1 0.1-0.1 0.1 0 0.2 0h30.1q0.1-0.1 0.2-0.1 0.1 0 0.1-0.1 0.1 0 0.1-0.1 0-0.1 0-0.2l0.1-12.6q-0.1-0.1-0.1-0.2 0-0.1-0.1-0.1 0-0.1-0.1-0.1-0.1 0-0.2 0h-46.9q-0.1 0-0.1 0-0.1 0-0.2 0.1 0 0-0.1 0.1 0 0.1 0 0.2v67.4q0 0.1 0 0.1 0.1 0.1 0.1 0.2 0.1 0 0.2 0.1 0 0 0.1 0h46.9q0.1 0 0.2 0 0.1-0.1 0.1-0.1 0.1-0.1 0.1-0.2 0 0 0-0.1v-12.7q0-0.1 0-0.1 0-0.1-0.1-0.2 0 0-0.1-0.1-0.1 0-0.2 0z"/><path fill-rule="evenodd" class="a" d="m488.5 82.8q0 0 0.1 0 0 0 0.1 0 0 0 0 0.1 0.1 0 0.1 0.1l4.3 13.8q0.1 0 0.1 0.1 0 0 0.1 0 0 0.1 0.1 0.1 0 0 0.1 0h17.1q0.1 0 0.1 0 0.1-0.1 0.1-0.1 0.1-0.1 0.1-0.2 0-0.1 0-0.1l-22.8-67.6q0-0.1 0-0.1 0-0.1-0.1-0.1 0 0-0.1 0 0-0.1-0.1-0.1h-21.6q-0.1 0-0.1 0.1-0.1 0-0.1 0 0 0-0.1 0.1 0 0 0 0.1l-22.7 67.6q-0.1 0 0 0.1 0 0.1 0 0.2 0.1 0 0.1 0.1 0.1 0 0.2 0h17.1q0 0 0.1 0 0 0 0.1-0.1 0 0 0 0 0.1-0.1 0.1-0.1l4.3-13.8q0.1-0.1 0.1-0.1 0-0.1 0.1-0.1 0 0 0 0 0.1 0 0.1 0z"/><path fill-rule="evenodd" class="a" d="m200.4 120.6c3.4-7.2-2-12-9.1-10.8q-0.1 0-0.3 0.1-0.2 0.1-0.3 0.3-0.1 0.1-0.1 0.3-0.1 0.1-0.1 0.3v11.5q0 0.2 0.1 0.4 0.1 0.1 0.2 0.3 0.1 0.1 0.3 0.2 0.2 0.1 0.4 0.1l4.9-0.1q2.7-0.1 4-2.6z"/><path fill-rule="evenodd" class="a" d="m207 117.5h4.3q0.1 0 0.3-0.1 0.1 0 0.2-0.1 0.1-0.1 0.1-0.2 0.1-0.1 0.1-0.3l-0.1-0.3q0-0.2 0-0.4-0.1-0.2-0.2-0.3-0.2-0.2-0.4-0.2-0.1-0.1-0.3-0.1h-4q-0.2 0-0.4-0.1-0.2-0.1-0.3-0.2-0.1-0.1-0.2-0.3-0.1-0.2-0.1-0.4v-1.7q0-0.2 0.1-0.4 0-0.2 0.2-0.3 0.1-0.2 0.3-0.2 0.2-0.1 0.4-0.1 2-0.1 4 0c0.9 0 1.6-0.4 1.3-1.5q-0.1-0.1-0.2-0.2 0-0.1-0.1-0.2-0.1-0.1-0.3-0.1-0.1 0-0.2 0h-6.8q-0.1 0-0.3 0-0.2 0.1-0.4 0.2-0.1 0.2-0.2 0.4 0 0.2 0 0.4v11.4q0 0.2 0 0.4 0.1 0.2 0.2 0.3 0.2 0.2 0.4 0.2 0.1 0.1 0.3 0.1l6.8 0.1q0.1 0 0.2-0.1 0.1 0 0.2 0 0.1-0.1 0.2-0.2 0.1 0 0.2-0.1c1.5-2.1-4.7-1.4-5.4-1.5q-0.2 0-0.3-0.1-0.2 0-0.3-0.2-0.2-0.1-0.2-0.3-0.1-0.2-0.1-0.4v-1.9q0-0.2 0.1-0.4 0.1-0.2 0.2-0.3 0.1-0.1 0.3-0.2 0.2-0.1 0.4-0.1z"/><path fill-rule="evenodd" class="a" d="m218.1 118.2l1.3 0.1q0.1 0 0.2 0 0.1 0 0.3 0.1 0.1 0.1 0.2 0.2 0 0.1 0.1 0.2l2.1 4.1q0.1 0.1 0.2 0.1 0 0.1 0.2 0.2 0.1 0 0.2 0.1 0.1 0 0.2 0l0.3-0.1q0.3 0 0.5-0.1 0.2-0.2 0.3-0.4 0.1-0.2 0.1-0.5 0-0.2-0.1-0.4l-1.6-3.1q-0.1-0.1-0.1-0.3 0-0.1 0-0.3 0-0.1 0.1-0.3 0-0.1 0.1-0.2c3.6-3.9 1.5-7.6-3.1-7.9q-1.9 0-3.7 0.2-0.2 0-0.3 0.1-0.2 0.1-0.3 0.2-0.1 0.1-0.2 0.3-0.1 0.2-0.1 0.4 0 5.7 0 11.4 0 1.2 1.1 1.1 0.2 0 0.3-0.1 0.2-0.1 0.3-0.2 0.2-0.2 0.2-0.4 0.1-0.1 0.1-0.3v-3.2q0-0.2 0.1-0.4 0.1-0.2 0.2-0.3 0.2-0.2 0.4-0.3 0.1 0 0.4 0z"/><path fill-rule="evenodd" class="a" d="m232.1 118.8c0.5 1 1.8 3.9 2.7 4.4q0.5 0.2 1.1 0.1 0.1-0.1 0.3-0.2 0.1-0.1 0.2-0.3 0.1-0.2 0.1-0.3 0-0.2-0.1-0.4l-1.9-3.3q-0.1-0.2-0.2-0.3 0-0.2 0-0.4 0.1-0.1 0.2-0.3 0-0.1 0.2-0.2c3.3-3 1.9-6.9-2.3-7.7q-2.3-0.4-4.8 0-0.2 0-0.3 0.1-0.2 0.1-0.3 0.2-0.1 0.1-0.2 0.3 0 0.2 0 0.4c0 1.5-1 12.9 1.4 12.4q0.2 0 0.3-0.1 0.2-0.1 0.3-0.3 0.1-0.1 0.1-0.3 0.1-0.1 0.1-0.3v-3q0-0.3 0.1-0.4 0.1-0.2 0.2-0.4 0.1-0.1 0.3-0.2 0.2-0.1 0.4 0h1.2q0.2 0 0.3 0 0.1 0.1 0.2 0.1 0.1 0.1 0.2 0.2 0.1 0.1 0.2 0.2z"/><path fill-rule="evenodd" class="a" d="m246.7 120.5l0.6 2.2q0 0.1 0.1 0.2 0.1 0.1 0.2 0.2 0.1 0.1 0.2 0.1 0.1 0.1 0.3 0.1l0.4-0.1q0.2 0.1 0.4-0.1 0.2-0.1 0.4-0.3 0.1-0.2 0.2-0.4 0-0.3-0.1-0.5l-4-11.3q-0.1-0.1-0.1-0.1 0-0.1-0.1-0.2 0 0-0.1-0.1 0 0-0.1-0.1c-1.7-1.2-2.6 0.1-3.1 1.6q-1.6 4.8-3.4 9.5c-0.4 1-0.7 2.9 1.4 1.9q0 0 0.1-0.1 0.1-0.1 0.2-0.1 0.1-0.1 0.1-0.2 0.1-0.1 0.1-0.2l0.5-2q0.1-0.2 0.2-0.3 0.1-0.1 0.2-0.2 0.1-0.1 0.3-0.2 0.1 0 0.3 0h3.8q0.2 0 0.3 0 0.2 0.1 0.3 0.2 0.2 0.1 0.3 0.2 0 0.1 0.1 0.3z"/><path fill-rule="evenodd" class="a" d="m263.5 114.6v7.8q0 0.2 0 0.3 0.1 0.1 0.1 0.2 0.1 0.1 0.2 0.2 0.1 0 0.2 0.1c1 0.4 1.5-0.4 1.5-1.4q0-5.5 0-11 0-0.3-0.1-0.4-0.1-0.2-0.2-0.4-0.2-0.1-0.3-0.2-0.2-0.1-0.4 0h-0.9q-0.1 0-0.3 0-0.1 0.1-0.2 0.2-0.2 0-0.3 0.1 0 0.2-0.1 0.3l-3.4 8.1q-0.7 1.8-1.5-0.1-1.4-3.7-3-7.4c-0.5-1.1-1.6-1.8-2.7-0.9q-0.1 0.1-0.1 0.1-0.1 0.1-0.2 0.2 0 0.1 0 0.2-0.1 0.1 0 0.3v11.3q-0.1 0.2 0 0.3 0.1 0.2 0.2 0.3 0.1 0.2 0.3 0.3 0.2 0.1 0.4 0.1h0.4q0.1 0 0.2 0 0.1-0.1 0.2-0.2 0.1 0 0.2-0.2 0-0.1 0.1-0.2 0-2.3-0.3-7.6 0-0.4 0.2-0.6 0.1 0 0.1 0 0.1 0 0.2 0 0.1 0 0.1 0.1 0.1 0 0.1 0.1l3.2 8q1.2 2.9 2.5-0.4l3.2-7.7q0 0 0-0.1 0.1 0 0.1-0.1 0 0 0 0 0-0.1 0 0h0.3q0 0 0 0 0 0 0 0 0 0.1 0 0.1 0 0.1 0 0.2z"/><path fill-rule="evenodd" class="a" d="m276.1 120.3c0.4 1.3 1 3.3 2.3 3q0.2 0 0.3-0.1 0.2-0.1 0.3-0.2 0.1-0.2 0.1-0.4 0-0.2-0.1-0.3l-4.1-11.9q-0.1-0.1-0.2-0.3-0.1-0.1-0.2-0.2-0.2-0.1-0.3-0.1-0.2-0.1-0.3 0h-1.1q-0.1 0-0.3 0-0.1 0.1-0.2 0.2-0.2 0.1-0.3 0.2 0 0.1-0.1 0.2l-4.3 11.9q0 0.1 0 0.3 0 0.2 0.1 0.3 0.1 0.2 0.2 0.3 0.2 0.1 0.3 0.1 0.5 0.1 0.9-0.1c0.9-0.3 1.1-1.9 1.4-2.8q0.1-0.1 0.2-0.2 0.1-0.1 0.2-0.2 0.1-0.1 0.3-0.2 0.1 0 0.3 0l3.6-0.2q0.2 0 0.3 0.1 0.2 0 0.3 0.1 0.2 0.1 0.3 0.3 0.1 0.1 0.1 0.2z"/><path fill-rule="evenodd" class="a" d="m293.8 120.3q0.3 0.8 0.8 2 0.6 1.5 1.6 1 0.2-0.1 0.4-0.2 0.1-0.1 0.2-0.3 0-0.2 0-0.4 0-0.2 0-0.3l-4.1-11.5q0-0.1-0.1-0.2 0-0.1-0.1-0.1 0-0.1-0.1-0.2 0 0-0.1 0c-1.3-0.9-2.3-0.3-2.8 1.1q-1.8 5-3.6 10c-0.4 1.1-0.9 2.9 1.2 1.9q0.1 0 0.2-0.1 0.1 0 0.2-0.1 0.1-0.1 0.1-0.2 0.1-0.1 0.1-0.2l0.7-2.1q0.1-0.1 0.2-0.2 0-0.2 0.2-0.3 0.1-0.1 0.3-0.1 0.1-0.1 0.3 0h3.5q0.1 0 0.2 0 0.2 0 0.3 0.1 0.1 0.1 0.2 0.2 0.1 0.1 0.1 0.2z"/><path fill-rule="evenodd" class="a" d="m304.9 110q-2.4-0.6-5.1-0.2-0.1 0-0.3 0.1-0.1 0.1-0.3 0.2-0.1 0.2-0.1 0.3-0.1 0.2-0.1 0.4v11.4q0 0.2 0.1 0.4 0 0.1 0.2 0.3 0.1 0.1 0.2 0.2 0.2 0.1 0.4 0.1 2.7 0.3 5.2-0.2c6.7-1.3 6.5-11.2-0.2-13z"/><path fill-rule="evenodd" class="a" d="m314.6 114.2c1 0 2.7 10.5 5.4 8.9q0.1 0 0.2-0.1 0.1 0 0.1-0.1 0.1 0 0.1-0.1 0-0.1 0.1-0.2l2.9-7.3q0-0.1 0.1-0.2 0-0.1 0.1-0.1 0-0.1 0.1-0.1 0-0.1 0 0c0.5 0.2 0.3 6.4 0.3 7.2q0 0.2 0.1 0.4 0 0.2 0.2 0.3 0.1 0.2 0.3 0.3 0.2 0 0.4 0l0.2 0.1q0.2 0 0.4-0.1 0.2-0.1 0.4-0.2 0.1-0.2 0.2-0.4 0-0.1 0-0.3v-11.5q0-0.1 0-0.3-0.1-0.2-0.2-0.4-0.2-0.1-0.4-0.2-0.2 0-0.4-0.1h-0.9q-0.2 0.1-0.3 0.1-0.2 0-0.3 0.1-0.1 0.1-0.2 0.2-0.1 0.1-0.2 0.3l-3.2 8q-0.8 1.8-1.5 0-1.6-3.7-3.1-7.4c-0.5-1.1-1.1-1.6-2.3-1.3q-0.1 0.1-0.3 0.2-0.1 0.1-0.2 0.2-0.1 0.1-0.1 0.3-0.1 0.1-0.1 0.3v11.9q0 0.1 0 0.2 0.1 0.2 0.2 0.2 0 0.1 0.2 0.2 0.1 0 0.2 0l0.3 0.1q0.2 0 0.4-0.1 0.2 0 0.4-0.2 0.1-0.1 0.2-0.3 0.1-0.2 0.1-0.4v-7.6q0-0.1 0-0.2 0-0.1 0-0.1 0-0.1 0-0.1 0-0.1 0.1-0.1z"/><path fill-rule="evenodd" class="a" d="m331.2 110.3q0-0.1 0-0.2 0-0.1-0.1-0.2-0.1-0.1-0.2-0.1-0.1-0.1-0.2-0.1h-1.1q-0.1 0-0.3 0.1-0.1 0-0.1 0.1-0.1 0.1-0.2 0.2 0 0.1 0 0.2v12.4q0 0.1 0.1 0.2 0 0.1 0.1 0.2 0.1 0.1 0.2 0.1 0.1 0 0.2 0h1.1q0.1 0 0.2 0 0.1-0.1 0.2-0.1 0.1-0.1 0.1-0.2 0.1-0.1 0.1-0.2z"/><path fill-rule="evenodd" class="a" d="m337.6 115.8q2.2 2.7 4.4 6.4 1.2 1.8 2.6 0.8 0.1-0.1 0.2-0.2 0-0.1 0.1-0.2 0-0.1 0.1-0.2 0-0.1 0-0.2v-11.4q0-0.2-0.1-0.4-0.1-0.2-0.2-0.4-0.1-0.1-0.3-0.2-0.2 0-0.4 0h-0.3q-0.2 0-0.3 0-0.2 0.1-0.4 0.2-0.1 0.2-0.2 0.4 0 0.2-0.1 0.4v6.1q0.1 2.5-1.4 0.5-2.6-3.5-5-7.2-0.6-0.8-1.6-0.5-0.2 0.1-0.3 0.2-0.1 0.1-0.2 0.2-0.1 0.1-0.1 0.3-0.1 0.1-0.1 0.3 0 5.5 0 11.1 0 2 1.6 1.4 0.2 0 0.3-0.1 0.1-0.1 0.2-0.3 0.1-0.1 0.2-0.2 0-0.2 0-0.3l-0.1-6q-0.1-2.3 1.4-0.5z"/><path fill-rule="evenodd" class="a" d="m350 110.5q0-0.2-0.1-0.3 0-0.1-0.1-0.3-0.1-0.1-0.3-0.1-0.1-0.1-0.3-0.1h-0.7q-0.1 0-0.3 0.1-0.1 0-0.2 0.1-0.1 0.2-0.2 0.3 0 0.1 0 0.3v12q0 0.1 0 0.3 0.1 0.1 0.2 0.2 0.1 0.1 0.2 0.2 0.2 0 0.3 0h0.8q0.1 0 0.2 0 0.2-0.1 0.3-0.2 0.1-0.1 0.1-0.2 0.1-0.2 0.1-0.3z"/><path fill-rule="evenodd" class="a" d="m353.3 115.5c1.3 1.5 4.7 2.1 6.8 3.2q0.3 0.1 0.4 0.3 0.2 0.2 0.2 0.5 0 0.2-0.1 0.5-0.1 0.2-0.3 0.4-3.7 2.7-6.2-0.5-1-1.3-1.7-0.1-0.1 0.1-0.1 0.3 0 0.1 0 0.2 0 0.1 0 0.3 0 0.1 0.1 0.2c3.1 5.3 12.9 2.4 8.9-3.7q-0.1-0.1-0.1-0.2-0.1 0-0.1-0.1-0.1 0-0.2-0.1-0.1 0-0.1 0l-5.2-1.9q-0.1 0-0.2-0.1-0.1 0-0.1-0.1-0.1 0-0.2-0.1 0 0-0.1-0.1c-1.5-2.6 3.3-4.2 5.1-1.3q0.1 0.2 0.3 0.3 0.1 0.1 0.3 0.2 0.2 0 0.4 0 0.2 0 0.4-0.1l0.3-0.3q0.2 0 0.2-0.1 0.1-0.1 0.1-0.3 0.1-0.1 0-0.2 0-0.2-0.1-0.3c-4-5.5-12.1-1-8.7 3.2z"/><path fill-rule="evenodd" class="a" d="m368.3 112.8l-0.1 9.5q0.1 0.1 0.1 0.3 0.1 0.2 0.2 0.3 0.1 0.1 0.2 0.2 0.1 0.1 0.3 0.2c2 0.4 1.2-7.1 1.3-10.6q0-0.2 0.1-0.3 0.1-0.2 0.2-0.3 0.1-0.2 0.3-0.3 0.2 0 0.4 0l2.6-0.2q0.1 0 0.2 0 0.2-0.1 0.2-0.2 0.1-0.1 0.2-0.2 0-0.1 0-0.2v-0.3q0-0.2-0.1-0.4-0.1-0.2-0.2-0.3-0.2-0.1-0.3-0.2-0.2-0.1-0.4 0h-8.9q-0.1 0-0.2 0-0.2 0.1-0.2 0.2-0.1 0.1-0.2 0.2 0 0.2 0 0.3l0.1 0.4q0 0.2 0.1 0.3 0.1 0.2 0.2 0.3 0.1 0.1 0.3 0.2 0.2 0 0.4 0.1h2.1q0.2 0 0.4 0 0.2 0.1 0.4 0.2 0.1 0.2 0.2 0.4 0 0.2 0 0.4z"/><path fill-rule="evenodd" class="a" d="m379.8 118.3h1.4q0.1-0.1 0.2 0 0.2 0 0.3 0.1 0.1 0.1 0.2 0.2 0.1 0.1 0.2 0.2 0.9 1.9 1.8 3.8 0.6 1.1 1.6 0.8 0.2-0.1 0.4-0.2 0.1-0.2 0.2-0.4 0.1-0.2 0.1-0.4 0-0.3-0.1-0.5l-1.8-3.1q-0.1-0.1-0.1-0.3-0.1-0.2 0-0.3 0-0.2 0.1-0.3 0-0.2 0.2-0.3c3.5-3.5 1.5-7.6-3-7.8q-1.9-0.1-3.8 0.1-0.2 0-0.4 0.1-0.2 0.1-0.3 0.2-0.1 0.1-0.2 0.3 0 0.2 0 0.4c0 0.4-0.9 15.3 1.7 12.1q0.1-0.1 0.1-0.2 0.1 0 0.1-0.1 0-0.1 0-0.2 0.1-0.1 0-0.2v-3q0.1-0.2 0.1-0.4 0.1-0.2 0.2-0.4 0.2-0.1 0.4-0.2 0.2 0 0.3 0z"/><path fill-rule="evenodd" class="a" d="m389.2 123.3q0.1 0 0.2-0.1 0.2 0 0.3-0.1 0.1-0.1 0.2-0.2 0.1-0.1 0.1-0.2l0.9-2.3q0.1-0.2 0.2-0.3 0.1-0.1 0.2-0.2 0.1-0.1 0.3-0.1 0.1-0.1 0.3 0h3.6q0.2 0 0.3 0 0.2 0 0.3 0.1 0.1 0.1 0.2 0.2 0.1 0.1 0.1 0.3l0.9 2.2q0 0.1 0.1 0.2 0.1 0.1 0.1 0.2 0.1 0.1 0.2 0.1 0.1 0.1 0.2 0.1 2.2 0.7 1.3-1.6-2.1-5.6-4.1-11.1 0-0.1-0.1-0.3-0.1-0.1-0.2-0.2-0.1 0-0.2-0.1-0.2 0-0.3-0.1h-1.1q-0.2-0.1-0.3 0-0.2 0-0.3 0.1-0.2 0.1-0.3 0.2-0.1 0.2-0.1 0.3-2.1 5.9-4.2 11.7c-0.4 1.1 0.2 1.2 1.2 1.2z"/><path fill-rule="evenodd" class="a" d="m403.3 112.6q0.4 4.5 0.1 8.9-0.1 1.7 1 1.8 0.2 0 0.4 0 0.2-0.1 0.4-0.2 0.1-0.2 0.2-0.4 0.1-0.2 0.1-0.4v-9.5q0-0.2 0.1-0.4 0.1-0.2 0.2-0.4 0.1-0.1 0.3-0.2 0.2 0 0.4 0h2.3q0.2-0.1 0.4-0.1 0.1-0.1 0.3-0.2 0.1-0.2 0.2-0.4 0.1-0.2 0.1-0.4v-0.3q0-0.2-0.1-0.3 0-0.1-0.1-0.2-0.1-0.1-0.2-0.1-0.2 0-0.3 0h-8.8q-0.2-0.1-0.3 0-0.2 0.1-0.3 0.2-0.2 0.1-0.3 0.3 0 0.1-0.1 0.3v0.4q-0.1 0.1 0 0.3 0 0.1 0.1 0.2 0.1 0.1 0.2 0.2 0.1 0 0.3 0.1h2.4q0.2 0 0.3 0 0.2 0.1 0.4 0.2 0.1 0.1 0.2 0.3 0.1 0.2 0.1 0.3z"/><path fill-rule="evenodd" class="a" d="m414 110.6q0-0.1-0.1-0.3-0.1-0.2-0.2-0.3-0.1-0.1-0.3-0.2-0.2-0.1-0.3-0.1h-0.2q-0.1 0-0.3 0.1-0.2 0.1-0.3 0.2-0.1 0.1-0.2 0.3-0.1 0.2-0.1 0.3v11.9q0 0.2 0.1 0.4 0.1 0.2 0.2 0.3 0.1 0.1 0.3 0.2 0.2 0.1 0.3 0.1h0.2q0.1 0 0.3-0.1 0.2-0.1 0.3-0.2 0.1-0.1 0.2-0.3 0.1-0.2 0.1-0.4z"/><path fill-rule="evenodd" class="a" d="m421.2 118.6q-1.3-3.8-2.5-7.5-0.6-2-1.9-1.2-0.2 0.1-0.3 0.3-0.1 0.1-0.1 0.2-0.1 0.2-0.1 0.4 0 0.1 0.1 0.3 1.8 5.2 3.7 10.4c0.5 1.4 1.5 2.4 3.1 1.4q0 0 0.1-0.1 0.1 0 0.1-0.1 0.1-0.1 0.1-0.1 0-0.1 0.1-0.2 1.9-5.3 3.8-10.7c0.4-1.1 0.8-2.8-1.3-1.8q-0.1 0-0.2 0.1-0.1 0.1-0.1 0.1-0.1 0.1-0.2 0.2 0 0.1 0 0.2l-2.9 8.1q-0.8 2.2-1.5 0z"/><path fill-rule="evenodd" class="a" d="m436.4 120.5l0.7 2.1q0 0.2 0.1 0.3 0 0.1 0.2 0.2 0.1 0 0.2 0.1 0.1 0 0.2 0h0.4q0.3 0 0.5-0.1 0.2-0.1 0.3-0.3 0.2-0.2 0.2-0.4 0-0.3 0-0.5-1.9-5.3-3.9-10.7c-0.5-1.3-1.4-2.1-2.8-1.2q-0.1 0.1-0.2 0.1 0 0.1-0.1 0.2 0 0-0.1 0.1 0 0.1 0 0.1l-4.3 11.7q-0.1 0.2 0 0.4 0 0.2 0.1 0.3 0.1 0.2 0.2 0.3 0.2 0.1 0.4 0.1 0.8 0.1 1.3-0.9 0.5-1 1-2.1 0.1-0.1 0.2-0.2 0.1-0.1 0.2-0.2 0.1-0.1 0.2-0.1 0.2-0.1 0.3-0.1h3.8q0.1 0.1 0.3 0.1 0.1 0.1 0.3 0.2 0.1 0 0.2 0.2 0.1 0.1 0.1 0.3z"/><path fill-rule="evenodd" class="a" d="m450.6 123.3c9.7 0 9.4-15.4-3.5-13.5q-0.2 0-0.3 0.1-0.2 0.1-0.3 0.2-0.1 0.2-0.2 0.3-0.1 0.2-0.1 0.4l0.1 11.5q0 0.2 0 0.3 0.1 0.2 0.3 0.4 0.1 0.1 0.3 0.2 0.2 0.1 0.4 0.1 1.6-0.1 3.3 0z"/><path fill-rule="evenodd" class="a" d="m461.8 114.5l-0.1-1.8q0.1-0.1 0.1-0.3 0.1-0.2 0.2-0.4 0.2-0.1 0.4-0.2 0.2 0 0.3 0h4.6q0.2-0.1 0.3-0.1 0.2 0 0.3-0.1 0.1-0.1 0.2-0.3 0.1-0.1 0.2-0.2 0.4-1.3-1.3-1.4-3.1-0.1-6.4 0.2-0.1 0-0.3 0.1-0.2 0.1-0.3 0.2-0.1 0.1-0.2 0.3-0.1 0.2-0.1 0.4l0.1 11.3q0 0.2 0 0.4 0.1 0.2 0.3 0.4 0.1 0.1 0.3 0.2 0.2 0 0.4 0h6.4q0.1 0 0.2 0 0.2 0 0.3-0.1 0.1 0 0.2-0.1 0.1-0.1 0.1-0.2c1.5-2-4.5-1.3-5.3-1.3q-0.2 0-0.4-0.1-0.1-0.1-0.3-0.2-0.1-0.2-0.2-0.3 0-0.2-0.1-0.4v-2q0.1-0.2 0.1-0.4 0.1-0.2 0.2-0.3 0.2-0.1 0.4-0.2 0.2-0.1 0.3-0.1h4.1q0.2 0 0.4-0.1 0.1 0 0.3-0.1 0.1-0.2 0.2-0.3 0.1-0.2 0.1-0.4l0.1-0.4q0-0.1-0.1-0.2 0-0.2-0.1-0.3-0.1-0.1-0.2-0.1-0.1-0.1-0.3-0.1h-4.5q-0.1 0-0.3-0.1-0.2-0.1-0.4-0.2-0.1-0.1-0.2-0.3 0-0.2-0.1-0.4z"/><path fill-rule="evenodd" class="a" d="m473.4 121.6q-0.1 0-0.1-0.1-0.1 0-0.2 0 0-0.1-0.1-0.2 0-0.1 0-0.1v-10.9q0-0.1 0-0.2-0.1-0.1-0.1-0.1-0.1-0.1-0.1-0.1-0.1 0-0.2 0l-1.4-0.2q-0.1 0-0.2 0-0.1 0.1-0.1 0.1-0.1 0.1-0.1 0.2-0.1 0 0 0.1v12.7q0 0.1 0 0.2 0 0.1 0.1 0.1 0 0.1 0.1 0.1 0.1 0 0.2 0.1h7.5q0.1 0 0.1-0.1 0.1 0 0.2-0.1 0-0.1 0.1-0.2 0-0.1 0-0.2l-0.3-1.1q0 0-0.1-0.1 0 0-0.1-0.1 0 0-0.1-0.1-0.1 0-0.1 0z"/><path fill-rule="evenodd" class="a" d="m357.5 130.7q0.2 0.1 0.4 0.1 0.2-0.1 0.5-0.2 0.3-0.2 0.6-0.4 0.2-0.3 0.5-0.6 0.2-0.3 0.4-0.7 0.1-0.3 0.2-0.7 0-0.3-0.1-0.5 0-0.2-0.2-0.3-0.1-0.2-0.4-0.1-0.2 0-0.5 0.1-0.3 0.2-0.5 0.5-0.3 0.2-0.6 0.6-0.2 0.3-0.3 0.6-0.2 0.4-0.2 0.7-0.1 0.3 0 0.5 0 0.3 0.2 0.4z"/><path fill-rule="evenodd" class="a" d="m191.7 138.2q2.4 1.3 4.7 2c4.4 1.5-1.4 6.2-4.8 1.6q0 0-0.1-0.1 0-0.1-0.1-0.1-0.1 0-0.2-0.1 0 0-0.1 0-1.4-0.1-0.6 2.4 0 0.1 0 0.2 0.1 0.1 0.1 0.1 0.1 0.1 0.2 0.2 0.1 0 0.1 0.1c3.2 1.7 11.5 1.2 8.7-4.2-1-2-4.9-2.8-6.9-3.6q-0.3-0.1-0.4-0.2-0.2-0.2-0.3-0.5 0-0.2 0-0.4 0.1-0.3 0.3-0.5c2.3-2.7 4.1-1 6.4 0.4q0 0 0.1 0.1 0.1 0 0.2 0 0.1 0 0.1 0 0.1 0 0.2-0.1 0.5-0.3 0.4-0.7-0.4-1.9-2.6-2.6-4.1-1.3-6.4 2-1.7 2.5 1 4z"/><path fill-rule="evenodd" class="a" d="m215.5 140.6c-1.4-5 3.9-10.1 7.3-4.5q0 0 0.1 0.1 0 0.1 0.1 0.1 0.1 0.1 0.2 0.1 0 0.1 0.1 0.1c1.7 0.5 1.4-1.4 0.8-2.1-4.2-4.6-10.1-2.6-11 3.2-1 7.4 7.9 11.6 11.4 4.5q0.1-0.1 0.1-0.2 0-0.1 0-0.2 0-0.1 0-0.3-0.1-0.1-0.2-0.1c-0.6-0.8-1.5-0.2-2 0.5-2.2 3-6 2.3-6.9-1.2z"/><path fill-rule="evenodd" class="a" d="m244 145.7q1.3 0 2.4-0.4 1.2-0.6 2-1.5 0.9-1 1.4-2.2 0.5-1.3 0.6-2.7 0-1.4-0.4-2.7-0.4-1.3-1.3-2.3-0.8-1-1.9-1.5-1.1-0.6-2.4-0.6-1.2-0.1-2.3 0.4-1.2 0.5-2.1 1.5-0.9 0.9-1.4 2.2-0.5 1.3-0.5 2.7 0 1.4 0.4 2.7 0.4 1.2 1.3 2.3 0.8 1 1.9 1.5 1.1 0.6 2.3 0.6z"/><path fill-rule="evenodd" class="a" d="m307.5 137.7c-1.3 7.2 7.1 11.2 10.9 5 0.6-0.9 0.6-2.2-1-1.7q-0.1 0-0.1 0-0.1 0.1-0.2 0.1 0 0-0.1 0.1 0 0-0.1 0.1l-1.7 1.9q-0.1 0-0.1 0.1-0.1 0.1-0.2 0.1-0.1 0-0.2 0.1-0.1 0-0.2 0c-5 0.4-6.1-3.9-4.3-7.5 3-6.1 6.9 1.6 8.3 0.5q0.1 0 0.1-0.1 0.1-0.1 0.1-0.1 0-0.1 0-0.2 0.1-0.1 0-0.2c-0.8-6.2-10-5.3-11.2 1.8z"/><path fill-rule="evenodd" class="a" d="m335.6 141c-1.1-2.8 0.2-7.7 4-7.2 1.7 0.2 2.6 1.6 3.7 2.8q0.1 0.1 0.2 0.1 0.1 0 0.1 0.1 0.1 0 0.2 0 0.1 0 0.2 0 0.6-0.2 0.5-0.8-0.2-2.6-2.5-3.5c-11.6-4.6-12.2 17.1 0.2 12.5q1.7-0.7 2.4-3 0-0.1 0-0.3 0-0.1 0-0.2-0.1-0.1-0.2-0.2-0.1-0.1-0.2-0.2c-1.3-0.9-5.8 6.5-8.6-0.1z"/><path fill-rule="evenodd" class="a" d="m499.9 133.6c-6.1 7 3.7 17.6 9.3 9.1 0.5-0.9 0.6-2.1-0.9-1.7q-0.1 0-0.2 0-0.1 0.1-0.2 0.1-0.1 0.1-0.2 0.2 0 0.1-0.1 0.2c-2.9 5.4-8.5 0.4-7.2-4.4 1-3.5 4.8-4.7 7.1-1.3 0.3 0.6 1.1 1.1 1.7 0.8q0.1-0.1 0.1-0.1 0.1-0.1 0.1-0.2 0.1-0.1 0.1-0.2 0-0.1 0-0.2c-0.6-4.6-7.1-5.2-9.6-2.3z"/><path fill-rule="evenodd" class="a" d="m204.5 142.8v-2q0-0.2 0.1-0.4 0.1-0.2 0.2-0.3 0.1-0.2 0.3-0.2 0.2-0.1 0.4-0.1 1.6-0.1 3.3-0.1c0.9 0 2.8-0.7 1.3-1.8q-0.1 0-0.2-0.1 0 0-0.1 0-0.1 0-0.1 0-0.1 0-0.2-0.1h-4q-0.2 0-0.4 0-0.2-0.1-0.3-0.2-0.1-0.2-0.2-0.4-0.1-0.2-0.1-0.4v-2q0-0.1 0.1-0.3 0.1-0.2 0.2-0.4 0.1-0.1 0.3-0.2 0.2 0 0.4-0.1h5q0.1 0.1 0.2 0 0.1 0 0.2-0.1 0-0.1 0.1-0.2 0-0.1 0-0.2v-0.3q0-0.2-0.1-0.4-0.1-0.1-0.2-0.2-0.2-0.2-0.4-0.2-0.1-0.1-0.3-0.1h-6.8q-0.1 0-0.3 0.1-0.2 0.1-0.4 0.2-0.1 0.1-0.2 0.3 0 0.2-0.1 0.4v11.5q0.1 0.2 0.1 0.4 0.1 0.2 0.2 0.3 0.2 0.1 0.4 0.2 0.2 0.1 0.3 0.1h7.4q0.1 0 0.1 0 0.1-0.1 0.2-0.1 0-0.1 0.1-0.2 0 0 0-0.1v-0.4q0-0.1-0.1-0.3-0.1-0.2-0.2-0.4-0.1-0.1-0.3-0.2-0.2 0-0.4-0.1h-4.5q-0.2 0-0.4 0-0.2-0.1-0.3-0.2-0.1-0.2-0.2-0.4-0.1-0.2-0.1-0.4z"/><path fill-rule="evenodd" class="a" d="m230.5 134.8v9.7q0 0.2 0.1 0.3 0 0.2 0.1 0.3 0.1 0.2 0.3 0.3 0.1 0 0.3 0.1 1.6 0.4 1.4-2-0.1-1.7 0.1-8.8 0-0.2 0.1-0.4 0.1-0.1 0.2-0.3 0.2-0.1 0.3-0.2 0.2 0 0.4-0.1h2.5q0.1 0 0.3 0 0.1 0 0.2-0.1 0.1-0.1 0.2-0.2 0.1-0.1 0.2-0.2c0.8-1.8-6.4-1.2-9.6-1.1q-1.8 0.1-1.2 1.2 0.1 0.1 0.1 0.2 0.1 0.1 0.2 0.1 0.1 0.1 0.2 0.1 0.1 0 0.2 0h2.4q0.2 0.1 0.4 0.1 0.2 0.1 0.3 0.2 0.1 0.2 0.2 0.4 0.1 0.2 0.1 0.3z"/><path fill-rule="evenodd" class="a" d="m260.6 139.8c3-2.8 2-7-2-7.7q-2.3-0.4-5 0-0.2 0.1-0.3 0.1-0.2 0.1-0.3 0.3-0.1 0.1-0.2 0.3 0 0.1-0.1 0.3v11.3q0.1 0.2 0.1 0.4 0.1 0.2 0.2 0.3 0.1 0.1 0.3 0.2 0.1 0.1 0.3 0.1l0.3 0.1q0.2 0 0.4-0.1 0.2 0 0.4-0.2 0.1-0.1 0.2-0.3 0.1-0.2 0.1-0.4v-2.9q0-0.2 0.1-0.4 0-0.2 0.2-0.3 0.1-0.2 0.3-0.2 0.1-0.1 0.3-0.1l1.2-0.1q0.2 0 0.3 0 0.2 0.1 0.3 0.1 0.1 0.1 0.2 0.2 0.1 0.1 0.2 0.2c0.4 1 1.8 4.2 2.8 4.5q0.4 0.1 0.8 0 0.2 0 0.4-0.1 0.1-0.1 0.2-0.3 0.1-0.2 0.1-0.4 0-0.2-0.1-0.4l-1.9-3.3q-0.1-0.1-0.1-0.3-0.1-0.2-0.1-0.4 0.1-0.1 0.2-0.3 0-0.1 0.2-0.2z"/><path fill-rule="evenodd" class="a" d="m272.8 139.8l4-0.1q0.1 0 0.3 0 0.1-0.1 0.3-0.1 0.1-0.1 0.2-0.3 0.1-0.1 0.1-0.3c1.1-3.6-7.8 2-5.9-4.5q0.1-0.2 0.1-0.3 0.1-0.1 0.3-0.2 0.1-0.1 0.3-0.2 0.1 0 0.3 0l4.6-0.1q0.1 0 0.2 0 0.1 0 0.2 0 0.1-0.1 0.2-0.1 0.1-0.1 0.1-0.1c1.1-1.1-0.4-1.5-1.2-1.5q-3.2 0-6.4 0-0.2 0-0.4 0.1-0.2 0.1-0.3 0.2-0.2 0.2-0.2 0.4-0.1 0.1-0.1 0.3v11.5q0 0.2 0.1 0.4 0.1 0.2 0.2 0.3 0.1 0.1 0.3 0.2 0.2 0.1 0.4 0.1h6.7q0.2 0 0.4-0.1 0.2 0 0.4-0.2 0.1-0.1 0.2-0.3 0-0.2 0-0.4l0.1-0.3q0-0.1-0.1-0.2 0-0.1-0.1-0.1 0-0.1-0.1-0.1-0.1 0-0.1-0.1h-5.2q-0.1 0-0.3 0-0.2-0.1-0.4-0.2-0.1-0.2-0.2-0.4 0-0.2-0.1-0.4v-2q0.1-0.1 0.1-0.3 0.1-0.2 0.2-0.4 0.2-0.1 0.4-0.2 0.2 0 0.3-0.1z"/><path fill-rule="evenodd" class="a" d="m288.7 132.8q-3.4-1.2-7.1-0.8-0.2 0.1-0.3 0.1-0.2 0.1-0.3 0.3-0.1 0.1-0.2 0.3 0 0.1 0 0.3v11.3q0 0.2 0 0.4 0.1 0.1 0.2 0.3 0.1 0.1 0.2 0.2 0.2 0.1 0.4 0.1 10.6 2.1 9.9-8.4-0.2-3.3-2.8-4.2z"/><path fill-rule="evenodd" class="a" d="m294.2 142.9c2.5 3.1 7.7 4.2 9.9 0.5 1.3-2.2 0.6-7.8 0.6-10.8q0-0.1 0-0.2-0.1-0.1-0.2-0.2 0-0.1-0.2-0.2-0.1 0-0.2 0h-0.3q-0.2 0-0.4 0.1-0.2 0.1-0.3 0.2-0.2 0.1-0.3 0.3 0 0.2 0 0.4-0.1 2.9 0 5.8c0 3.9-2 6.7-6.1 3.9q-0.1 0-0.2-0.1-0.1-0.1-0.1-0.2-0.1-0.2-0.1-0.3 0-0.1 0-0.2v-8.9q-0.1-0.2-0.1-0.4-0.1-0.2-0.3-0.3-0.1-0.2-0.3-0.2-0.2-0.1-0.4-0.1h-0.2q-0.2 0-0.4 0.1-0.2 0.1-0.3 0.2-0.2 0.2-0.2 0.3-0.1 0.2-0.1 0.4v9.3q0 0.1 0 0.1 0 0.1 0.1 0.2 0 0.1 0 0.1 0.1 0.1 0.1 0.2z"/><path fill-rule="evenodd" class="a" d="m329 142.7l0.7 2.1q0.1 0.1 0.1 0.1 0.1 0.1 0.1 0.2 0.1 0.1 0.2 0.2 0.1 0 0.2 0.1 2.1 0.8 1.4-1.2-1.9-5.7-3.9-11.4 0 0-0.1-0.1 0-0.1 0-0.1-0.1-0.1-0.1-0.2-0.1 0-0.2-0.1c-1.5-1-2.5-0.2-3 1.4q-1.9 5.2-3.8 10.4-0.1 0.3-0.1 0.5 0.1 0.2 0.2 0.4 0.1 0.2 0.3 0.4 0.2 0.1 0.5 0.1h0.4q0.1 0 0.2 0 0.1-0.1 0.2-0.1 0.2-0.1 0.2-0.2 0.1-0.1 0.1-0.2l0.8-2.3q0.1-0.2 0.2-0.3 0-0.1 0.2-0.2 0.1-0.1 0.3-0.2 0.1 0 0.3 0h3.7q0.1 0 0.3 0 0.1 0.1 0.3 0.2 0.1 0.1 0.2 0.2 0.1 0.1 0.1 0.3z"/><path fill-rule="evenodd" class="a" d="m349.2 132.5q0-0.1 0-0.2-0.1-0.1-0.1-0.1-0.1-0.1-0.2-0.1-0.1-0.1-0.2-0.1h-1.2q-0.1 0-0.2 0.1-0.1 0-0.2 0.1 0 0-0.1 0.1 0 0.1 0 0.2v12.5q0 0.1 0 0.2 0.1 0.1 0.1 0.2 0.1 0 0.2 0.1 0.1 0 0.2 0h1.3q0 0 0.1 0 0.1-0.1 0.2-0.1 0.1-0.1 0.1-0.2 0-0.1 0-0.2z"/><path fill-rule="evenodd" class="a" d="m363.5 137.4q0-1.1-0.4-2.1-0.4-1-1.2-1.7-0.8-0.8-1.7-1.2-1-0.4-2.1-0.4h-1q-1 0-2 0.5-1 0.4-1.7 1.1-0.8 0.8-1.2 1.8-0.4 1-0.4 2v2.8q0 1 0.5 2 0.4 1 1.1 1.7 0.8 0.8 1.8 1.2 1 0.4 2 0.4h1q1.1 0 2-0.4 1-0.5 1.8-1.2 0.7-0.8 1.1-1.8 0.4-1 0.4-2z"/><path fill-rule="evenodd" class="a" d="m368.5 138.3q0-2.5 1.4-0.5 2.4 3.2 4.5 6.6c0.8 1.1 2.9 2.2 2.9-0.4q0-5.6-0.1-11.2 0-0.2 0-0.3-0.1-0.2-0.2-0.3-0.1-0.1-0.3-0.1-0.1-0.1-0.3-0.1h-0.4q-0.2 0-0.4 0.1-0.2 0.1-0.3 0.2-0.2 0.2-0.2 0.3-0.1 0.2-0.1 0.4v5.6q0 3.2-1.8 0.5l-4.6-6.7q-0.1-0.1-0.2-0.1-0.1-0.1-0.2-0.2-0.1 0-0.2-0.1-0.1 0-0.3 0h-0.5q-0.1 0-0.3 0.1-0.2 0.1-0.4 0.2-0.1 0.1-0.2 0.3 0 0.2-0.1 0.4v11.5q0.1 0.2 0.1 0.4 0.1 0.2 0.3 0.3 0.1 0.2 0.3 0.2 0.2 0.1 0.4 0.1h0.2q0.2 0 0.4-0.1 0.2-0.1 0.3-0.2 0.2-0.2 0.2-0.3 0.1-0.2 0.1-0.4z"/><path fill-rule="evenodd" class="a" d="m390.9 132.3q-2.4-0.7-5.1-0.2-0.1 0-0.3 0.1-0.1 0.1-0.3 0.2-0.1 0.1-0.1 0.3-0.1 0.2-0.1 0.3v11.4q0 0.2 0.1 0.4 0 0.2 0.1 0.3 0.2 0.1 0.3 0.2 0.2 0.1 0.4 0.1 2.5 0.4 4.9-0.1c6.8-1.4 6.9-11.3 0.1-13.1z"/><path fill-rule="evenodd" class="a" d="m400.8 137.8q0-0.1-0.1-0.1-0.1 0-0.1 0 0-0.1-0.1-0.2 0 0 0-0.1v-3.3q0-0.1 0-0.1 0.1-0.1 0.1-0.2 0 0 0.1 0 0.1 0 0.1-0.1h5.6q0 0.1 0.1 0 0 0 0.1 0 0-0.1 0.1-0.1 0-0.1 0-0.2l0.1-1q0-0.1 0-0.2-0.1 0-0.1-0.1-0.1 0-0.1-0.1-0.1 0-0.2 0h-7.8q-0.1 0-0.1 0-0.1 0.1-0.2 0.1 0 0 0 0.1 0 0.1-0.1 0.1v12.8q0 0.1 0.1 0.2 0 0 0 0.1 0.1 0 0.1 0.1 0.1 0 0.2 0h8.1q0 0 0.1 0 0.1 0 0.1-0.1 0 0 0.1-0.1 0 0 0-0.1v-1.1q0-0.1 0-0.1 0-0.1-0.1-0.2 0 0-0.1 0-0.1 0-0.1-0.1h-6q0 0-0.1 0-0.1 0-0.1-0.1-0.1 0-0.1-0.1 0 0 0-0.1l0.1-3.3q0-0.1 0.1-0.2 0 0 0-0.1 0.1 0 0.2 0 0-0.1 0.1-0.1h5.2q0.1 0 0.2 0 0 0 0.1 0 0-0.1 0-0.2 0.1 0 0.1-0.1v-1.3q0-0.1-0.1-0.1 0-0.1 0-0.2-0.1 0-0.1 0-0.1 0-0.2-0.1z"/><path fill-rule="evenodd" class="a" d="m417.5 142h3.7q0.1 0 0.3 0 0.1 0.1 0.2 0.2 0.1 0 0.2 0.1 0.1 0.1 0.2 0.3c0.4 0.9 0.9 3.6 2.5 2.8q0.2 0 0.3-0.1 0.1-0.1 0.2-0.3 0-0.1 0-0.3 0-0.1 0-0.3l-4.2-11.7q0-0.1-0.1-0.2-0.1-0.2-0.3-0.2-0.1-0.1-0.2-0.2-0.2 0-0.3 0h-1.2q-0.2 0-0.3 0-0.2 0.1-0.3 0.2-0.1 0.1-0.2 0.2-0.1 0.1-0.2 0.2l-4.1 11.8q-0.1 0.2-0.1 0.4 0.1 0.1 0.1 0.3 0.1 0.1 0.3 0.2 0.1 0.1 0.3 0.2c1.7 0.2 1.8-1.8 2.3-3q0-0.1 0.1-0.2 0.1-0.1 0.3-0.2 0.1-0.1 0.2-0.2 0.2 0 0.3 0z"/><path fill-rule="evenodd" class="a" d="m432.5 132.1q-2.1-0.4-4.4 0-0.2 0-0.3 0.1-0.2 0.1-0.3 0.2-0.1 0.1-0.2 0.3 0 0.2 0 0.3v11.7q0 0.2 0 0.3 0.1 0.2 0.2 0.3 0.1 0.1 0.2 0.1 0.2 0.1 0.3 0.1h0.5q0.2 0 0.4-0.1 0.2 0 0.3-0.2 0.1-0.1 0.2-0.3 0.1-0.2 0.1-0.4v-2.7q0-0.2 0.1-0.4 0-0.2 0.2-0.3 0.1-0.1 0.3-0.2 0.2-0.1 0.4-0.1l3.6-0.2q0.1 0 0.1 0 0.1 0 0.2-0.1 0.1 0 0.1-0.1 0.1 0 0.2 0c3.6-3.2 2.6-7.5-2.2-8.3z"/><path fill-rule="evenodd" class="a" d="m441.5 144.9c9.8 3.9 8.1-6.7 8.2-12q0-0.1 0-0.3 0-0.1-0.1-0.2-0.1-0.2-0.2-0.3-0.1-0.1-0.3-0.1c-3.8-1.6 2.6 16.2-7.3 10.9q-0.1-0.1-0.2-0.2-0.1-0.1-0.2-0.2-0.1-0.1-0.1-0.3 0-0.1 0-0.2v-9q-0.1-0.2-0.1-0.4-0.1-0.2-0.2-0.3-0.2-0.1-0.4-0.2-0.2-0.1-0.3-0.1h-0.3q-0.3 0-0.4 0.1-0.2 0.1-0.4 0.2-0.1 0.1-0.2 0.3-0.1 0.2 0 0.4l0.1 8.7q0.1 2.3 2.4 3.2z"/><path fill-rule="evenodd" class="a" d="m460.6 139.8q3.5-3.6-0.2-7.3 0-0.1-0.1-0.1-0.1-0.1-0.2-0.1 0 0-0.1-0.1-0.1 0-0.2 0l-6-0.3q-0.2 0-0.4 0.1-0.2 0.1-0.3 0.2-0.2 0.2-0.3 0.4 0 0.1-0.1 0.3v12q0.1 0.1 0.1 0.2 0 0.1 0.1 0.2 0.1 0.1 0.2 0.2 0.2 0 0.3 0h0.3q0.2 0 0.4-0.1 0.2-0.1 0.4-0.2 0.1-0.1 0.2-0.3 0-0.2 0-0.4v-3q0.1-0.2 0.1-0.4 0.1-0.2 0.2-0.3 0.2-0.1 0.4-0.2 0.2-0.1 0.3-0.1h1.4q0.1 0 0.2 0 0.2 0.1 0.3 0.1 0.1 0.1 0.2 0.2 0.1 0.1 0.1 0.2l2.1 3.9q0.1 0.1 0.1 0.2 0.1 0.1 0.3 0.2 0.1 0.1 0.2 0.1 0.1 0.1 0.3 0.1h0.5q0.2 0 0.4-0.1 0.2-0.1 0.3-0.3 0.1-0.2 0.1-0.4 0-0.2-0.1-0.4l-1.6-3.3q-0.1-0.2-0.1-0.3 0-0.2 0-0.3 0-0.2 0.1-0.3 0-0.2 0.1-0.3z"/><path fill-rule="evenodd" class="a" d="m466.8 132.6q-0.1-0.1-0.1-0.2 0-0.1-0.1-0.2-0.1-0.1-0.2-0.1-0.2-0.1-0.3-0.1h-1q-0.1 0-0.2 0.1-0.1 0-0.2 0.1-0.1 0.1-0.2 0.2 0 0.1 0 0.2v12.3q0 0.1 0 0.2 0.1 0.1 0.2 0.2 0.1 0.1 0.2 0.2 0.1 0 0.2 0h1q0.1 0 0.3 0 0.1-0.1 0.2-0.2 0.1-0.1 0.1-0.2 0-0.1 0-0.2z"/><path fill-rule="evenodd" class="a" d="m481.3 140q0 2.1-0.1 4.2c0 0.8 0.5 1.9 1.5 1.4q0.1-0.1 0.2-0.2 0.1-0.1 0.2-0.2 0.1-0.1 0.1-0.3 0-0.1 0-0.2v-11.7q0-0.2 0-0.4-0.1-0.2-0.3-0.3-0.1-0.2-0.3-0.2-0.2-0.1-0.4-0.1h-0.9q-0.1 0-0.2 0.1-0.2 0-0.3 0.1-0.1 0.1-0.2 0.2-0.1 0.1-0.2 0.2l-3.2 8q-0.7 1.9-1.5 0-1.4-3.7-2.9-7.3c-0.6-1.2-1.3-1.7-2.6-1.3q-0.1 0.1-0.3 0.1-0.1 0.1-0.2 0.3-0.1 0.1-0.1 0.3-0.1 0.1-0.1 0.3v11.7q0 0.2 0.1 0.3 0 0.2 0.1 0.3 0.2 0.1 0.3 0.1 0.2 0.1 0.3 0.1h0.5q0.2 0 0.4-0.1 0.1-0.1 0.3-0.2 0.1-0.2 0.2-0.3 0-0.2 0-0.4v-7q0-0.1 0.1-0.1 0 0 0-0.1 0 0 0.1 0 0 0 0 0c1.4-0.2 2.5 9.9 5.3 8q0.1 0 0.1-0.1 0.1 0 0.1-0.1 0.1 0 0.1-0.1 0.1-0.1 0.1-0.1l2.1-5.2q1.5-3.6 1.5 0.3z"/><path fill-rule="evenodd" class="a" d="m494 142.7l0.7 2.1q0.1 0.1 0.1 0.1 0.1 0.1 0.1 0.2 0.1 0.1 0.2 0.2 0.1 0 0.2 0.1 2.2 0.9 1.4-1.4-1.9-5.6-3.9-11.2-0.1-0.2-0.2-0.3-0.1-0.1-0.2-0.2-0.1-0.1-0.2-0.1-0.2-0.1-0.3-0.1h-1.3q-0.1 0-0.3 0-0.1 0.1-0.3 0.1-0.1 0.1-0.2 0.3-0.1 0.1-0.1 0.2-2 5.6-4 11.2c-0.4 1.1-0.2 2.6 1.4 1.6q0 0 0.1-0.1 0.1 0 0.1-0.1 0.1 0 0.1-0.1 0.1-0.1 0.1-0.2l0.9-2.4q0.1-0.1 0.2-0.2 0.1-0.1 0.2-0.2 0.1-0.1 0.3-0.2 0.1 0 0.3 0h3.7q0.1 0 0.3 0 0.1 0.1 0.3 0.2 0.1 0.1 0.2 0.2 0.1 0.1 0.1 0.3z"/><path fill-rule="evenodd" class="a" d="m80.4 52.2c1.1 0.4 2.4 0.7 3.7 0.6 1.2 0 2.5-0.4 3.7-0.9 1.2-0.6 2.3-1.4 3.3-2.5 0.9-1 1.7-2.2 2.2-3.5 0.5-1.3 0.8-2.6 0.9-4 0-1.4-0.2-2.8-0.6-4-0.4-1.3-1.1-2.4-2-3.4-0.8-0.9-1.9-1.6-3-2.1-1.2-0.5-2.5-0.7-3.7-0.7-1.3 0.1-2.6 0.4-3.8 1-1.2 0.6-2.3 1.4-3.2 2.4-1 1-1.7 2.2-2.3 3.5-0.5 1.3-0.8 2.7-0.9 4.1 0 1.4 0.2 2.7 0.6 4 0.5 1.2 1.1 2.4 2 3.3 0.9 1 1.9 1.7 3.1 2.2z"/><path fill-rule="evenodd" class="a" d="m49 70c1.2 0.5 2.4 0.7 3.7 0.6 1.3 0 2.6-0.4 3.8-0.9 1.2-0.6 2.3-1.5 3.2-2.5 0.9-1 1.7-2.2 2.2-3.5 0.5-1.3 0.8-2.7 0.9-4.1 0-1.4-0.2-2.7-0.7-4-0.4-1.3-1.1-2.4-2-3.3-0.9-0.9-1.9-1.7-3.1-2.1-1.2-0.5-2.4-0.7-3.7-0.6-1.3 0-2.5 0.4-3.7 0.9-1.2 0.6-2.3 1.5-3.3 2.5-0.9 1-1.6 2.2-2.2 3.5-0.5 1.3-0.8 2.7-0.8 4.1-0.1 1.4 0.2 2.7 0.6 4 0.5 1.3 1.2 2.4 2 3.3 0.9 0.9 2 1.7 3.1 2.1z"/><path fill-rule="evenodd" class="a" d="m112 70.1c1.2 0.4 2.4 0.6 3.7 0.6 1.3-0.1 2.5-0.5 3.7-1.1 1.2-0.6 2.3-1.4 3.2-2.5 0.9-1 1.7-2.2 2.2-3.5 0.5-1.3 0.8-2.7 0.8-4.1 0-1.4-0.2-2.8-0.7-4-0.5-1.3-1.2-2.4-2.1-3.3-0.8-0.9-1.9-1.6-3.1-2.1-1.1-0.4-2.4-0.6-3.7-0.5-1.2 0-2.5 0.4-3.7 1-1.2 0.6-2.3 1.5-3.2 2.5-0.9 1-1.6 2.2-2.2 3.6-0.5 1.3-0.7 2.7-0.8 4 0 1.4 0.3 2.8 0.7 4 0.5 1.3 1.2 2.4 2.1 3.3 0.9 0.9 1.9 1.6 3.1 2.1z"/><path fill-rule="evenodd" class="a" d="m95 59.5q0-0.1 0-0.2-0.1-0.1-0.1-0.1-0.1-0.1-0.2-0.2-0.1 0-0.2 0h-20q-0.1 0-0.2 0-0.1 0.1-0.2 0.2 0 0-0.1 0.1 0 0.1 0 0.2v63.3q0 0 0 0.1 0.1 0.1 0.1 0.2 0.1 0.1 0.2 0.1 0.1 0 0.2 0.1h20q0.1-0.1 0.2-0.1 0.1 0 0.2-0.1 0-0.1 0.1-0.2 0-0.1 0-0.1z"/><path fill-rule="evenodd" class="a" d="m63.5 77.3q0-0.1 0-0.2-0.1-0.1-0.2-0.2 0-0.1-0.1-0.1-0.1 0-0.2 0h-20q-0.1 0-0.2 0-0.1 0-0.1 0.1-0.1 0.1-0.2 0.2 0 0.1 0 0.2v45.4q0 0.1 0 0.2 0.1 0.1 0.2 0.2 0 0.1 0.1 0.1 0.1 0 0.2 0.1h20q0.1-0.1 0.2-0.1 0.1 0 0.1-0.1 0.1-0.1 0.2-0.2 0-0.1 0-0.2z"/><path fill-rule="evenodd" class="a" d="m126.3 77.2q-0.1-0.1-0.1-0.2 0-0.1-0.1-0.1 0-0.1-0.1-0.1-0.1 0-0.2-0.1h-20.1q-0.1 0.1-0.2 0.1-0.1 0-0.1 0.1-0.1 0-0.1 0.1 0 0.1 0 0.2v45.6q0 0.1 0 0.2 0 0.1 0.1 0.1 0 0.1 0.1 0.1 0.1 0 0.2 0h20.1q0.1 0 0.2 0 0.1 0 0.1-0.1 0.1 0 0.1-0.1 0-0.1 0.1-0.2z"/><path fill-rule="evenodd" class="a" d="m221.7 82.2c16.3-2.3 16.6-36 0-38.6q-5.8-0.9-12.8-0.6-0.1 0-0.3 0.1-0.2 0.1-0.3 0.2-0.2 0.2-0.2 0.3-0.1 0.2-0.1 0.4v37.7q0 0.2 0.1 0.4 0 0.2 0.2 0.3 0.1 0.1 0.3 0.2 0.2 0.1 0.4 0.1 6.4 0.3 12.7-0.5z"/><path fill-rule="evenodd" class="a" d="m279.4 69.6q0 0.1 0 0.1 0 0.1 0.1 0.2 0 0 0.1 0.1 0 0 0.1 0h14.5q0.1 0 0.2 0 0-0.1 0.1-0.1 0-0.1 0-0.2 0 0 0-0.1l-7.2-23.2q-0.1-0.1-0.2-0.1 0-0.1-0.1-0.1-0.1 0-0.2 0.1-0.1 0-0.1 0.1z"/><path fill-rule="evenodd" class="a" d="m469.5 69.6q-0.1 0.1 0 0.2 0 0 0 0.1 0.1 0 0.1 0.1 0.1 0 0.2 0h14.4q0.1 0 0.2 0 0.1-0.1 0.1-0.1 0.1-0.1 0.1-0.2 0 0-0.1-0.1l-7.2-23.1q-0.1-0.1-0.2-0.2 0-0.1-0.1-0.1-0.1 0-0.2 0.1-0.1 0.1-0.1 0.2z"/><path fill-rule="evenodd" class="a" d="m193.6 121.5c7.6 0.9 7.8-11 0-9.7q-0.2 0-0.3 0.1-0.2 0.1-0.3 0.2-0.1 0.1-0.2 0.3 0 0.2-0.1 0.3l0.1 7.8q0 0.2 0 0.3 0.1 0.2 0.2 0.3 0.1 0.2 0.3 0.3 0.1 0 0.3 0.1z"/><path fill-rule="evenodd" class="a" d="m217.1 112.4c-3 10.4 13-1 0.9-0.8q-0.1 0.1-0.3 0.1-0.1 0.1-0.3 0.2-0.1 0.1-0.2 0.2-0.1 0.1-0.1 0.3z"/><path fill-rule="evenodd" class="a" d="m229.1 112.4c-2.6 10.5 12.6-1.1 0.9-0.7q-0.1 0-0.3 0-0.1 0.1-0.3 0.2-0.1 0.1-0.2 0.2-0.1 0.2-0.1 0.3z"/><path fill-rule="evenodd" class="a" d="m242.1 117.6q-0.1 0.1 0 0.1 0 0.1 0 0.2 0.1 0 0.1 0.1 0.1 0 0.2 0h3q0 0 0.1-0.1 0.1 0 0.1-0.1 0.1 0 0.1-0.1 0-0.1 0-0.2l-1.6-4.3q0-0.1-0.1-0.2-0.1 0-0.2 0-0.1 0-0.2 0-0.1 0.1-0.1 0.2z"/><path fill-rule="evenodd" class="a" d="m271.4 117.5q0 0.1 0 0.2 0 0.1 0.1 0.1 0 0.1 0.1 0.1 0.1 0.1 0.2 0.1h3.1q0.1 0 0.2 0 0.1-0.1 0.1-0.1 0.1-0.1 0.1-0.2 0-0.1 0-0.1l-1.6-4.2q0-0.1-0.1-0.2-0.1-0.1-0.2-0.1-0.1 0-0.2 0.1-0.1 0.1-0.1 0.2z"/><path fill-rule="evenodd" class="a" d="m289.4 117.5q-0.1 0.1-0.1 0.2 0.1 0.1 0.1 0.1 0 0.1 0.1 0.1 0.1 0.1 0.2 0.1h3q0.1 0 0.2 0 0-0.1 0.1-0.1 0-0.1 0.1-0.2 0 0-0.1-0.1l-1.4-4.3q0-0.1-0.1-0.2-0.1-0.1-0.2-0.1-0.1 0-0.2 0.1-0.1 0.1-0.2 0.2z"/><path fill-rule="evenodd" class="a" d="m305.6 112.2q-1.4-0.7-3.5-0.5-0.1 0-0.3 0.1-0.2 0.1-0.3 0.2-0.1 0.2-0.2 0.3 0 0.2-0.1 0.4v7.7q0.1 0.2 0.1 0.4 0.1 0.2 0.2 0.3 0.1 0.1 0.3 0.2 0.1 0.1 0.3 0.1c6.2 0.9 7.7-7.2 3.5-9.2z"/><path fill-rule="evenodd" class="a" d="m383.8 115.1c1.2-3.1-1.7-3.6-4.1-3.4q-0.1 0-0.3 0.1-0.1 0.1-0.2 0.2-0.1 0.1-0.2 0.2-0.1 0.1-0.1 0.3-1.4 6.3 4.5 3.1 0 0 0.1-0.1 0.1 0 0.1-0.1 0.1 0 0.1-0.1 0.1-0.1 0.1-0.2z"/><path fill-rule="evenodd" class="a" d="m391.8 117.5q0 0.1 0 0.2 0 0.1 0 0.1 0.1 0.1 0.1 0.2 0.1 0 0.2 0h3q0.1 0 0.2 0 0.1-0.1 0.1-0.1 0.1-0.1 0.1-0.2 0-0.1 0-0.1l-1.5-4.2q-0.1-0.1-0.2-0.1 0-0.1-0.1-0.1-0.2 0-0.2 0-0.1 0.1-0.2 0.2z"/><path fill-rule="evenodd" class="a" d="m433.9 113.2q-0.1-0.1-0.2-0.2-0.1 0-0.2 0-0.1 0-0.2 0-0.1 0.1-0.1 0.2l-1.5 4.4q-0.1 0-0.1 0.1 0.1 0.1 0.1 0.2 0.1 0 0.1 0.1 0.1 0 0.2 0h3q0.1 0 0.2 0 0.1-0.1 0.1-0.1 0.1-0.1 0.1-0.2 0-0.1 0-0.2z"/><path fill-rule="evenodd" class="a" d="m453.3 112.1l-3.7-0.4q-0.2 0-0.4 0.1-0.2 0-0.4 0.2-0.1 0.1-0.2 0.3-0.1 0.2-0.1 0.4v7.9q0 0.2 0.1 0.4 0.1 0.1 0.2 0.3 0.2 0.1 0.3 0.2 0.2 0.1 0.4 0.1 7.9-0.3 4.6-8.8 0-0.2-0.1-0.3-0.1-0.1-0.2-0.2-0.1-0.1-0.2-0.1-0.2-0.1-0.3-0.1z"/><path fill-rule="evenodd" class="a" d="m244.3 143.7q0.8 0 1.5-0.3 0.7-0.4 1.3-1.1 0.5-0.8 0.8-1.7 0.3-0.9 0.3-1.9 0-1-0.3-1.9-0.3-0.9-0.9-1.6-0.6-0.7-1.3-1.1-0.7-0.4-1.5-0.4-0.8 0-1.5 0.4-0.7 0.4-1.3 1.1-0.5 0.7-0.8 1.7-0.3 0.9-0.3 1.9 0 1 0.3 1.9 0.3 0.9 0.9 1.6 0.5 0.7 1.3 1.1 0.7 0.4 1.5 0.3z"/><path fill-rule="evenodd" class="a" d="m258.3 134q-4.6-1.8-3.2 3.6 0 0.2 0.1 0.3 0 0.1 0.1 0.2 0.1 0.1 0.2 0.2 0.1 0 0.3 0.1c3.9 1 6.4-2.9 2.5-4.4z"/><path fill-rule="evenodd" class="a" d="m288.7 135.5q-2.2-1.8-5-1.8-0.2 0.1-0.4 0.1-0.1 0.1-0.3 0.3-0.1 0.1-0.2 0.3 0 0.2 0 0.4v7.7q0 0.2 0 0.4 0.1 0.2 0.2 0.3 0.2 0.1 0.3 0.2 0.2 0.1 0.4 0.1 7.3 0.4 5.4-7.5 0 0-0.1-0.1 0-0.1-0.1-0.2 0 0 0-0.1-0.1 0-0.2-0.1z"/><path fill-rule="evenodd" class="a" d="m324.5 139.3q-0.1 0.1-0.1 0.2 0 0.2 0.1 0.2 0.1 0.1 0.2 0.2 0.1 0.1 0.2 0.1h2.5q0.2 0 0.3 0 0.1-0.1 0.1-0.1 0.1-0.1 0.1-0.2 0-0.2 0-0.3l-1.2-3.8q0-0.1-0.1-0.2-0.1-0.1-0.3-0.1-0.1 0-0.3 0.1-0.1 0-0.1 0.2z"/><path fill-rule="evenodd" class="a" d="m357.8 143.6q0.8 0 1.5-0.3 0.7-0.4 1.3-1.1 0.5-0.7 0.8-1.6 0.3-0.9 0.3-1.9 0-1-0.3-1.9-0.3-0.9-0.9-1.6-0.5-0.7-1.3-1.1-0.7-0.3-1.5-0.3-0.8 0-1.5 0.4-0.7 0.3-1.3 1-0.6 0.7-0.9 1.6-0.2 1-0.2 1.9 0 1 0.3 1.9 0.3 0.9 0.9 1.6 0.5 0.7 1.2 1.1 0.8 0.4 1.6 0.3z"/><path fill-rule="evenodd" class="a" d="m390.8 143.3c5.2-1.6 3.5-10.3-3-9.6q-0.1 0-0.3 0.1-0.2 0.1-0.3 0.2-0.1 0.2-0.2 0.4 0 0.1-0.1 0.3l0.1 7.9q0 0.2 0.1 0.3 0.1 0.2 0.2 0.3 0.1 0.2 0.3 0.2 0.1 0.1 0.3 0.1 1.5 0.2 2.9-0.2z"/><path fill-rule="evenodd" class="a" d="m417.6 139.5q0 0.1 0 0.2 0 0.1 0 0.1 0.1 0.1 0.1 0.1 0.1 0.1 0.2 0.1h2.9q0 0 0.1 0 0.1 0 0.1-0.1 0.1-0.1 0.1-0.1 0-0.1 0-0.2l-1.4-4.3q0-0.1-0.1-0.2-0.1 0-0.2-0.1-0.1 0-0.2 0.1-0.1 0.1-0.1 0.2z"/><path fill-rule="evenodd" class="a" d="m433.8 138.4c2.3-3-0.5-5.2-3.5-4.7q-0.1 0.1-0.3 0.2-0.1 0.1-0.3 0.2-0.1 0.1-0.1 0.3-0.1 0.2-0.1 0.3v3.3q0 0.2 0.1 0.4 0.1 0.2 0.2 0.3 0.2 0.2 0.4 0.3 0.2 0 0.4 0l2.5-0.2q0.1 0 0.2 0 0.1-0.1 0.2-0.1 0.1-0.1 0.1-0.1 0.1-0.1 0.2-0.2z"/><path fill-rule="evenodd" class="a" d="m459.7 137.6c1.5-3.1-1.6-4-3.9-3.9q-0.2 0-0.3 0.1-0.2 0.1-0.3 0.2-0.1 0.1-0.2 0.2-0.1 0.1-0.1 0.3-1.5 5.8 4.3 3.6 0-0.1 0.1-0.1 0.1-0.1 0.2-0.1 0-0.1 0.1-0.2 0 0 0.1-0.1z"/><path fill-rule="evenodd" class="a" d="m489.4 139.5q0 0 0 0.1 0 0.1 0.1 0.2 0 0.1 0.1 0.1 0.1 0.1 0.2 0.1h2.8q0.1 0 0.2 0 0.1-0.1 0.1-0.1 0.1-0.1 0.1-0.2 0-0.1 0-0.2l-1.4-3.9q0-0.1-0.1-0.2-0.1 0-0.2 0-0.2-0.1-0.3 0-0.1 0.1-0.1 0.2z"/><path fill-rule="evenodd" class="b" d="m-163-354h850v850h-850zm326 436.5c0-10.4-2.1-20.6-6-30.1-4-9.5-9.7-18.2-17-25.5-7.3-7.3-16-13-25.5-17-9.5-3.9-19.8-6-30.1-6-10.3 0-20.5 2.1-30 6-9.5 4-18.2 9.7-25.5 17-7.3 7.3-13.1 16-17 25.5-4 9.5-6 19.7-6 30.1 0 10.3 2 20.5 6 30 3.9 9.5 9.7 18.2 17 25.5 7.3 7.3 16 13.1 25.5 17 9.5 4 19.7 6 30 6 10.3 0 20.6-2 30.1-6 9.5-3.9 18.2-9.7 25.5-17 7.3-7.3 13-16 17-25.5 3.9-9.5 6-19.7 6-30zm163.7-28.3c3.2 12.2 20 13.9 29.7 16.7 1.8 0.6 5.2 2.3 5.8 3.7 4.8 11-19.8 14.3-22 0.5q0-0.2-0.1-0.3-0.1-0.2-0.2-0.3-0.2-0.1-0.3-0.2-0.2-0.1-0.4 0h-13.9q-0.2 0-0.3 0-0.2 0.1-0.4 0.2-0.1 0.2-0.2 0.4-0.1 0.2-0.1 0.4c0.2 12.6 8.1 19.6 20.1 21.8 12.1 2.2 29.8 0.4 34.4-13.8q3.3-10.4-4.1-18.7c-6.6-7.5-18.1-7.9-26.2-10.6-5.3-1.8-7.9-8-2.3-11.1 5.3-2.8 14.9-1.9 16.7 5.6q0 0.1 0.1 0.3 0.1 0.1 0.2 0.2 0.2 0.1 0.3 0.2 0.2 0 0.4 0.1h13.8q0.2 0 0.4-0.1 0.2-0.1 0.4-0.3 0.1-0.1 0.2-0.3 0-0.2 0-0.4-0.6-9-6.7-14.2c-14.7-12.6-52-5.6-45.3 20.3zm-81-10.8c-7.3-13.9-22.3-14.6-37-14.8q-8.1 0-16.2 0.1-0.2 0-0.4 0.1-0.2 0-0.3 0.2-0.1 0.1-0.2 0.3-0.1 0.2-0.1 0.4v66.2q0 0.2 0.1 0.4 0.1 0.2 0.2 0.3 0.1 0.1 0.3 0.2 0.2 0.1 0.4 0.1 8.9 0 17.8 0 12.7 0 18.1-1.6c22.1-6.2 27.2-33.1 17.3-51.9zm52.7 39.2q0.1 0.1 0.2 0.1 0 0 0.1 0 0 0.1 0 0.1 0.1 0 0.1 0.1l4.3 13.7q0 0.1 0 0.2 0 0 0.1 0 0 0.1 0.1 0.1 0 0 0.1 0h17.1q0.1 0 0.2 0 0.1-0.1 0.1-0.2 0.1 0 0.1-0.1 0-0.1 0-0.2l-22.8-67.5q0-0.1-0.1-0.1 0-0.1-0.1-0.1 0 0-0.1 0 0-0.1-0.1-0.1h-21.5q-0.1 0.1-0.1 0.1-0.1 0-0.1 0-0.1 0.1-0.1 0.1 0 0-0.1 0.1l-22.7 67.5q0 0.1 0 0.2 0 0.1 0.1 0.2 0 0 0.1 0.1 0.1 0 0.1 0h17.2q0 0 0.1 0 0 0 0.1-0.1 0 0 0 0 0.1-0.1 0.1-0.2l4.2-13.7q0.1-0.1 0.1-0.1 0 0 0.1-0.1 0 0 0.1 0 0-0.1 0.1-0.1zm106.7 0.8q-0.1 0-0.1 0-0.1-0.1-0.2-0.1 0-0.1-0.1-0.2 0 0 0-0.1v-12.9q0-0.1 0-0.2 0.1-0.1 0.1-0.1 0.1-0.1 0.2-0.1 0 0 0.1-0.1h27.7q0.1 0 0.1 0 0.1 0 0.2-0.1 0 0 0.1-0.1 0-0.1 0-0.2v-12.9q0-0.1 0-0.1-0.1-0.1-0.1-0.2-0.1 0-0.2-0.1 0 0-0.1 0h-27.7q-0.1 0-0.1 0-0.1-0.1-0.2-0.1 0-0.1-0.1-0.2 0 0 0-0.1v-12.9q0-0.1 0-0.2 0.1-0.1 0.1-0.1 0.1-0.1 0.2-0.1 0 0 0.1-0.1h30.2q0.1 0 0.1 0 0.1 0 0.2-0.1 0 0 0.1-0.1 0-0.1 0-0.2v-12.6q0-0.1 0-0.2-0.1-0.1-0.1-0.1-0.1-0.1-0.2-0.1 0 0-0.1-0.1h-46.9q-0.1 0.1-0.2 0.1-0.1 0-0.1 0.1-0.1 0-0.1 0.1 0 0.1 0 0.2v67.4q0 0.1 0 0.1 0 0.1 0.1 0.2 0 0 0.1 0.1 0.1 0 0.2 0h46.9q0.1 0 0.1 0 0.1-0.1 0.2-0.1 0-0.1 0.1-0.2 0 0 0-0.1v-12.7q0-0.1 0-0.1-0.1-0.1-0.1-0.2-0.1 0-0.2-0.1 0 0-0.1 0zm83.3-0.8q0 0.1 0.1 0.1 0 0 0.1 0 0 0 0 0.1 0.1 0 0.1 0.1l4.3 13.8q0.1 0 0.1 0.1 0 0 0.1 0 0 0.1 0.1 0.1 0 0 0.1 0h17.1q0.1 0 0.1 0 0.1-0.1 0.1-0.1 0.1-0.1 0.1-0.2 0-0.1 0-0.1l-22.8-67.6q0-0.1 0-0.1 0-0.1-0.1-0.1 0 0-0.1 0 0-0.1-0.1-0.1h-21.6q-0.1 0-0.1 0.1-0.1 0-0.1 0 0 0-0.1 0.1 0 0 0 0.1l-22.7 67.6q-0.1 0 0 0.1 0 0.1 0 0.2 0.1 0 0.1 0.1 0.1 0 0.2 0h17.1q0 0 0.1 0 0 0 0.1-0.1 0 0 0 0 0.1-0.1 0.1-0.1l4.3-13.8q0.1-0.1 0.1-0.1 0-0.1 0.1-0.1 0 0 0 0 0.1 0 0.1-0.1zm-288.1 37.9c3.5-7.2-1.9-12-9-10.8q-0.2 0-0.3 0.1-0.2 0.1-0.3 0.3-0.1 0.1-0.2 0.3 0 0.1 0 0.3v11.5q0 0.2 0 0.4 0.1 0.1 0.3 0.3 0.1 0.1 0.3 0.2 0.2 0.1 0.4 0.1l4.9-0.1q2.7-0.1 3.9-2.6zm6.7-3.1h4.3q0.1 0 0.2-0.1 0.2 0 0.2-0.1 0.1-0.1 0.2-0.2 0-0.1 0-0.3v-0.3q0-0.2-0.1-0.4 0-0.2-0.2-0.3-0.1-0.2-0.3-0.2-0.2-0.1-0.4-0.1h-3.9q-0.2 0-0.4-0.1-0.2-0.1-0.3-0.2-0.2-0.1-0.3-0.3 0-0.2 0-0.4v-1.7q0-0.2 0-0.4 0.1-0.2 0.3-0.3 0.1-0.2 0.3-0.2 0.2-0.1 0.4-0.1 1.9-0.1 3.9-0.1c1 0.1 1.6-0.3 1.3-1.4q0-0.1-0.1-0.2-0.1-0.1-0.2-0.2-0.1-0.1-0.2-0.1-0.1 0-0.2-0.1h-6.8q-0.2 0.1-0.4 0.1-0.1 0.1-0.3 0.2-0.1 0.2-0.2 0.4-0.1 0.2-0.1 0.3v11.5q0 0.2 0.1 0.4 0.1 0.2 0.2 0.3 0.1 0.2 0.3 0.2 0.2 0.1 0.4 0.1l6.7 0.1q0.1 0 0.3-0.1 0.1 0 0.2 0 0.1-0.1 0.2-0.2 0.1 0 0.1-0.1c1.5-2.1-4.6-1.4-5.3-1.5q-0.2 0-0.4-0.1-0.1 0-0.3-0.2-0.1-0.1-0.2-0.3 0-0.2 0-0.4v-1.9q0-0.2 0-0.4 0.1-0.2 0.3-0.3 0.1-0.1 0.3-0.2 0.2-0.1 0.4-0.1zm11 0.7l1.3 0.1q0.2 0 0.3 0 0.1 0 0.2 0.1 0.1 0.1 0.2 0.2 0.1 0.1 0.2 0.2l2.1 4.1q0.1 0.1 0.1 0.1 0.1 0.1 0.2 0.2 0.1 0 0.2 0.1 0.2 0 0.3 0l0.3-0.1q0.3 0 0.5-0.1 0.2-0.2 0.3-0.4 0.1-0.2 0.1-0.5 0-0.2-0.1-0.4l-1.6-3.1q-0.1-0.1-0.1-0.3-0.1-0.1 0-0.3 0-0.1 0-0.3 0.1-0.1 0.2-0.2c3.5-3.9 1.5-7.6-3.2-7.9q-1.8 0-3.6 0.2-0.2 0-0.4 0.1-0.1 0.1-0.3 0.2-0.1 0.1-0.1 0.3-0.1 0.2-0.1 0.4-0.1 5.7 0 11.4 0 1.2 1 1.1 0.2 0 0.4-0.1 0.2-0.1 0.3-0.2 0.1-0.2 0.2-0.4 0.1-0.1 0.1-0.3v-3.2q0-0.2 0.1-0.4 0-0.2 0.2-0.3 0.1-0.2 0.3-0.3 0.2 0 0.4 0zm14 0.6c0.6 1 1.8 3.9 2.8 4.4q0.5 0.2 1 0.1 0.2-0.1 0.4-0.2 0.1-0.1 0.2-0.3 0-0.2 0-0.3 0-0.2-0.1-0.4l-1.9-3.3q-0.1-0.2-0.1-0.3 0-0.2 0-0.4 0-0.1 0.1-0.3 0.1-0.1 0.2-0.2c3.3-3 2-6.9-2.2-7.7q-2.4-0.4-4.8 0-0.2 0-0.3 0.1-0.2 0.1-0.3 0.2-0.1 0.1-0.2 0.3-0.1 0.2-0.1 0.4c0 1.5-0.9 12.9 1.5 12.4q0.1 0 0.3-0.1 0.1-0.1 0.2-0.3 0.2-0.1 0.2-0.3 0.1-0.1 0.1-0.3v-3.1q0-0.2 0-0.3 0.1-0.2 0.3-0.4 0.1-0.1 0.3-0.2 0.2-0.1 0.4-0.1l1.2 0.1q0.1 0 0.2 0 0.2 0.1 0.3 0.1 0.1 0.1 0.2 0.2 0.1 0.1 0.1 0.2zm14.7 1.7l0.6 2.2q0 0.1 0.1 0.2 0.1 0.1 0.2 0.2 0.1 0.1 0.2 0.1 0.1 0.1 0.2 0.1l0.4-0.1q0.3 0.1 0.5-0.1 0.2-0.1 0.4-0.3 0.1-0.2 0.1-0.4 0.1-0.3 0-0.5l-4.1-11.3q0-0.1 0-0.1-0.1-0.1-0.1-0.2-0.1 0-0.1-0.1-0.1 0-0.1-0.1c-1.7-1.2-2.6 0.1-3.1 1.6q-1.7 4.8-3.4 9.5c-0.4 1-0.7 2.9 1.3 1.9q0.1 0 0.2-0.1 0.1-0.1 0.2-0.1 0-0.1 0.1-0.2 0-0.1 0-0.2l0.6-2q0.1-0.2 0.1-0.3 0.1-0.1 0.3-0.2 0.1-0.1 0.3-0.2 0.1 0 0.3-0.1h3.8q0.2 0.1 0.3 0.1 0.2 0.1 0.3 0.2 0.1 0.1 0.2 0.2 0.1 0.1 0.2 0.3zm16.8-5.9v7.8q0 0.2 0 0.3 0 0.1 0.1 0.2 0.1 0.1 0.2 0.2 0 0 0.2 0.1c1 0.4 1.5-0.4 1.5-1.4q0-5.5 0-11.1 0-0.2-0.1-0.3-0.1-0.2-0.2-0.4-0.2-0.1-0.4-0.2-0.2-0.1-0.4-0.1l-0.8 0.1q-0.2 0-0.3 0-0.2 0.1-0.3 0.2-0.1 0-0.2 0.1-0.1 0.2-0.1 0.3l-3.4 8.1q-0.8 1.8-1.5-0.1-1.5-3.7-3.1-7.4c-0.4-1.1-1.6-1.8-2.6-0.9q-0.1 0.1-0.2 0.1 0 0.1-0.1 0.2 0 0.1-0.1 0.2 0 0.1 0 0.3v11.3q0 0.2 0.1 0.3 0.1 0.2 0.2 0.3 0.1 0.2 0.3 0.3 0.1 0.1 0.3 0.1h0.4q0.2 0 0.3 0 0.1-0.1 0.2-0.2 0.1 0 0.2-0.2 0-0.1 0-0.2 0.1-2.3-0.2-7.6 0-0.4 0.2-0.6 0 0 0.1 0 0.1 0 0.2 0 0 0 0.1 0.1 0 0 0.1 0.1l3.2 8q1.1 2.9 2.5-0.4l3.1-7.7q0.1 0 0.1-0.1 0 0 0-0.1 0.1 0 0.1 0 0-0.1 0-0.1h0.3q0 0.1 0 0.1 0 0 0 0 0 0.1 0 0.1 0 0.1 0 0.2zm12.6 5.7c0.4 1.3 0.9 3.3 2.3 3q0.2 0 0.3-0.1 0.2-0.1 0.2-0.2 0.1-0.2 0.2-0.4 0-0.2-0.1-0.3l-4.2-11.9q0-0.1-0.1-0.3-0.1-0.1-0.3-0.2-0.1-0.1-0.2-0.1-0.2-0.1-0.4-0.1l-1 0.1q-0.2 0-0.3 0-0.2 0.1-0.3 0.2-0.1 0.1-0.2 0.2-0.1 0.1-0.1 0.2l-4.3 11.8q-0.1 0.2 0 0.4 0 0.2 0.1 0.3 0.1 0.2 0.2 0.3 0.1 0.1 0.3 0.1 0.5 0.1 0.9-0.1c0.8-0.3 1.1-1.9 1.4-2.8q0.1-0.1 0.2-0.2 0.1-0.1 0.2-0.2 0.1-0.1 0.2-0.2 0.2 0 0.3 0l3.7-0.2q0.1 0 0.3 0.1 0.2 0 0.3 0.1 0.1 0.1 0.2 0.3 0.1 0.1 0.2 0.2zm17.6 0q0.4 0.8 0.9 2 0.5 1.5 1.6 1 0.2-0.1 0.3-0.2 0.2-0.1 0.2-0.3 0.1-0.2 0.1-0.4 0-0.2-0.1-0.3l-4-11.5q-0.1-0.1-0.1-0.2 0-0.1-0.1-0.1 0-0.1-0.1-0.2-0.1 0-0.1 0c-1.3-0.9-2.4-0.4-2.9 1.1q-1.8 5-3.6 10c-0.4 1.1-0.9 2.9 1.3 1.9q0.1 0 0.2-0.1 0.1 0 0.2-0.1 0-0.1 0.1-0.2 0-0.1 0.1-0.2l0.7-2.1q0-0.1 0.1-0.2 0.1-0.2 0.2-0.3 0.2-0.1 0.3-0.1 0.2-0.1 0.3-0.1l3.5 0.1q0.2 0 0.3 0 0.1 0 0.3 0.1 0.1 0.1 0.2 0.2 0.1 0.1 0.1 0.2zm11.2-10.3q-2.4-0.6-5.1-0.2-0.2 0-0.3 0.1-0.2 0.1-0.3 0.2-0.1 0.2-0.2 0.3 0 0.2 0 0.4v11.4q0 0.2 0 0.4 0.1 0.1 0.2 0.3 0.1 0.1 0.3 0.2 0.2 0.1 0.3 0.1 2.7 0.3 5.3-0.2c6.7-1.3 6.4-11.2-0.2-13zm9.6 4.2c1.1 0 2.8 10.5 5.5 8.9q0.1 0 0.2-0.1 0 0 0.1-0.1 0 0 0.1-0.1 0-0.1 0-0.2l2.9-7.3q0.1-0.1 0.1-0.2 0.1-0.1 0.1-0.1 0.1-0.1 0.1-0.1 0.1-0.1 0.1 0c0.5 0.2 0.3 6.4 0.2 7.2q0 0.2 0.1 0.4 0.1 0.2 0.2 0.3 0.2 0.2 0.4 0.3 0.1 0 0.3 0l0.3 0.1q0.2 0 0.4-0.1 0.2-0.1 0.3-0.2 0.2-0.2 0.2-0.4 0.1-0.1 0.1-0.3v-11.5q0-0.1-0.1-0.3 0-0.2-0.2-0.4-0.1-0.1-0.3-0.2-0.2 0-0.4-0.1h-1q-0.1 0.1-0.2 0.1-0.2 0-0.3 0.1-0.1 0.1-0.2 0.2-0.1 0.1-0.2 0.3l-3.3 8q-0.7 1.8-1.5 0-1.5-3.7-3-7.4c-0.5-1.1-1.1-1.6-2.3-1.3q-0.1 0.1-0.3 0.2-0.1 0.1-0.2 0.2-0.1 0.1-0.2 0.3 0 0.1 0 0.3v11.9q0 0.1 0 0.2 0.1 0.2 0.1 0.2 0.1 0.1 0.2 0.2 0.1 0 0.2 0l0.4 0.1q0.2 0 0.4-0.1 0.2 0 0.4-0.2 0.1-0.1 0.2-0.3 0.1-0.2 0.1-0.4l-0.1-7.6q0-0.1 0-0.2 0-0.1 0.1-0.1 0-0.1 0-0.1 0-0.1 0-0.1zm16.7-3.9q0-0.1 0-0.2-0.1-0.1-0.2-0.2 0-0.1-0.1-0.1-0.1-0.1-0.3-0.1h-1.1q-0.1 0-0.2 0.1-0.1 0-0.2 0.1-0.1 0.1-0.1 0.2 0 0.1 0 0.2v12.4q0 0.1 0 0.2 0.1 0.1 0.2 0.2 0 0.1 0.1 0.1 0.1 0 0.3 0h1.1q0.1 0 0.2 0 0.1-0.1 0.2-0.1 0.1-0.1 0.1-0.2 0-0.1 0-0.2zm6.4 5.5q2.2 2.6 4.4 6.3 1.2 1.9 2.6 0.8 0.1-0.1 0.2-0.1 0-0.1 0.1-0.2 0-0.1 0.1-0.3 0-0.1 0-0.2v-11.4q0-0.2-0.1-0.4-0.1-0.2-0.2-0.3-0.1-0.2-0.3-0.2-0.2-0.1-0.4-0.1h-0.3q-0.2 0-0.3 0.1-0.2 0-0.4 0.2-0.1 0.1-0.2 0.3-0.1 0.2-0.1 0.4v6.2q0.1 2.4-1.4 0.5-2.6-3.6-5-7.3-0.6-0.8-1.6-0.4-0.2 0-0.3 0.1-0.1 0.1-0.2 0.2-0.1 0.2-0.1 0.3-0.1 0.1-0.1 0.3 0 5.5 0 11.1 0 2 1.6 1.5 0.2-0.1 0.3-0.2 0.1-0.1 0.2-0.2 0.1-0.2 0.1-0.3 0.1-0.2 0.1-0.3l-0.1-5.9q-0.1-2.3 1.4-0.5zm12.4-5.4q0-0.1-0.1-0.3 0-0.1-0.1-0.2-0.1-0.1-0.3-0.2-0.1 0-0.3 0h-0.7q-0.1 0-0.3 0-0.1 0.1-0.2 0.2-0.1 0.1-0.2 0.2 0 0.2 0 0.3v12q0 0.2 0 0.3 0.1 0.1 0.2 0.3 0.1 0.1 0.2 0.1 0.2 0.1 0.3 0.1h0.7q0.2 0 0.3-0.1 0.2 0 0.3-0.1 0.1-0.2 0.1-0.3 0.1-0.1 0.1-0.3zm3.3 5c1.3 1.6 4.7 2.2 6.8 3.2q0.3 0.1 0.4 0.3 0.2 0.3 0.2 0.5 0 0.3-0.1 0.5-0.1 0.3-0.3 0.4-3.7 2.7-6.2-0.5-1-1.3-1.7 0-0.1 0.1-0.1 0.2 0 0.1 0 0.2 0 0.2 0 0.3 0 0.1 0.1 0.2c3.1 5.4 12.9 2.4 8.9-3.7q-0.1-0.1-0.1-0.1-0.1-0.1-0.2-0.1 0-0.1-0.1-0.1-0.1-0.1-0.1-0.1l-5.2-1.8q-0.1-0.1-0.2-0.1-0.1-0.1-0.1-0.1-0.1-0.1-0.2-0.1 0-0.1-0.1-0.2c-1.5-2.6 3.3-4.1 5.1-1.2q0.1 0.1 0.3 0.2 0.1 0.2 0.3 0.2 0.2 0.1 0.4 0 0.2 0 0.4-0.1l0.3-0.2q0.1-0.1 0.2-0.2 0.1-0.1 0.1-0.2 0.1-0.2 0-0.3 0-0.1-0.1-0.2c-4-5.6-12.1-1-8.7 3.1zm14.9-2.7v9.5q0 0.2 0.1 0.3 0.1 0.2 0.2 0.3 0.1 0.2 0.2 0.3 0.1 0 0.3 0.1c2 0.5 1.2-7.1 1.3-10.5q0-0.2 0.1-0.4 0.1-0.2 0.2-0.3 0.1-0.1 0.3-0.2 0.2-0.1 0.4-0.1l2.6-0.1q0.1 0 0.2-0.1 0.2 0 0.2-0.1 0.1-0.1 0.2-0.2 0-0.2 0-0.3v-0.3q0-0.2-0.1-0.3-0.1-0.2-0.2-0.3-0.2-0.2-0.3-0.2-0.2-0.1-0.4-0.1h-8.9q-0.1 0-0.2 0-0.2 0.1-0.3 0.2 0 0.1-0.1 0.3 0 0.1 0 0.2l0.1 0.4q0 0.2 0.1 0.4 0.1 0.1 0.2 0.2 0.1 0.2 0.3 0.2 0.2 0.1 0.4 0.1h2.1q0.2 0 0.4 0.1 0.2 0 0.3 0.2 0.2 0.1 0.3 0.3 0 0.2 0 0.4zm11.5 5.5h1.5q0.1 0 0.2 0 0.2 0.1 0.3 0.1 0.1 0.1 0.2 0.2 0.1 0.1 0.2 0.3 0.9 1.9 1.8 3.7 0.6 1.1 1.6 0.9 0.2-0.1 0.4-0.3 0.1-0.1 0.2-0.3 0.1-0.3 0.1-0.5 0-0.2-0.1-0.4l-1.8-3.2q-0.1-0.1-0.1-0.3-0.1-0.1 0-0.3 0-0.2 0-0.3 0.1-0.2 0.2-0.3c3.6-3.5 1.6-7.6-3-7.8q-1.8-0.1-3.7 0.1-0.2 0-0.4 0.1-0.2 0.1-0.3 0.2-0.1 0.2-0.2 0.3 0 0.2 0 0.4c0 0.5-1 15.3 1.7 12.1q0.1-0.1 0.1-0.1 0.1-0.1 0.1-0.2 0-0.1 0-0.2 0 0 0-0.1v-3.1q0-0.2 0.1-0.4 0.1-0.2 0.2-0.3 0.2-0.2 0.4-0.2 0.1-0.1 0.3-0.1zm9.5 5q0.1 0 0.2 0 0.2-0.1 0.3-0.2 0.1 0 0.2-0.2 0.1-0.1 0.1-0.2l0.9-2.3q0.1-0.1 0.2-0.2 0.1-0.2 0.2-0.2 0.1-0.1 0.3-0.2 0.1 0 0.3 0h3.6q0.2 0 0.3 0 0.1 0.1 0.3 0.2 0.1 0.1 0.2 0.2 0.1 0.1 0.1 0.2l0.9 2.3q0 0.1 0.1 0.2 0.1 0.1 0.1 0.1 0.1 0.1 0.2 0.2 0.1 0 0.2 0.1 2.2 0.7 1.3-1.7-2.1-5.5-4.1-11.1 0-0.1-0.1-0.2-0.1-0.1-0.2-0.2-0.1-0.1-0.3-0.2-0.1 0-0.2 0l-1.1-0.1q-0.2 0-0.3 0-0.2 0.1-0.3 0.1-0.2 0.1-0.3 0.3-0.1 0.1-0.1 0.3-2.1 5.8-4.2 11.6c-0.4 1.2 0.2 1.3 1.2 1.2zm14.1-10.6q0.4 4.4 0.1 8.9-0.1 1.7 1 1.8 0.2 0 0.4-0.1 0.2-0.1 0.4-0.2 0.1-0.1 0.2-0.3 0.1-0.2 0.1-0.4v-9.6q0-0.2 0.1-0.4 0-0.2 0.2-0.3 0.1-0.2 0.3-0.2 0.2-0.1 0.4-0.1h2.3q0.2 0 0.3-0.1 0.2-0.1 0.4-0.2 0.1-0.2 0.2-0.3 0.1-0.2 0.1-0.4v-0.4q-0.1-0.1-0.1-0.2-0.1-0.1-0.1-0.2-0.1-0.1-0.2-0.2-0.2 0-0.3 0h-8.8q-0.2 0-0.3 0.1-0.2 0-0.3 0.1-0.2 0.1-0.3 0.3-0.1 0.2-0.1 0.3v0.5q-0.1 0.1 0 0.2 0 0.2 0.1 0.3 0.1 0.1 0.2 0.1 0.1 0.1 0.3 0.1h2.4q0.2 0 0.3 0.1 0.2 0 0.3 0.1 0.2 0.2 0.3 0.3 0.1 0.2 0.1 0.4zm10.7-2q0-0.2-0.1-0.4-0.1-0.1-0.2-0.3-0.1-0.1-0.3-0.2-0.2 0-0.3-0.1l-0.2 0.1q-0.2 0-0.3 0-0.2 0.1-0.3 0.2-0.2 0.2-0.2 0.3-0.1 0.2-0.1 0.4v11.9q0 0.2 0.1 0.3 0 0.2 0.2 0.3 0.1 0.2 0.3 0.2 0.1 0.1 0.3 0.1h0.2q0.1 0 0.3-0.1 0.2 0 0.3-0.2 0.1-0.1 0.2-0.3 0.1-0.1 0.1-0.3zm7.2 7.9q-1.3-3.7-2.5-7.5-0.6-2-1.9-1.1-0.2 0.1-0.3 0.2-0.1 0.1-0.1 0.3-0.1 0.1-0.1 0.3 0 0.2 0.1 0.3 1.8 5.2 3.7 10.4c0.5 1.5 1.5 2.5 3.1 1.5q0-0.1 0.1-0.1 0.1-0.1 0.1-0.2 0.1 0 0.1-0.1 0-0.1 0.1-0.1 1.9-5.4 3.8-10.8c0.4-1 0.8-2.8-1.3-1.8q-0.1 0.1-0.2 0.1-0.1 0.1-0.1 0.2-0.1 0-0.2 0.1 0 0.1 0 0.2l-2.9 8.2q-0.8 2.2-1.5-0.1zm15.2 1.9l0.7 2.2q0 0.1 0.1 0.2 0 0.1 0.1 0.2 0.1 0.1 0.3 0.1 0.1 0.1 0.2 0.1h0.4q0.3 0 0.5-0.2 0.2-0.1 0.3-0.3 0.2-0.2 0.2-0.4 0-0.3 0-0.5-2-5.3-3.9-10.6c-0.5-1.4-1.4-2.1-2.8-1.2q-0.1 0-0.2 0.1 0 0-0.1 0.1 0 0.1-0.1 0.1 0 0.1 0 0.2l-4.3 11.7q-0.1 0.1-0.1 0.3 0.1 0.2 0.2 0.4 0.1 0.1 0.2 0.2 0.2 0.1 0.3 0.1 0.9 0.2 1.4-0.9 0.5-1 1-2 0.1-0.2 0.2-0.3 0.1-0.1 0.2-0.2 0.1 0 0.2-0.1 0.2 0 0.3 0h3.8q0.1 0 0.3 0 0.1 0.1 0.3 0.2 0.1 0.1 0.2 0.2 0.1 0.2 0.1 0.3zm14.2 2.8c9.7 0 9.4-15.3-3.5-13.5q-0.2 0.1-0.3 0.2-0.2 0-0.3 0.2-0.1 0.1-0.2 0.3-0.1 0.2-0.1 0.3l0.1 11.5q0 0.2 0 0.4 0.1 0.2 0.2 0.3 0.2 0.1 0.4 0.2 0.2 0.1 0.4 0.1 1.6 0 3.3 0zm11.1-8.8v-1.7q0-0.2 0.1-0.4 0.1-0.2 0.2-0.3 0.2-0.2 0.4-0.2 0.1-0.1 0.3-0.1h4.6q0.2 0 0.3-0.1 0.2 0 0.3-0.1 0.1-0.1 0.2-0.2 0.1-0.1 0.2-0.3 0.4-1.3-1.3-1.4-3.2-0.1-6.4 0.2-0.1 0-0.3 0.1-0.2 0.1-0.3 0.2-0.1 0.2-0.2 0.4-0.1 0.1-0.1 0.3l0.1 11.4q0 0.2 0 0.4 0.1 0.2 0.2 0.3 0.2 0.1 0.4 0.2 0.2 0.1 0.4 0.1h6.4q0.1 0 0.2 0 0.2-0.1 0.3-0.1 0.1-0.1 0.2-0.1 0-0.1 0.1-0.2c1.5-2.1-4.5-1.3-5.3-1.4q-0.2 0-0.4-0.1-0.1 0-0.3-0.2-0.1-0.1-0.2-0.3-0.1-0.2-0.1-0.4v-2q0-0.2 0.1-0.3 0.1-0.2 0.2-0.4 0.2-0.1 0.4-0.2 0.1-0.1 0.3-0.1h4.1q0.2 0 0.3 0 0.2-0.1 0.4-0.2 0.1-0.1 0.2-0.3 0.1-0.1 0.1-0.3l0.1-0.4q0-0.2-0.1-0.3 0-0.1-0.1-0.2-0.1-0.1-0.2-0.2-0.1-0.1-0.3-0.1h-4.5q-0.2 0-0.3 0-0.2-0.1-0.4-0.3-0.1-0.1-0.2-0.3-0.1-0.2-0.1-0.4zm11.7 7.1q-0.1 0-0.1 0-0.1 0-0.2-0.1 0-0.1-0.1-0.1 0-0.1 0-0.2v-10.9q0-0.1 0-0.2-0.1 0-0.1-0.1-0.1 0-0.1-0.1-0.1 0-0.2 0l-1.4-0.1q-0.1-0.1-0.2 0-0.1 0-0.1 0.1-0.1 0-0.1 0.1-0.1 0.1-0.1 0.2v12.7q0 0.1 0.1 0.1 0 0.1 0.1 0.2 0 0 0.1 0.1 0.1 0 0.2 0h7.5q0 0 0.1-0.1 0.1 0 0.2-0.1 0 0 0.1-0.1 0-0.1 0-0.2l-0.3-1.1q0-0.1-0.1-0.1 0-0.1-0.1-0.2 0 0-0.1 0-0.1 0-0.1 0zm-116 9.1q0.2 0.1 0.4 0.1 0.3-0.1 0.5-0.2 0.3-0.2 0.6-0.4 0.3-0.3 0.5-0.6 0.2-0.3 0.4-0.7 0.1-0.3 0.2-0.7 0-0.3 0-0.5-0.1-0.2-0.2-0.3-0.2-0.2-0.4-0.1-0.3 0-0.6 0.1-0.2 0.2-0.5 0.5-0.3 0.2-0.5 0.6-0.3 0.3-0.4 0.6-0.2 0.4-0.2 0.7-0.1 0.3 0 0.5 0.1 0.3 0.2 0.4zm-165.7 7.5q2.3 1.3 4.6 2c4.4 1.5-1.4 6.2-4.7 1.6q-0.1 0-0.2-0.1 0-0.1-0.1-0.1-0.1 0-0.1-0.1-0.1 0-0.2 0-1.4-0.1-0.6 2.4 0 0.1 0.1 0.2 0 0.1 0.1 0.1 0 0.1 0.1 0.2 0.1 0 0.2 0.1c3.1 1.7 11.4 1.2 8.6-4.2-1-2-4.9-2.8-6.9-3.6q-0.2-0.1-0.4-0.2-0.2-0.2-0.2-0.5-0.1-0.2 0-0.4 0-0.3 0.2-0.5c2.3-2.7 4.1-1 6.4 0.4q0.1 0 0.1 0.1 0.1 0 0.2 0 0.1 0 0.2 0 0 0 0.1-0.1 0.6-0.2 0.5-0.7-0.5-1.9-2.7-2.6-4-1.3-6.4 2-1.7 2.5 1.1 4zm23.7 2.4c-1.4-5 3.9-10.1 7.3-4.5q0 0 0.1 0.1 0.1 0.1 0.1 0.1 0.1 0.1 0.2 0.1 0.1 0.1 0.2 0.1c1.6 0.5 1.3-1.4 0.7-2.1-4.2-4.6-10.1-2.6-10.9 3.2-1.1 7.4 7.8 11.6 11.4 4.5q0-0.1 0-0.2 0.1-0.1 0-0.2 0-0.1 0-0.3-0.1-0.1-0.1-0.1c-0.7-0.8-1.5-0.1-2 0.5-2.3 3-6 2.3-7-1.2zm28.6 5.1q1.2 0 2.3-0.4 1.2-0.6 2.1-1.5 0.9-1 1.4-2.2 0.5-1.3 0.5-2.7 0-1.4-0.4-2.7-0.4-1.3-1.3-2.3-0.8-1-1.9-1.5-1.1-0.6-2.3-0.6-1.3-0.1-2.4 0.4-1.1 0.5-2 1.5-0.9 0.9-1.4 2.2-0.5 1.3-0.6 2.7 0 1.4 0.4 2.7 0.5 1.2 1.3 2.3 0.8 1 1.9 1.5 1.2 0.6 2.4 0.6zm63.4-8c-1.2 7.2 7.1 11.2 11 5 0.6-0.9 0.5-2.2-1.1-1.7q-0.1 0-0.1 0-0.1 0.1-0.1 0.1-0.1 0-0.1 0.1-0.1 0-0.1 0.1l-1.8 1.9q0 0-0.1 0.1-0.1 0.1-0.2 0.1-0.1 0-0.1 0.1-0.1 0-0.2 0c-5 0.4-6.2-3.9-4.4-7.5 3-6.1 6.9 1.6 8.3 0.5q0.1 0 0.1-0.1 0.1-0.1 0.1-0.1 0.1-0.1 0.1-0.2 0-0.1 0-0.2c-0.9-6.2-10-5.2-11.3 1.8zm28.1 3.3c-1.1-2.8 0.3-7.7 4.1-7.2 1.6 0.2 2.6 1.6 3.7 2.8q0 0.1 0.1 0.1 0.1 0 0.2 0.1 0.1 0 0.2 0 0 0 0.1 0 0.6-0.2 0.6-0.8-0.2-2.5-2.6-3.5c-11.5-4.6-12.2 17.1 0.3 12.5q1.6-0.7 2.3-3 0-0.1 0-0.3 0-0.1 0-0.2-0.1-0.1-0.1-0.2-0.1-0.1-0.2-0.2c-1.3-0.9-5.9 6.5-8.7-0.1zm164.3-7.4c-6.1 7 3.8 17.6 9.3 9.1 0.6-0.9 0.6-2.1-0.9-1.7q-0.1 0-0.2 0-0.1 0.1-0.2 0.1-0.1 0.1-0.1 0.2-0.1 0.1-0.1 0.2c-3 5.4-8.5 0.4-7.2-4.4 0.9-3.5 4.7-4.7 7-1.3 0.3 0.6 1.1 1.1 1.7 0.8q0.1-0.1 0.2-0.1 0-0.1 0.1-0.2 0-0.1 0-0.2 0.1-0.1 0-0.2c-0.6-4.6-7.1-5.2-9.6-2.3zm-295.4 9.2v-2q0-0.2 0.1-0.4 0.1-0.2 0.2-0.3 0.2-0.2 0.3-0.2 0.2-0.1 0.4-0.1 1.7 0 3.4-0.1c0.9 0 2.8-0.7 1.2-1.8q-0.1 0-0.1-0.1-0.1 0-0.2 0 0 0-0.1 0-0.1 0-0.1 0h-4.1q-0.2-0.1-0.4-0.1-0.1-0.1-0.3-0.2-0.1-0.2-0.2-0.4-0.1-0.2-0.1-0.3v-2q0-0.2 0.1-0.4 0.1-0.2 0.2-0.4 0.2-0.1 0.3-0.2 0.2 0 0.4 0h5q0.1 0 0.2-0.1 0.1 0 0.2-0.1 0.1-0.1 0.1-0.2 0-0.1 0-0.2v-0.3q0-0.2-0.1-0.4-0.1-0.1-0.2-0.2-0.2-0.2-0.3-0.2-0.2-0.1-0.4-0.1h-6.7q-0.2 0-0.4 0.1-0.2 0.1-0.3 0.2-0.2 0.1-0.2 0.3-0.1 0.2-0.1 0.4v11.5q0 0.2 0.1 0.4 0 0.2 0.2 0.3 0.1 0.1 0.3 0.2 0.2 0.1 0.4 0.1h7.3q0.1 0 0.2 0 0.1-0.1 0.1-0.1 0.1-0.1 0.1-0.2 0 0 0-0.1v-0.3q0-0.2 0-0.4-0.1-0.2-0.3-0.4-0.1-0.1-0.3-0.2-0.2 0-0.4 0h-4.5q-0.2-0.1-0.4-0.1-0.1-0.1-0.3-0.2-0.1-0.2-0.2-0.4-0.1-0.2-0.1-0.3zm26-8v9.7q0 0.2 0.1 0.3 0 0.2 0.1 0.3 0.2 0.2 0.3 0.3 0.1 0 0.3 0.1 1.7 0.4 1.5-2-0.2-1.7 0-8.8 0-0.2 0.1-0.4 0.1-0.1 0.2-0.3 0.2-0.1 0.4-0.2 0.1 0 0.3 0h2.5q0.1-0.1 0.3-0.1 0.1 0 0.2-0.1 0.2-0.1 0.3-0.2 0.1-0.1 0.1-0.2c0.8-1.8-6.4-1.2-9.6-1q-1.8 0-1.1 1.1 0 0.1 0.1 0.2 0.1 0.1 0.1 0.1 0.1 0.1 0.2 0.1 0.1 0 0.3 0l2.3 0.1q0.2 0 0.4 0 0.2 0.1 0.3 0.2 0.2 0.2 0.3 0.4 0 0.2 0 0.4zm30.1 5c3.1-2.8 2-7-2-7.7q-2.2-0.4-5 0-0.1 0.1-0.3 0.1-0.2 0.1-0.3 0.3-0.1 0.1-0.2 0.3 0 0.1 0 0.3v11.3q0 0.2 0 0.4 0.1 0.2 0.2 0.3 0.2 0.1 0.3 0.2 0.2 0.1 0.4 0.1l0.2 0.1q0.2 0 0.4-0.1 0.2 0 0.4-0.2 0.2-0.1 0.2-0.3 0.1-0.2 0.1-0.4v-2.9q0-0.2 0.1-0.4 0.1-0.2 0.2-0.3 0.1-0.2 0.3-0.2 0.2-0.1 0.4-0.1l1.2-0.1q0.1 0 0.3 0 0.1 0.1 0.2 0.1 0.2 0.1 0.3 0.2 0.1 0.1 0.1 0.3c0.5 0.9 1.8 4.1 2.8 4.4q0.4 0.1 0.8 0 0.2 0 0.4-0.1 0.1-0.1 0.2-0.3 0.1-0.2 0.1-0.4 0-0.2-0.1-0.4l-1.9-3.3q-0.1-0.1-0.1-0.3 0-0.2 0-0.4 0-0.1 0.1-0.3 0.1-0.1 0.2-0.2zm12.2 0h4q0.2-0.1 0.3-0.1 0.2-0.1 0.3-0.1 0.1-0.1 0.2-0.3 0.1-0.1 0.2-0.3c1-3.6-7.9 2-6-4.5q0.1-0.2 0.2-0.3 0.1-0.1 0.2-0.2 0.1-0.1 0.3-0.2 0.1 0 0.3 0l4.7-0.1q0 0 0.1 0 0.1 0 0.2 0 0.1-0.1 0.2-0.1 0.1-0.1 0.2-0.1c1-1.1-0.5-1.5-1.3-1.5q-3.1 0-6.4 0-0.2 0-0.4 0.1-0.1 0.1-0.3 0.2-0.1 0.2-0.2 0.4-0.1 0.1-0.1 0.3v11.5q0 0.2 0.1 0.4 0.1 0.2 0.2 0.3 0.2 0.1 0.3 0.2 0.2 0.1 0.4 0.1h6.8q0.2 0 0.4-0.1 0.1 0 0.3-0.2 0.1-0.1 0.2-0.3 0.1-0.2 0.1-0.4v-0.3q0-0.1 0-0.2-0.1-0.1-0.1-0.1-0.1-0.1-0.2-0.1 0 0-0.1 0h-5.1q-0.2-0.1-0.4-0.1-0.2-0.1-0.3-0.2-0.2-0.2-0.2-0.4-0.1-0.2-0.1-0.3v-2q0-0.2 0.1-0.4 0-0.2 0.2-0.4 0.1-0.1 0.3-0.2 0.2 0 0.4 0zm15.9-7q-3.4-1.2-7-0.8-0.2 0.1-0.4 0.1-0.1 0.1-0.3 0.3-0.1 0.1-0.2 0.3 0 0.1 0 0.3v11.3q0 0.2 0 0.4 0.1 0.1 0.2 0.3 0.1 0.1 0.3 0.2 0.1 0.1 0.3 0.1 10.6 2.1 9.9-8.4-0.2-3.3-2.8-4.1zm5.6 10.1c2.4 3.1 7.7 4.2 9.8 0.6 1.3-2.3 0.7-7.9 0.7-10.9q0-0.1-0.1-0.2 0-0.1-0.1-0.2-0.1-0.1-0.2-0.2-0.1 0-0.3 0h-0.3q-0.2 0-0.4 0.1-0.2 0.1-0.3 0.2-0.1 0.1-0.2 0.3-0.1 0.2-0.1 0.4 0 2.9 0 5.8c0 3.9-1.9 6.7-6.1 3.9q-0.1 0-0.2-0.1 0-0.1-0.1-0.2 0-0.2-0.1-0.3 0-0.1 0-0.2v-8.9q0-0.2-0.1-0.4-0.1-0.2-0.2-0.3-0.2-0.2-0.4-0.2-0.2-0.1-0.4-0.1h-0.2q-0.2 0-0.4 0.1-0.2 0.1-0.3 0.2-0.1 0.2-0.2 0.3-0.1 0.2-0.1 0.4l0.1 9.3q0 0.1 0 0.1 0 0.1 0 0.2 0 0.1 0.1 0.1 0 0.1 0.1 0.2zm34.8-0.2l0.7 2.1q0 0.1 0 0.1 0.1 0.1 0.2 0.2 0 0.1 0.1 0.2 0.1 0 0.2 0.1 2.1 0.8 1.4-1.2-1.9-5.7-3.9-11.4 0 0 0-0.1-0.1-0.1-0.1-0.1-0.1-0.1-0.1-0.2-0.1 0-0.1-0.1c-1.6-1-2.5-0.2-3.1 1.4q-1.8 5.2-3.8 10.4-0.1 0.3 0 0.5 0 0.2 0.1 0.4 0.2 0.2 0.4 0.4 0.2 0.1 0.4 0.1h0.4q0.1 0 0.2 0 0.2-0.1 0.3-0.1 0.1-0.1 0.2-0.2 0-0.1 0.1-0.2l0.7-2.3q0.1-0.2 0.2-0.3 0.1-0.1 0.2-0.2 0.1-0.1 0.3-0.2 0.1 0 0.3 0h3.7q0.2 0 0.3 0 0.2 0.1 0.3 0.2 0.1 0.1 0.2 0.2 0.1 0.1 0.2 0.3zm20.2-10.2q0-0.1-0.1-0.2 0-0.1-0.1-0.1-0.1-0.1-0.2-0.1 0-0.1-0.1-0.1h-1.3q-0.1 0-0.2 0.1-0.1 0-0.1 0.1-0.1 0-0.2 0.1 0 0.1 0 0.2v12.5q0 0.1 0.1 0.2 0 0.1 0.1 0.2 0 0 0.1 0.1 0.1 0 0.2 0h1.3q0.1 0 0.2 0 0.1-0.1 0.1-0.1 0.1-0.1 0.1-0.2 0.1-0.1 0.1-0.2zm14.3 4.9q0-1.1-0.5-2.1-0.4-1-1.1-1.7-0.8-0.8-1.8-1.2-1-0.4-2-0.4h-1q-1.1 0-2.1 0.5-0.9 0.4-1.7 1.1-0.7 0.8-1.1 1.8-0.4 1-0.4 2v2.8q0 1 0.4 2 0.4 1 1.2 1.7 0.7 0.8 1.7 1.2 1 0.4 2.1 0.4h1q1 0 2-0.4 1-0.5 1.7-1.2 0.8-0.8 1.2-1.8 0.4-1 0.4-2zm5 0.9q0-2.5 1.4-0.5 2.3 3.3 4.5 6.6c0.7 1.2 2.9 2.2 2.9-0.4q-0.1-5.6-0.1-11.2 0-0.1-0.1-0.3 0-0.1-0.1-0.3-0.2-0.1-0.3-0.1-0.2-0.1-0.3-0.1h-0.5q-0.2 0-0.3 0.1-0.2 0.1-0.3 0.2-0.2 0.2-0.3 0.4 0 0.1 0 0.3v5.6q0 3.2-1.8 0.6l-4.7-6.8q0 0-0.1-0.1-0.1-0.1-0.2-0.2-0.1 0-0.2-0.1-0.2 0-0.3 0h-0.5q-0.2 0-0.4 0.1-0.1 0.1-0.3 0.2-0.1 0.2-0.2 0.3-0.1 0.2-0.1 0.4v11.5q0 0.2 0.1 0.4 0.1 0.2 0.2 0.3 0.2 0.2 0.4 0.2 0.2 0.1 0.4 0.1h0.2q0.2 0 0.4-0.1 0.2-0.1 0.3-0.2 0.1-0.1 0.2-0.3 0.1-0.2 0.1-0.4zm22.4-6q-2.4-0.7-5.1-0.2-0.2 0-0.3 0.1-0.2 0.1-0.3 0.2-0.1 0.2-0.2 0.3 0 0.2 0 0.4v11.4q0 0.2 0 0.3 0.1 0.2 0.2 0.3 0.2 0.2 0.3 0.3 0.2 0 0.4 0.1 2.5 0.3 4.9-0.2c6.7-1.4 6.9-11.2 0.1-13zm9.9 5.5q0 0-0.1-0.1-0.1 0-0.1 0-0.1-0.1-0.1-0.1 0-0.1 0-0.2v-3.3q0-0.1 0-0.1 0-0.1 0.1-0.1 0-0.1 0.1-0.1 0.1 0 0.1 0h5.5q0.1 0 0.2-0.1 0 0 0.1 0 0-0.1 0.1-0.1 0-0.1 0-0.2l0.1-1q0-0.1-0.1-0.2 0 0 0-0.1-0.1 0-0.2-0.1 0 0-0.1 0h-7.8q-0.1 0-0.2 0 0 0.1-0.1 0.1 0 0.1 0 0.1-0.1 0.1-0.1 0.2v12.8q0 0 0 0.1 0.1 0.1 0.1 0.1 0.1 0 0.1 0.1 0.1 0 0.2 0h8q0.1 0 0.2 0 0 0 0.1 0 0-0.1 0.1-0.2 0 0 0-0.1v-1.1q0-0.1 0-0.1-0.1-0.1-0.1-0.1-0.1-0.1-0.1-0.1-0.1 0-0.1 0h-6q-0.1 0-0.1-0.1-0.1 0-0.1 0-0.1-0.1-0.1-0.2 0 0 0-0.1l0.1-3.3q0-0.1 0.1-0.1 0-0.1 0-0.1 0.1-0.1 0.1-0.1 0.1 0 0.2 0h5.2q0.1 0 0.1-0.1 0.1 0 0.2 0 0-0.1 0-0.1 0.1-0.1 0.1-0.2v-1.3q0-0.1-0.1-0.1 0-0.1 0-0.1-0.1-0.1-0.2-0.1 0 0-0.1 0zm16.7 4.2h3.6q0.2 0 0.3 0.1 0.2 0 0.3 0.1 0.1 0 0.2 0.2 0.1 0.1 0.2 0.2c0.4 1 0.8 3.6 2.5 2.9q0.2-0.1 0.3-0.2 0.1-0.1 0.1-0.3 0.1-0.1 0.1-0.2 0-0.2 0-0.3l-4.2-11.7q-0.1-0.2-0.2-0.3-0.1-0.1-0.2-0.2-0.1-0.1-0.3-0.2-0.1 0-0.3 0h-1.2q-0.1 0-0.3 0-0.1 0.1-0.2 0.2-0.2 0.1-0.3 0.2-0.1 0.1-0.1 0.3l-4.1 11.7q-0.1 0.2-0.1 0.4 0 0.2 0.1 0.3 0.1 0.2 0.3 0.3 0.1 0.1 0.3 0.1c1.7 0.2 1.8-1.8 2.3-2.9q0-0.2 0.1-0.3 0.1-0.1 0.2-0.2 0.1-0.1 0.3-0.1 0.1-0.1 0.3-0.1zm15-9.9q-2.1-0.4-4.4 0-0.2 0-0.4 0.1-0.1 0.1-0.2 0.2-0.2 0.1-0.2 0.3-0.1 0.2-0.1 0.4v11.6q0 0.2 0.1 0.3 0 0.2 0.2 0.3 0.1 0.1 0.2 0.2 0.2 0 0.3 0h0.5q0.2 0 0.3-0.1 0.2 0 0.4-0.2 0.1-0.1 0.2-0.3 0.1-0.2 0.1-0.4v-2.7q0-0.2 0-0.4 0.1-0.1 0.2-0.3 0.2-0.1 0.4-0.2 0.1-0.1 0.3-0.1l3.6-0.2q0.1 0 0.2 0 0.1 0 0.2-0.1 0 0 0.1 0 0.1-0.1 0.1-0.1c3.6-3.2 2.6-7.5-2.1-8.3zm9 12.9c9.8 3.8 8.1-6.8 8.2-12.1q0-0.1 0-0.3-0.1-0.1-0.2-0.2 0-0.2-0.2-0.2-0.1-0.1-0.2-0.2c-3.8-1.6 2.6 16.2-7.3 10.9q-0.2-0.1-0.3-0.2-0.1-0.1-0.1-0.2-0.1-0.1-0.1-0.2-0.1-0.2-0.1-0.3v-9q0-0.2-0.1-0.4 0-0.1-0.2-0.3-0.1-0.1-0.3-0.2-0.2-0.1-0.4-0.1h-0.3q-0.2 0-0.4 0.1-0.2 0.1-0.3 0.2-0.1 0.2-0.2 0.4-0.1 0.1-0.1 0.3l0.2 8.8q0 2.2 2.4 3.2zm19.1-5.1q3.4-3.7-0.2-7.4-0.1 0-0.1-0.1-0.1 0-0.2-0.1-0.1 0-0.2 0-0.1-0.1-0.1-0.1l-6-0.2q-0.2 0-0.4 0-0.2 0.1-0.4 0.2-0.1 0.2-0.2 0.4-0.1 0.2-0.1 0.4v11.9q0 0.1 0.1 0.2 0 0.1 0.1 0.2 0.1 0.1 0.2 0.2 0.1 0 0.3 0h0.3q0.2 0 0.4-0.1 0.2 0 0.3-0.2 0.2-0.1 0.2-0.3 0.1-0.2 0.1-0.4v-3q0-0.2 0.1-0.4 0.1-0.1 0.2-0.3 0.2-0.1 0.3-0.2 0.2-0.1 0.4-0.1h1.3q0.2 0 0.3 0.1 0.1 0 0.2 0.1 0.2 0 0.3 0.1 0 0.1 0.1 0.2l2.1 3.9q0 0.2 0.1 0.3 0.1 0.1 0.2 0.1 0.1 0.1 0.3 0.1 0.1 0.1 0.2 0.1h0.6q0.2 0 0.4-0.1 0.1-0.1 0.2-0.3 0.2-0.2 0.2-0.4 0-0.2-0.1-0.4l-1.7-3.3q0-0.2 0-0.3-0.1-0.2-0.1-0.3 0.1-0.2 0.1-0.3 0.1-0.1 0.2-0.2zm6.1-7.2q0-0.2 0-0.3-0.1-0.1-0.2-0.2-0.1-0.1-0.2-0.1-0.1-0.1-0.2-0.1h-1q-0.1 0-0.2 0.1-0.2 0-0.3 0.1 0 0.1-0.1 0.2 0 0.1 0 0.3v12.2q0 0.1 0 0.2 0.1 0.2 0.1 0.2 0.1 0.1 0.3 0.2 0.1 0 0.2 0h1q0.1 0 0.2 0 0.1-0.1 0.2-0.2 0.1 0 0.2-0.2 0-0.1 0-0.2zm14.5 7.4q0.1 2 0 4.1c0 0.9 0.5 2 1.5 1.4q0.1-0.1 0.2-0.1 0.1-0.1 0.2-0.3 0.1-0.1 0.1-0.2 0-0.1 0-0.3v-11.6q0-0.2-0.1-0.4 0-0.2-0.2-0.4-0.1-0.1-0.3-0.2-0.2 0-0.4 0h-0.9q-0.1 0-0.3 0-0.1 0.1-0.2 0.2-0.1 0-0.2 0.2-0.1 0.1-0.2 0.2l-3.2 8q-0.8 1.9-1.5 0-1.4-3.7-2.9-7.3c-0.6-1.3-1.3-1.7-2.6-1.3q-0.2 0-0.3 0.1-0.1 0.1-0.2 0.2-0.1 0.2-0.2 0.3 0 0.2 0 0.3v11.8q0 0.1 0 0.3 0.1 0.1 0.2 0.2 0.1 0.1 0.3 0.2 0.1 0.1 0.3 0.1l0.5-0.1q0.1 0 0.3 0 0.2-0.1 0.3-0.3 0.2-0.1 0.2-0.3 0.1-0.2 0.1-0.4v-7q0 0 0 0 0-0.1 0.1-0.1 0 0 0 0 0.1-0.1 0.1-0.1c1.4-0.2 2.5 10 5.3 8.1q0.1-0.1 0.1-0.1 0.1-0.1 0.1-0.1 0.1-0.1 0.1-0.1 0-0.1 0.1-0.2l2.1-5.1q1.5-3.7 1.5 0.3zm12.8 2.6l0.7 2.1q0 0.1 0.1 0.2 0 0.1 0.1 0.2 0.1 0.1 0.2 0.1 0.1 0.1 0.2 0.1 2.2 0.9 1.4-1.4-2-5.6-3.9-11.2-0.1-0.1-0.2-0.2-0.1-0.1-0.2-0.2-0.1-0.1-0.3-0.2-0.1 0-0.3 0l-1.2-0.1q-0.1 0-0.3 0.1-0.2 0-0.3 0.1-0.1 0.1-0.2 0.2-0.1 0.1-0.2 0.3-1.9 5.6-3.9 11.2c-0.4 1-0.3 2.5 1.3 1.6q0.1 0 0.2-0.1 0-0.1 0.1-0.1 0-0.1 0.1-0.2 0 0 0.1-0.1l0.9-2.4q0.1-0.1 0.2-0.3 0.1-0.1 0.2-0.2 0.1-0.1 0.2-0.1 0.2 0 0.3 0h3.8q0.1 0 0.3 0 0.1 0.1 0.2 0.1 0.2 0.1 0.3 0.3 0.1 0.1 0.1 0.2z"/><path fill-rule="evenodd" class="c" d="m163 82.5c0 10.3-2.1 20.5-6 30-4 9.5-9.7 18.2-17 25.5-7.3 7.3-16 13.1-25.5 17-9.5 4-19.8 6-30.1 6-10.3 0-20.5-2-30-6-9.5-3.9-18.2-9.7-25.5-17-7.3-7.3-13.1-16-17-25.5-4-9.5-6-19.7-6-30 0-10.4 2-20.6 6-30.1 3.9-9.5 9.7-18.2 17-25.5 7.3-7.3 16-13 25.5-17 9.5-3.9 19.7-6 30-6 10.3 0 20.6 2.1 30.1 6 9.5 4 18.2 9.7 25.5 17 7.3 7.3 13 16 17 25.5 3.9 9.5 6 19.7 6 30.1zm-82.6-30.3c1.1 0.4 2.4 0.7 3.7 0.6 1.2 0 2.5-0.4 3.7-0.9 1.2-0.6 2.3-1.4 3.3-2.5 0.9-1 1.7-2.2 2.2-3.5 0.5-1.3 0.8-2.6 0.9-4 0-1.4-0.2-2.8-0.6-4-0.4-1.3-1.1-2.4-2-3.4-0.8-0.9-1.9-1.6-3-2.1-1.2-0.5-2.5-0.7-3.7-0.7-1.3 0.1-2.6 0.4-3.8 1-1.2 0.6-2.3 1.4-3.2 2.4-1 1-1.7 2.2-2.3 3.5-0.5 1.3-0.8 2.7-0.9 4.1 0 1.4 0.2 2.7 0.6 4 0.5 1.2 1.1 2.4 2 3.3 0.9 1 1.9 1.7 3.1 2.2zm-31.4 17.8c1.2 0.5 2.4 0.7 3.7 0.6 1.3 0 2.6-0.4 3.8-0.9 1.2-0.6 2.3-1.5 3.2-2.5 0.9-1 1.7-2.2 2.2-3.5 0.5-1.3 0.8-2.7 0.9-4.1 0-1.4-0.2-2.7-0.7-4-0.4-1.3-1.1-2.4-2-3.3-0.9-0.9-1.9-1.7-3.1-2.1-1.2-0.5-2.4-0.7-3.7-0.6-1.3 0-2.5 0.4-3.7 0.9-1.2 0.6-2.3 1.5-3.3 2.5-0.9 1-1.6 2.2-2.2 3.5-0.5 1.3-0.8 2.7-0.8 4.1-0.1 1.4 0.2 2.7 0.6 4 0.5 1.3 1.2 2.4 2 3.3 0.9 0.9 2 1.7 3.1 2.1zm63 0.1c1.2 0.4 2.4 0.6 3.7 0.6 1.3-0.1 2.5-0.5 3.7-1.1 1.2-0.6 2.3-1.4 3.2-2.5 0.9-1 1.7-2.2 2.2-3.5 0.5-1.3 0.8-2.7 0.8-4.1 0-1.4-0.2-2.8-0.7-4-0.5-1.3-1.2-2.4-2.1-3.3-0.8-0.9-1.9-1.6-3.1-2.1-1.1-0.4-2.4-0.6-3.7-0.5-1.2 0-2.5 0.4-3.7 1-1.2 0.6-2.3 1.5-3.2 2.5-0.9 1-1.6 2.2-2.2 3.6-0.5 1.3-0.7 2.7-0.8 4 0 1.4 0.3 2.8 0.7 4 0.5 1.3 1.2 2.4 2.1 3.3 0.9 0.9 1.9 1.6 3.1 2.1zm-17-10.6q0-0.1 0-0.2-0.1-0.1-0.1-0.1-0.1-0.1-0.2-0.2-0.1 0-0.2 0h-20q-0.1 0-0.2 0-0.1 0.1-0.2 0.2 0 0-0.1 0.1 0 0.1 0 0.2v63.3q0 0 0 0.1 0.1 0.1 0.1 0.2 0.1 0.1 0.2 0.1 0.1 0 0.2 0.1h20q0.1-0.1 0.2-0.1 0.1 0 0.2-0.1 0-0.1 0.1-0.2 0-0.1 0-0.1zm-31.5 17.7q0-0.1 0-0.2-0.1-0.1-0.2-0.2 0 0-0.1-0.1-0.1 0-0.2 0h-20q-0.1 0-0.2 0-0.1 0.1-0.1 0.1-0.1 0.1-0.2 0.2 0 0.1 0 0.2v45.5q0 0.1 0 0.2 0.1 0.1 0.2 0.1 0 0.1 0.1 0.2 0.1 0 0.2 0h20q0.1 0 0.2 0 0.1-0.1 0.1-0.2 0.1 0 0.2-0.1 0-0.1 0-0.2zm62.8-0.1q-0.1-0.1-0.1-0.2 0-0.1-0.1-0.1 0-0.1-0.1-0.1-0.1 0-0.2 0h-20.1q-0.1 0-0.2 0-0.1 0-0.1 0.1-0.1 0-0.1 0.1 0 0.1 0 0.2v45.6q0 0.1 0 0.2 0 0.1 0.1 0.1 0 0.1 0.1 0.1 0.1 0 0.2 0.1h20.1q0.1-0.1 0.2-0.1 0.1 0 0.1-0.1 0.1 0 0.1-0.1 0-0.1 0.1-0.2z"/><path class="c" d="m356.4 70.9c-9.7-2.8-26.5-4.5-29.7-16.7-6.7-25.8 30.6-32.8 45.3-20.2q6.1 5.2 6.7 14.2 0 0.2 0 0.4-0.1 0.2-0.2 0.3-0.2 0.2-0.4 0.3-0.2 0.1-0.4 0h-13.8q-0.2 0-0.4 0-0.1-0.1-0.3-0.2-0.1-0.1-0.2-0.2-0.1-0.2-0.1-0.3c-1.8-7.5-11.4-8.4-16.7-5.6-5.6 3.1-3 9.3 2.3 11.1 8.1 2.7 19.6 3.1 26.2 10.6q7.4 8.3 4.1 18.7c-4.6 14.2-22.3 16-34.4 13.8-12-2.2-19.9-9.2-20.1-21.8q0-0.2 0.1-0.4 0.1-0.2 0.2-0.4 0.2-0.1 0.4-0.2 0.1 0 0.3-0.1h13.9q0.2 0 0.4 0.1 0.1 0.1 0.3 0.2 0.1 0.1 0.2 0.3 0.1 0.1 0.1 0.3c2.2 13.8 26.8 10.5 22-0.5-0.6-1.4-4-3.1-5.8-3.7z"/><path fill-rule="evenodd" class="c" d="m208.7 28.8c14.7 0.1 29.7 0.8 37 14.7 9.9 18.8 4.8 45.7-17.3 51.9q-5.4 1.6-18.1 1.6-8.9 0-17.8 0-0.2 0-0.4-0.1-0.2-0.1-0.3-0.2-0.1-0.1-0.2-0.3-0.1-0.2-0.1-0.4v-66.2q0-0.2 0.1-0.4 0.1-0.2 0.2-0.3 0.1-0.2 0.3-0.2 0.2-0.1 0.4-0.1 8.1-0.1 16.2 0zm13 53.4c16.3-2.3 16.6-36 0-38.6q-5.8-0.9-12.7-0.6-0.2 0-0.4 0.1-0.2 0.1-0.3 0.2-0.2 0.2-0.2 0.3-0.1 0.2-0.1 0.4v37.7q0 0.2 0.1 0.4 0 0.2 0.2 0.3 0.1 0.1 0.3 0.2 0.2 0.1 0.4 0.1 6.4 0.3 12.7-0.5z"/><path fill-rule="evenodd" class="c" d="m298.4 82.8h-22.9q-0.1-0.1-0.1 0-0.1 0-0.1 0-0.1 0.1-0.1 0.1 0 0-0.1 0.1l-4.2 13.8q0 0-0.1 0.1 0 0 0 0-0.1 0.1-0.1 0.1-0.1 0-0.1 0h-17.2q0 0-0.1 0-0.1-0.1-0.1-0.1-0.1-0.1-0.1-0.2 0-0.1 0-0.2l22.8-67.5q0-0.1 0-0.1 0 0 0.1-0.1 0 0 0.1 0 0 0 0.1 0h21.5q0.1-0.1 0.1 0 0.1 0 0.1 0 0.1 0 0.1 0.1 0.1 0 0.1 0.1l22.8 67.5q0 0.1 0 0.2 0 0.1-0.1 0.1 0 0.1-0.1 0.2-0.1 0-0.2 0h-17.1q-0.1 0-0.1 0-0.1 0-0.1-0.1-0.1 0-0.1 0 0-0.1 0-0.1l-4.3-13.8q0-0.1-0.1-0.1 0 0 0-0.1-0.1 0-0.1 0-0.1 0-0.2 0zm-19-13.2q0 0.1 0 0.1 0 0.1 0.1 0.2 0 0 0.1 0.1 0 0 0.1 0h14.5q0.1 0 0.2 0 0-0.1 0.1-0.1 0-0.1 0-0.2 0 0 0-0.1l-7.2-23.2q-0.1-0.1-0.2-0.1 0-0.1-0.1-0.1-0.1 0-0.2 0.1-0.1 0-0.1 0.1z"/><path class="c" d="m405.2 83.5h30.1q0.1 0 0.2 0 0.1 0.1 0.1 0.1 0.1 0.1 0.1 0.2 0 0 0 0.1l0.1 12.7q-0.1 0.1-0.1 0.1 0 0.1-0.1 0.2 0 0-0.1 0.1-0.1 0-0.2 0h-46.9q-0.1 0-0.1 0-0.1-0.1-0.2-0.1 0-0.1-0.1-0.2 0 0 0-0.1v-67.4q0-0.1 0-0.2 0.1-0.1 0.1-0.1 0.1-0.1 0.2-0.1 0 0 0.1 0h46.9q0.1 0 0.2 0 0.1 0 0.1 0.1 0.1 0 0.1 0.1 0 0.1 0 0.2l0.1 12.6q-0.1 0.1-0.1 0.2 0 0.1-0.1 0.1 0 0.1-0.1 0.1-0.1 0-0.2 0.1h-30.1q-0.1 0-0.2 0-0.1 0-0.1 0.1-0.1 0-0.1 0.1 0 0.1 0 0.2v12.9q0 0.1 0 0.1 0 0.1 0.1 0.2 0 0 0.1 0.1 0.1 0 0.2 0h27.6q0.1 0 0.2 0 0.1 0.1 0.1 0.1 0.1 0.1 0.1 0.2 0 0 0 0.1l0.1 12.9q-0.1 0.1-0.1 0.2 0 0.1-0.1 0.1 0 0.1-0.1 0.1-0.1 0-0.2 0.1h-27.6q-0.1 0-0.2 0-0.1 0-0.1 0.1-0.1 0-0.1 0.1 0 0.1 0 0.2v12.9q0 0.1 0 0.1 0 0.1 0.1 0.2 0 0 0.1 0.1 0.1 0 0.2 0z"/><path fill-rule="evenodd" class="c" d="m488.5 82.8h-23q0 0-0.1 0 0 0 0 0-0.1 0-0.1 0.1 0 0-0.1 0.1l-4.3 13.8q0 0-0.1 0.1 0 0 0 0-0.1 0.1-0.1 0.1-0.1 0-0.1 0h-17.1q-0.1 0-0.2 0 0-0.1-0.1-0.1 0-0.1 0-0.2-0.1-0.1 0-0.1l22.7-67.6q0-0.1 0-0.1 0.1-0.1 0.1-0.1 0 0 0.1 0 0-0.1 0.1-0.1h21.6q0.1 0 0.1 0.1 0.1 0 0.1 0 0.1 0 0.1 0.1 0 0 0 0.1l22.8 67.6q0 0 0 0.1 0 0.1-0.1 0.2 0 0-0.1 0.1 0 0-0.1 0h-17.1q-0.1 0-0.1 0-0.1 0-0.1-0.1-0.1 0-0.1 0 0-0.1-0.1-0.1l-4.3-13.8q0-0.1-0.1-0.1 0-0.1 0-0.1-0.1 0-0.1 0-0.1 0-0.1 0zm-19-13.2q-0.1 0.1 0 0.2 0 0 0 0.1 0.1 0 0.1 0.1 0.1 0 0.2 0h14.5q0 0 0.1 0 0.1-0.1 0.1-0.1 0.1-0.1 0.1-0.2 0 0-0.1-0.1l-7.2-23.1q-0.1-0.1-0.2-0.2 0-0.1-0.1-0.1-0.1 0-0.2 0.1-0.1 0.1-0.1 0.2z"/><path class="b" d="m75.6 38.6c2.3-5.4 8.1-8.2 13-6.2 4.8 2 7 8.1 4.7 13.5-2.3 5.5-8 8.3-12.9 6.3-4.9-2.1-7-8.1-4.8-13.6z"/><path class="b" d="m221.7 43.6c16.6 2.6 16.3 36.3 0 38.6q-6.3 0.8-12.8 0.5-0.1 0-0.3-0.1-0.2-0.1-0.3-0.2-0.2-0.1-0.2-0.3-0.1-0.2-0.1-0.4v-37.7q0-0.2 0.1-0.4 0-0.1 0.2-0.3 0.1-0.1 0.3-0.2 0.2-0.1 0.4-0.1 6.9-0.3 12.7 0.6z"/><path class="b" d="m279.4 69.6l7.3-23.2q0-0.1 0.1-0.1 0.1-0.1 0.2-0.1 0.1 0 0.1 0.1 0.1 0 0.2 0.1l7.2 23.2q0 0.1 0 0.1 0 0.1 0 0.2-0.1 0-0.1 0.1-0.1 0-0.2 0h-14.5q-0.1 0-0.1 0-0.1-0.1-0.1-0.1-0.1-0.1-0.1-0.2 0 0 0-0.1z"/><path class="b" d="m469.5 69.6l7.2-23.1q0-0.1 0.1-0.2 0.1-0.1 0.2-0.1 0.1 0 0.1 0.1 0.1 0.1 0.2 0.2l7.2 23.1q0.1 0.1 0.1 0.1 0 0.1-0.1 0.2 0 0-0.1 0.1-0.1 0-0.2 0h-14.4q-0.1 0-0.2 0 0-0.1-0.1-0.1 0-0.1 0-0.1-0.1-0.1 0-0.2z"/><path class="b" d="m44.1 56.5c2.2-5.5 8-8.3 12.9-6.3 4.9 1.9 7.1 8 4.9 13.5-2.2 5.5-8 8.3-12.9 6.3-4.9-1.9-7.1-8-4.9-13.5z"/><path class="b" d="m106.9 56.7c2.2-5.6 7.9-8.5 12.8-6.6 5 1.9 7.2 7.9 5.1 13.5-2.2 5.5-7.9 8.4-12.8 6.5-4.9-1.9-7.2-7.9-5.1-13.4z"/><path class="b" d="m74 59.5c0-0.3 0.2-0.5 0.5-0.5h20c0.3 0 0.5 0.2 0.5 0.5v63.3c0 0.2-0.2 0.5-0.5 0.5h-20c-0.3 0-0.5-0.3-0.5-0.5z"/><path class="b" d="m42.5 77.3c0-0.3 0.2-0.5 0.5-0.5h20c0.3 0 0.5 0.2 0.5 0.5v45.4c0 0.3-0.2 0.6-0.5 0.6h-20c-0.3 0-0.5-0.3-0.5-0.6z"/><path class="b" d="m105.3 77.2c0-0.3 0.1-0.5 0.4-0.5h20.1c0.3 0 0.5 0.2 0.5 0.5v45.6c0 0.3-0.2 0.4-0.5 0.4h-20.1c-0.3 0-0.4-0.1-0.4-0.4z"/><path fill-rule="evenodd" class="c" d="m191.3 109.8c7.1-1.2 12.5 3.6 9.1 10.8q-1.3 2.5-4 2.6l-4.9 0.1q-0.2 0-0.4-0.1-0.2-0.1-0.3-0.2-0.1-0.2-0.2-0.3-0.1-0.2-0.1-0.4v-11.5q0-0.2 0.1-0.3 0-0.2 0.1-0.3 0.1-0.2 0.3-0.3 0.2-0.1 0.3-0.1zm2.3 11.7c7.6 0.9 7.8-11 0-9.7q-0.2 0-0.3 0.1-0.2 0.1-0.3 0.2-0.1 0.1-0.2 0.3 0 0.2-0.1 0.4v7.7q0.1 0.2 0.1 0.3 0.1 0.2 0.2 0.3 0.1 0.2 0.3 0.3 0.1 0 0.3 0.1z"/><path class="c" d="m206 118.5v1.9q0 0.2 0.1 0.4 0 0.2 0.2 0.3 0.1 0.2 0.3 0.2 0.1 0.1 0.3 0.1c0.7 0.1 6.9-0.6 5.4 1.5q-0.1 0.1-0.2 0.1-0.1 0.1-0.2 0.2-0.1 0-0.2 0-0.1 0.1-0.2 0.1l-6.8-0.1q-0.2 0-0.3-0.1-0.2 0-0.4-0.2-0.1-0.1-0.2-0.3 0-0.2-0.1-0.4v-11.4q0.1-0.2 0.1-0.4 0.1-0.2 0.2-0.4 0.2-0.1 0.4-0.2 0.2 0 0.3 0h6.8q0.1 0 0.2 0 0.2 0 0.3 0.1 0.1 0.1 0.1 0.2 0.1 0.1 0.2 0.2c0.3 1.1-0.4 1.5-1.3 1.5q-2-0.1-4 0-0.2 0-0.4 0.1-0.2 0-0.3 0.2-0.2 0.1-0.2 0.3-0.1 0.2-0.1 0.4v1.7q0 0.2 0.1 0.4 0.1 0.2 0.2 0.3 0.1 0.1 0.3 0.2 0.2 0.1 0.4 0.1h4q0.2 0 0.3 0.1 0.2 0 0.4 0.2 0.1 0.1 0.2 0.3 0 0.2 0 0.4l0.1 0.3q0 0.2-0.1 0.3 0 0.1-0.1 0.2-0.1 0.1-0.2 0.1-0.2 0.1-0.3 0.1h-4.3q-0.2 0-0.4 0.1-0.2 0.1-0.3 0.2-0.1 0.1-0.2 0.3-0.1 0.2-0.1 0.4z"/><path fill-rule="evenodd" class="c" d="m217 119.2v3.2q0 0.2-0.1 0.3 0 0.2-0.2 0.4-0.1 0.1-0.3 0.2-0.1 0.1-0.3 0.1-1.1 0.1-1.1-1.1 0-5.7 0-11.4 0-0.2 0.1-0.4 0.1-0.2 0.2-0.3 0.1-0.1 0.3-0.2 0.1-0.1 0.3-0.1 1.8-0.2 3.7-0.2c4.6 0.3 6.7 4 3.1 7.9q-0.1 0.1-0.1 0.2-0.1 0.2-0.1 0.3 0 0.2 0 0.3 0 0.2 0.1 0.3l1.6 3.1q0.1 0.2 0.1 0.4 0 0.3-0.1 0.5-0.1 0.2-0.3 0.4-0.2 0.1-0.5 0.1l-0.3 0.1q-0.1 0-0.2 0-0.1-0.1-0.2-0.1-0.2-0.1-0.2-0.2-0.1 0-0.2-0.1l-2.1-4.1q-0.1-0.1-0.1-0.2-0.1-0.1-0.2-0.2-0.2-0.1-0.3-0.1-0.1 0-0.2 0l-1.3-0.1q-0.3 0-0.4 0-0.2 0.1-0.4 0.3-0.1 0.1-0.2 0.3-0.1 0.2-0.1 0.4zm0.1-6.8c-3 10.4 13-1 0.9-0.8q-0.1 0.1-0.3 0.1-0.1 0.1-0.3 0.2-0.1 0.1-0.2 0.2-0.1 0.1-0.1 0.3z"/><path fill-rule="evenodd" class="c" d="m231.2 118.3h-1.2q-0.2-0.1-0.4 0-0.2 0.1-0.3 0.2-0.1 0.2-0.2 0.4-0.1 0.1-0.1 0.4v3q0 0.2-0.1 0.3 0 0.2-0.1 0.3-0.1 0.2-0.3 0.3-0.1 0.1-0.3 0.1c-2.4 0.5-1.4-10.9-1.4-12.4q0-0.2 0-0.4 0.1-0.2 0.2-0.3 0.1-0.1 0.3-0.2 0.1-0.1 0.3-0.1 2.5-0.4 4.8 0c4.2 0.8 5.6 4.7 2.3 7.7q-0.2 0.1-0.2 0.2-0.1 0.2-0.2 0.3 0 0.2 0 0.4 0.1 0.1 0.2 0.3l1.9 3.3q0.1 0.2 0.1 0.4 0 0.1-0.1 0.3-0.1 0.2-0.2 0.3-0.2 0.1-0.3 0.2-0.6 0.1-1.1-0.1c-0.9-0.5-2.2-3.4-2.7-4.4q-0.1-0.1-0.2-0.2-0.1-0.1-0.2-0.2-0.1 0-0.2-0.1-0.1 0-0.3 0zm-2.1-5.9c-2.6 10.5 12.6-1.1 0.9-0.7q-0.1 0-0.3 0-0.1 0.1-0.3 0.2-0.1 0.1-0.2 0.2-0.1 0.2-0.1 0.3z"/><path fill-rule="evenodd" class="c" d="m245.7 119.8h-3.8q-0.2 0-0.3 0-0.2 0.1-0.3 0.2-0.1 0.1-0.2 0.2-0.1 0.1-0.2 0.3l-0.5 2q0 0.1-0.1 0.2 0 0.1-0.1 0.2-0.1 0-0.2 0.1-0.1 0.1-0.1 0.1c-2.1 1-1.8-0.9-1.4-1.9q1.8-4.7 3.4-9.5c0.5-1.5 1.4-2.8 3.1-1.6q0.1 0.1 0.1 0.1 0.1 0.1 0.1 0.1 0.1 0.1 0.1 0.2 0 0 0.1 0.1l4 11.3q0.1 0.2 0.1 0.5-0.1 0.2-0.2 0.4-0.2 0.2-0.4 0.3-0.2 0.2-0.4 0.2h-0.4q-0.2 0-0.3-0.1-0.1 0-0.2-0.1-0.1-0.1-0.2-0.2-0.1-0.1-0.1-0.2l-0.6-2.2q-0.1-0.2-0.1-0.3-0.1-0.1-0.3-0.2-0.1-0.1-0.3-0.2-0.1 0-0.3 0zm-3.6-2.2q-0.1 0.1 0 0.1 0 0.1 0 0.2 0.1 0 0.1 0.1 0.1 0 0.2 0h3q0 0 0.1-0.1 0.1 0 0.1-0.1 0.1 0 0.1-0.1 0-0.1 0-0.2l-1.6-4.3q0-0.1-0.1-0.2-0.1 0-0.2 0-0.1 0-0.2 0-0.1 0.1-0.1 0.2z"/><path class="c" d="m263.5 114.3h-0.3q0-0.1 0 0 0 0 0 0 0 0.1-0.1 0.1 0 0.1 0 0.1l-3.2 7.7q-1.3 3.3-2.5 0.4l-3.2-8q0-0.1-0.1-0.1 0-0.1-0.1-0.1-0.1 0-0.2 0 0 0-0.1 0-0.2 0.2-0.2 0.6 0.3 5.3 0.3 7.6-0.1 0.1-0.1 0.2-0.1 0.2-0.2 0.2-0.1 0.1-0.2 0.2-0.1 0-0.2 0h-0.4q-0.2 0-0.4-0.1-0.2-0.1-0.3-0.3-0.1-0.1-0.2-0.3-0.1-0.1 0-0.3v-11.3q-0.1-0.2 0-0.3 0-0.1 0-0.2 0.1-0.1 0.2-0.2 0 0 0.1-0.1c1.1-0.9 2.2-0.2 2.7 0.9q1.6 3.7 3 7.4 0.8 1.9 1.5 0.1l3.4-8.1q0.1-0.1 0.1-0.3 0.1-0.1 0.3-0.1 0.1-0.1 0.2-0.2 0.2 0 0.3 0h0.9q0.2-0.1 0.4 0 0.1 0.1 0.3 0.2 0.1 0.2 0.2 0.4 0.1 0.1 0.1 0.4 0 5.5 0 11c0 1-0.5 1.8-1.5 1.4q-0.1-0.1-0.2-0.1-0.1-0.1-0.2-0.2 0-0.1-0.1-0.2 0-0.1 0-0.3v-7.8q0-0.1 0-0.2 0 0 0-0.1 0 0 0 0 0 0 0 0z"/><path fill-rule="evenodd" class="c" d="m275.1 119.6l-3.6 0.2q-0.2 0-0.3 0-0.2 0.1-0.3 0.2-0.1 0.1-0.2 0.2-0.1 0.1-0.2 0.3c-0.3 0.8-0.5 2.4-1.4 2.7q-0.4 0.2-0.9 0.1-0.1 0-0.3-0.1-0.1-0.1-0.2-0.3-0.1-0.1-0.1-0.3 0-0.2 0-0.4l4.3-11.8q0.1-0.1 0.1-0.2 0.1-0.1 0.3-0.2 0.1-0.1 0.2-0.2 0.2 0 0.3 0h1.1q0.1-0.1 0.3 0 0.1 0 0.3 0.1 0.1 0.1 0.2 0.2 0.1 0.2 0.2 0.3l4.1 11.9q0.1 0.1 0.1 0.3 0 0.2-0.1 0.4-0.1 0.1-0.3 0.2-0.1 0.1-0.3 0.1c-1.3 0.3-1.9-1.7-2.3-3q0-0.1-0.1-0.2-0.1-0.2-0.3-0.3-0.1-0.1-0.3-0.1-0.1-0.1-0.3-0.1zm-3.7-2.1q0 0.1 0 0.2 0 0.1 0.1 0.1 0 0.1 0.1 0.1 0.1 0.1 0.2 0.1h3.1q0.1 0 0.2 0 0.1-0.1 0.1-0.1 0.1-0.1 0.1-0.2 0-0.1 0-0.1l-1.6-4.2q0-0.1-0.1-0.2-0.1-0.1-0.2-0.1-0.1 0-0.2 0.1-0.1 0.1-0.2 0.2z"/><path fill-rule="evenodd" class="c" d="m292.9 119.8h-3.5q-0.2-0.1-0.3 0-0.2 0-0.3 0.1-0.2 0.1-0.2 0.3-0.1 0.1-0.2 0.2l-0.7 2.1q0 0.1-0.1 0.2 0 0.1-0.1 0.2-0.1 0.1-0.2 0.1-0.1 0.1-0.2 0.1c-2.1 1-1.6-0.8-1.2-1.9q1.8-5 3.6-10c0.5-1.4 1.5-2 2.8-1.1q0.1 0 0.1 0 0.1 0.1 0.1 0.2 0.1 0 0.1 0.1 0.1 0.1 0.1 0.2l4.1 11.5q0 0.1 0 0.3 0 0.2 0 0.4-0.1 0.2-0.2 0.3-0.2 0.1-0.3 0.2-1.1 0.5-1.7-1-0.5-1.2-0.8-2-0.1-0.1-0.2-0.2-0.1-0.1-0.2-0.2-0.1-0.1-0.3-0.1-0.1 0-0.2 0zm-3.5-2.3q-0.1 0.1-0.1 0.2 0.1 0.1 0.1 0.1 0 0.1 0.1 0.1 0.1 0.1 0.2 0.1h3q0.1 0 0.2 0 0-0.1 0.1-0.1 0-0.1 0.1-0.2 0 0-0.1-0.1l-1.4-4.3q0-0.1-0.1-0.2-0.1-0.1-0.2-0.1-0.1 0-0.2 0.1-0.1 0.1-0.2 0.2z"/><path fill-rule="evenodd" class="c" d="m304.9 110c6.7 1.8 6.9 11.7 0.2 13q-2.5 0.5-5.2 0.2-0.2 0-0.4-0.1-0.1-0.1-0.2-0.2-0.2-0.2-0.2-0.3-0.1-0.2-0.1-0.4v-11.4q0-0.2 0.1-0.4 0-0.1 0.1-0.3 0.2-0.1 0.3-0.2 0.2-0.1 0.3-0.1 2.7-0.4 5.1 0.2zm0.7 2.2q-1.4-0.7-3.4-0.5-0.2 0-0.4 0.1-0.2 0.1-0.3 0.2-0.1 0.2-0.2 0.3 0 0.2 0 0.4v7.7q0 0.2 0 0.4 0.1 0.2 0.2 0.3 0.1 0.1 0.3 0.2 0.1 0.1 0.3 0.1c6.2 0.9 7.7-7.2 3.5-9.2z"/><path class="c" d="m314.5 114.7v7.6q0 0.2-0.1 0.4-0.1 0.2-0.2 0.3-0.2 0.2-0.4 0.2-0.2 0.1-0.4 0.1l-0.3-0.1q-0.1 0-0.2 0-0.2-0.1-0.2-0.2-0.1 0-0.2-0.2 0-0.1 0-0.2v-11.9q0-0.2 0.1-0.3 0-0.2 0.1-0.3 0.1-0.1 0.2-0.2 0.2-0.1 0.3-0.2c1.2-0.3 1.8 0.2 2.3 1.3q1.5 3.7 3.1 7.4 0.7 1.8 1.5 0l3.3-8q0-0.2 0.1-0.3 0.1-0.1 0.2-0.2 0.1-0.1 0.3-0.1 0.1 0 0.3-0.1h1q0.1 0.1 0.3 0.1 0.2 0.1 0.4 0.2 0.1 0.2 0.2 0.4 0 0.2 0.1 0.3v11.5q-0.1 0.2-0.1 0.3-0.1 0.2-0.2 0.4-0.2 0.1-0.4 0.2-0.2 0.1-0.4 0.1l-0.2-0.1q-0.2 0-0.4 0-0.2-0.1-0.3-0.3-0.2-0.1-0.2-0.3-0.1-0.2-0.1-0.4c0-0.8 0.2-7-0.3-7.2q0-0.1 0 0-0.1 0-0.1 0.1-0.1 0-0.1 0.1-0.1 0.1-0.1 0.2l-2.9 7.3q-0.1 0.1-0.1 0.2 0 0.1-0.1 0.1 0 0.1-0.1 0.1-0.1 0.1-0.2 0.1c-2.7 1.6-4.4-8.9-5.4-8.9q-0.1 0-0.1 0.1 0 0 0 0.1 0 0 0 0.1 0 0.1 0 0.2z"/><path class="c" d="m329 110.3c0-0.3 0.2-0.6 0.6-0.6h1.1c0.3 0 0.5 0.3 0.5 0.6l0.1 12.4c0 0.3-0.3 0.5-0.6 0.5h-1.1c-0.3 0-0.6-0.2-0.6-0.5z"/><path class="c" d="m336.2 116.3l0.1 6q0 0.1 0 0.3-0.1 0.1-0.2 0.2-0.1 0.2-0.2 0.3-0.1 0.1-0.3 0.1-1.6 0.6-1.6-1.4 0-5.6 0-11.1 0-0.2 0.1-0.3 0-0.2 0.1-0.3 0.1-0.1 0.2-0.2 0.1-0.1 0.3-0.2 1-0.4 1.6 0.5 2.4 3.7 5 7.2 1.5 2 1.5-0.5v-6.1q0-0.2 0-0.4 0.1-0.2 0.2-0.4 0.2-0.1 0.4-0.2 0.1 0 0.3 0h0.3q0.2 0 0.4 0 0.2 0.1 0.3 0.2 0.1 0.2 0.2 0.4 0.1 0.2 0.1 0.4v11.4q0 0.1 0 0.2-0.1 0.1-0.1 0.2-0.1 0.1-0.1 0.2-0.1 0.1-0.2 0.2-1.4 1.1-2.6-0.8-2.2-3.7-4.4-6.4-1.5-1.8-1.4 0.5z"/><path class="c" d="m347.8 110.5c0-0.4 0.3-0.8 0.7-0.8h0.7c0.5 0 0.8 0.4 0.8 0.8v12c0 0.4-0.3 0.7-0.8 0.7h-0.7c-0.4 0-0.7-0.3-0.7-0.7z"/><path class="c" d="m353.3 115.5c-3.4-4.2 4.7-8.8 8.7-3.2q0.1 0.1 0.1 0.3 0.1 0.1 0 0.2 0 0.2-0.1 0.3 0 0.1-0.2 0.1l-0.3 0.3q-0.2 0.1-0.4 0.1-0.2 0-0.4 0-0.2-0.1-0.3-0.2-0.2-0.1-0.3-0.3c-1.8-2.9-6.6-1.3-5.1 1.3q0.1 0.1 0.1 0.1 0.1 0.1 0.2 0.1 0 0.1 0.1 0.1 0.1 0.1 0.2 0.1l5.2 1.9q0 0 0.1 0 0.1 0.1 0.2 0.1 0 0.1 0.1 0.1 0 0.1 0.1 0.2c4 6.1-5.8 9-8.9 3.7q-0.1-0.1-0.1-0.2 0-0.2 0-0.3 0-0.1 0-0.2 0-0.2 0.1-0.3 0.7-1.2 1.7 0.1 2.5 3.2 6.2 0.5 0.2-0.2 0.3-0.4 0.1-0.3 0.1-0.5 0-0.3-0.2-0.5-0.1-0.2-0.4-0.3c-2.1-1.1-5.5-1.7-6.8-3.2z"/><path class="c" d="m367.3 111.8h-2.2q-0.2-0.1-0.4-0.1-0.2-0.1-0.3-0.2-0.1-0.1-0.2-0.3-0.1-0.1-0.1-0.3l-0.1-0.4q0-0.1 0-0.3 0.1-0.1 0.2-0.2 0-0.1 0.2-0.2 0.1 0 0.2 0h8.9q0.2-0.1 0.4 0 0.1 0.1 0.3 0.2 0.1 0.1 0.2 0.3 0.1 0.2 0.1 0.4v0.3q0 0.1 0 0.2-0.1 0.1-0.2 0.2 0 0.1-0.2 0.2-0.1 0-0.2 0l-2.6 0.2q-0.2 0-0.4 0-0.2 0.1-0.3 0.3-0.1 0.1-0.2 0.3-0.1 0.1-0.1 0.3c-0.1 3.5 0.7 11-1.3 10.6q-0.2-0.1-0.3-0.2-0.1-0.1-0.2-0.2-0.1-0.1-0.2-0.3 0-0.2-0.1-0.3v-9.5q0-0.2 0-0.4-0.1-0.2-0.2-0.4-0.2-0.1-0.4-0.2-0.2 0-0.4 0z"/><path fill-rule="evenodd" class="c" d="m378.8 119.3l-0.1 3q0.1 0.1 0 0.2 0 0.1 0 0.2 0 0.1-0.1 0.1 0 0.1-0.1 0.2c-2.6 3.2-1.7-11.7-1.7-12.1q0-0.2 0-0.4 0.1-0.2 0.2-0.3 0.1-0.1 0.3-0.2 0.2-0.1 0.4-0.1 1.9-0.2 3.8-0.1c4.5 0.2 6.5 4.3 3 7.8q-0.2 0.1-0.2 0.3-0.1 0.1-0.1 0.3-0.1 0.1 0 0.3 0 0.2 0.1 0.3l1.8 3.1q0.1 0.2 0.1 0.5 0 0.2-0.1 0.4-0.1 0.2-0.2 0.4-0.2 0.1-0.4 0.2-1 0.3-1.6-0.8-0.9-1.9-1.8-3.8-0.1-0.1-0.2-0.2-0.1-0.1-0.2-0.2-0.1-0.1-0.3-0.1-0.1-0.1-0.2 0h-1.5q-0.1 0-0.3 0-0.2 0.1-0.4 0.2-0.1 0.2-0.2 0.4 0 0.2-0.1 0.4zm5.1-4.2c1.2-3.1-1.7-3.6-4.1-3.4q-0.1 0-0.3 0.1-0.1 0.1-0.2 0.2-0.1 0.1-0.2 0.2-0.1 0.1-0.1 0.3-1.4 6.3 4.5 3.1 0 0 0.1-0.1 0.1 0 0.1-0.1 0.1 0 0.1-0.1 0.1-0.1 0.1-0.2z"/><path fill-rule="evenodd" class="c" d="m389.2 123.3c-1 0-1.6-0.1-1.2-1.2q2.1-5.8 4.2-11.7 0-0.1 0.1-0.3 0.1-0.1 0.3-0.2 0.1-0.1 0.3-0.1 0.1-0.1 0.3 0h1.1q0.1 0.1 0.3 0.1 0.1 0.1 0.2 0.1 0.1 0.1 0.2 0.2 0.1 0.2 0.1 0.3 2 5.5 4.1 11.1 0.9 2.3-1.3 1.6-0.1 0-0.2-0.1-0.1 0-0.2-0.1 0-0.1-0.1-0.2-0.1-0.1-0.1-0.2l-0.9-2.2q0-0.2-0.1-0.3-0.1-0.1-0.2-0.2-0.1-0.1-0.3-0.1-0.1 0-0.3 0h-3.6q-0.2-0.1-0.3 0-0.2 0-0.3 0.1-0.1 0.1-0.2 0.2-0.1 0.1-0.2 0.3l-0.9 2.3q0 0.1-0.1 0.2-0.1 0.1-0.2 0.2-0.1 0.1-0.3 0.1-0.1 0.1-0.2 0.1zm2.6-5.8q0 0.1 0 0.2 0 0.1 0 0.1 0.1 0.1 0.1 0.2 0.1 0 0.2 0h3q0.1 0 0.2 0 0.1-0.1 0.1-0.1 0.1-0.1 0.1-0.2 0-0.1 0-0.1l-1.5-4.2q-0.1-0.1-0.2-0.1 0-0.1-0.1-0.1-0.2 0-0.2 0-0.1 0.1-0.2 0.2z"/><path class="c" d="m402.3 111.8h-2.4q-0.2-0.1-0.3-0.1-0.1-0.1-0.2-0.2-0.1-0.1-0.1-0.2-0.1-0.2 0-0.3v-0.4q0.1-0.2 0.1-0.3 0.1-0.2 0.3-0.3 0.1-0.1 0.3-0.2 0.1-0.1 0.3 0h8.8q0.1 0 0.3 0 0.1 0 0.2 0.1 0.1 0.1 0.1 0.2 0.1 0.1 0.1 0.3v0.3q0 0.2-0.1 0.4-0.1 0.2-0.2 0.4-0.2 0.1-0.3 0.2-0.2 0-0.4 0.1h-2.3q-0.2 0-0.4 0-0.2 0.1-0.3 0.2-0.1 0.2-0.2 0.4-0.1 0.2-0.1 0.4v9.5q0 0.2-0.1 0.4-0.1 0.2-0.2 0.4-0.2 0.1-0.4 0.2-0.2 0-0.4 0-1.1-0.1-1-1.8 0.3-4.4-0.1-8.9 0-0.1-0.1-0.3-0.1-0.2-0.2-0.3-0.2-0.1-0.4-0.2-0.1 0-0.3 0z"/><path class="c" d="m412 110.6c0-0.5 0.4-0.9 0.9-0.9h0.2c0.5 0 0.9 0.4 0.9 0.9v11.9c0 0.6-0.4 1-0.9 1h-0.2c-0.5 0-0.9-0.4-0.9-1z"/><path class="c" d="m422.7 118.6l2.9-8.1q0-0.1 0-0.2 0.1-0.1 0.2-0.2 0 0 0.1-0.1 0.1-0.1 0.2-0.1c2.1-1 1.7 0.7 1.3 1.8q-1.9 5.4-3.8 10.7-0.1 0.1-0.1 0.2 0 0-0.1 0.1 0 0.1-0.1 0.1-0.1 0.1-0.1 0.1c-1.6 1-2.6 0-3.1-1.4q-1.9-5.2-3.7-10.4-0.1-0.2-0.1-0.3 0-0.2 0.1-0.4 0-0.1 0.1-0.2 0.1-0.2 0.3-0.3 1.3-0.8 1.9 1.2 1.3 3.7 2.5 7.5 0.7 2.2 1.5 0z"/><path fill-rule="evenodd" class="c" d="m435.5 119.8h-3.8q-0.1-0.1-0.3 0-0.1 0-0.2 0.1-0.1 0.1-0.2 0.2-0.1 0.1-0.2 0.2-0.5 1.1-1 2.1-0.5 1-1.3 0.9-0.2 0-0.4-0.1-0.1-0.1-0.2-0.3-0.1-0.1-0.1-0.3-0.1-0.2 0-0.4l4.3-11.7q0 0 0-0.1 0.1-0.1 0.1-0.1 0.1-0.1 0.1-0.2 0.1 0 0.2-0.1c1.4-0.9 2.3-0.1 2.8 1.3q2 5.3 3.9 10.6 0 0.2 0 0.5 0 0.2-0.2 0.4-0.1 0.2-0.3 0.3-0.2 0.1-0.5 0.1h-0.4q-0.1 0-0.2 0-0.1-0.1-0.2-0.1-0.2-0.1-0.2-0.2-0.1-0.1-0.1-0.3l-0.7-2.1q0-0.2-0.1-0.3-0.1-0.2-0.2-0.2-0.2-0.1-0.3-0.2-0.2 0-0.3 0zm-1.6-6.6q-0.1-0.1-0.2-0.2-0.1 0-0.2 0-0.1 0-0.2 0-0.1 0.1-0.1 0.2l-1.5 4.4q-0.1 0-0.1 0.1 0.1 0.1 0.1 0.2 0.1 0 0.1 0.1 0.1 0 0.2 0h3q0.1 0 0.2 0 0.1-0.1 0.1-0.1 0.1-0.1 0.1-0.2 0-0.1 0-0.2z"/><path fill-rule="evenodd" class="c" d="m447.1 109.8c12.9-1.9 13.2 13.5 3.5 13.5q-1.7-0.1-3.3 0-0.2 0-0.4-0.1-0.2-0.1-0.3-0.2-0.2-0.2-0.3-0.4 0-0.1 0-0.3l-0.1-11.5q0-0.2 0.1-0.4 0.1-0.1 0.2-0.3 0.1-0.1 0.3-0.2 0.1-0.1 0.3-0.1zm6.2 2.3l-3.7-0.4q-0.2 0-0.4 0.1-0.2 0-0.4 0.2-0.1 0.1-0.2 0.3-0.1 0.2-0.1 0.4v7.9q0 0.2 0.1 0.4 0.1 0.1 0.2 0.3 0.2 0.1 0.3 0.2 0.2 0.1 0.4 0.1 7.8-0.3 4.6-8.8 0-0.2-0.1-0.3-0.1-0.1-0.2-0.2-0.1-0.1-0.2-0.1-0.2-0.1-0.3-0.1z"/><path class="c" d="m462.8 115.5h4.4q0.2 0 0.3 0.1 0.1 0 0.2 0.1 0.1 0.1 0.1 0.3 0.1 0.1 0.1 0.2l-0.1 0.4q0 0.2-0.1 0.4-0.1 0.1-0.2 0.3-0.2 0.1-0.3 0.1-0.2 0.1-0.4 0.1h-4.1q-0.1 0-0.3 0.1-0.2 0.1-0.4 0.2-0.1 0.1-0.2 0.3 0 0.2-0.1 0.4v2q0.1 0.2 0.1 0.4 0.1 0.1 0.2 0.3 0.2 0.1 0.3 0.2 0.2 0.1 0.4 0.1c0.8 0 6.8-0.7 5.3 1.3q0 0.1-0.1 0.2-0.1 0.1-0.2 0.1-0.1 0.1-0.3 0.1-0.1 0-0.2 0h-6.4q-0.2 0-0.4 0-0.2-0.1-0.3-0.2-0.2-0.2-0.3-0.4 0-0.2 0-0.4l-0.1-11.3q0-0.2 0.1-0.4 0.1-0.2 0.2-0.3 0.1-0.1 0.3-0.2 0.2-0.1 0.3-0.1 3.3-0.3 6.4-0.2 1.7 0.1 1.3 1.4-0.1 0.1-0.2 0.2-0.1 0.2-0.2 0.3-0.1 0.1-0.3 0.1-0.1 0-0.3 0l-4.6 0.1q-0.1 0-0.3 0-0.2 0.1-0.4 0.2-0.1 0.2-0.2 0.4 0 0.2-0.1 0.4v1.7q0.1 0.2 0.1 0.4 0.1 0.2 0.2 0.3 0.2 0.1 0.4 0.2 0.2 0.1 0.3 0.1z"/><path class="c" d="m473.4 121.6l5-0.3q0 0 0.1 0 0.1 0.1 0.1 0.1 0.1 0.1 0.1 0.1 0.1 0.1 0.1 0.1l0.3 1.1q0 0.1 0 0.2-0.1 0.1-0.1 0.2-0.1 0.1-0.2 0.1 0 0.1-0.1 0.1h-7.5q-0.1-0.1-0.2-0.1-0.1 0-0.1-0.1-0.1 0-0.1-0.1 0-0.1 0-0.2v-12.7q-0.1-0.1 0-0.1 0-0.1 0.1-0.2 0 0 0.1-0.1 0.1 0 0.2 0l1.4 0.2q0.1 0 0.2 0 0 0 0.1 0.1 0 0 0.1 0.1 0 0.1 0 0.2v10.9q0 0 0 0.1 0.1 0.1 0.1 0.2 0.1 0 0.2 0 0 0.1 0.1 0.1z"/><path class="b" d="m218 111.6c12.1-0.2-3.9 11.2-0.9 0.8q0-0.2 0.1-0.3 0.1-0.1 0.2-0.2 0.2-0.1 0.3-0.2 0.2 0 0.3-0.1z"/><path class="b" d="m230 111.7c11.7-0.4-3.5 11.2-0.9 0.7q0-0.1 0.1-0.3 0.1-0.1 0.2-0.2 0.2-0.1 0.3-0.2 0.2 0 0.3 0z"/><path class="b" d="m193.6 111.8c7.8-1.3 7.6 10.6 0 9.7q-0.2-0.1-0.3-0.1-0.2-0.1-0.3-0.3-0.1-0.1-0.2-0.3 0-0.1 0-0.3v-7.7q0-0.2 0-0.4 0.1-0.2 0.2-0.3 0.1-0.1 0.3-0.2 0.1-0.1 0.3-0.1z"/><path class="b" d="m305.6 112.2c4.2 2 2.7 10.1-3.5 9.2q-0.2 0-0.3-0.1-0.2-0.1-0.3-0.2-0.1-0.1-0.2-0.3 0-0.2-0.1-0.4v-7.7q0.1-0.2 0.1-0.4 0.1-0.1 0.2-0.3 0.1-0.1 0.3-0.2 0.2-0.1 0.3-0.1 2.1-0.2 3.5 0.5z"/><path class="b" d="m379.8 111.7c2.3-0.2 5.2 0.3 4 3.4q0 0.1-0.1 0.2 0 0.1-0.1 0.1 0 0.1-0.1 0.1-0.1 0.1-0.1 0.1-5.9 3.2-4.5-3.1 0-0.2 0.1-0.3 0.1-0.1 0.2-0.2 0.1-0.1 0.2-0.2 0.2-0.1 0.3-0.1z"/><path class="b" d="m453.3 112.1q0.1 0 0.3 0.1 0.1 0 0.2 0.1 0.1 0.1 0.2 0.2 0.1 0.1 0.1 0.3 3.3 8.5-4.6 8.8-0.2 0-0.4-0.1-0.1-0.1-0.3-0.2-0.1-0.2-0.2-0.3-0.1-0.2-0.1-0.4v-7.9q0-0.2 0.1-0.4 0.1-0.2 0.2-0.3 0.2-0.2 0.4-0.2 0.2-0.1 0.4-0.1z"/><path class="b" d="m242.1 117.6l1.4-4.4q0-0.1 0.1-0.2 0.1 0 0.2 0 0.1 0 0.2 0 0.1 0.1 0.1 0.2l1.6 4.3q0 0.1 0 0.2 0 0.1-0.1 0.1 0 0.1-0.1 0.1-0.1 0.1-0.1 0.1h-3q-0.1 0-0.2 0 0-0.1-0.1-0.1 0-0.1 0-0.2-0.1 0 0-0.1z"/><path class="b" d="m433.9 113.2l1.5 4.4q0 0 0 0.1 0 0.1-0.1 0.2 0 0-0.1 0.1-0.1 0-0.2 0h-3q-0.1 0-0.2 0 0-0.1-0.1-0.1 0-0.1-0.1-0.2 0-0.1 0.1-0.2l1.5-4.3q0-0.1 0.1-0.2 0.1 0 0.2 0 0.1 0 0.2 0 0.1 0.1 0.2 0.2z"/><path class="b" d="m271.4 117.5l1.7-4.1q0-0.1 0.1-0.2 0.1-0.1 0.2-0.1 0.1 0 0.2 0.1 0.1 0.1 0.1 0.2l1.6 4.2q0 0 0 0.1 0 0.1-0.1 0.2 0 0-0.1 0.1-0.1 0-0.2 0h-3.1q-0.1 0-0.2-0.1-0.1 0-0.1-0.1-0.1 0-0.1-0.1 0-0.1 0.1-0.2z"/><path class="b" d="m289.4 117.5l1.5-4.2q0.1-0.1 0.2-0.2 0.1-0.1 0.2-0.1 0.1 0 0.2 0.1 0.1 0.1 0.1 0.2l1.4 4.3q0.1 0.1 0.1 0.1-0.1 0.1-0.1 0.2-0.1 0-0.1 0.1-0.1 0-0.2 0h-3q-0.1 0-0.2-0.1-0.1 0-0.1-0.1 0 0-0.1-0.1 0-0.1 0.1-0.2z"/><path class="b" d="m391.8 117.5l1.5-4.1q0.1-0.1 0.2-0.2 0 0 0.2 0 0.1 0 0.1 0.1 0.1 0 0.2 0.1l1.5 4.2q0 0 0 0.1 0 0.1-0.1 0.2 0 0-0.1 0.1-0.1 0-0.2 0h-3q-0.1 0-0.2 0 0-0.1-0.1-0.2 0 0 0-0.1 0-0.1 0-0.2z"/><path class="c" d="m357.9 128.5c0.6-1 1.5-1.5 1.9-1.1 0.5 0.3 0.3 1.3-0.3 2.2-0.7 0.9-1.6 1.4-2 1.1-0.5-0.3-0.3-1.3 0.4-2.2z"/><path class="c" d="m191.7 138.2q-2.7-1.5-1-4 2.3-3.3 6.4-2 2.2 0.7 2.6 2.6 0.1 0.4-0.4 0.7-0.1 0.1-0.2 0.1 0 0-0.1 0-0.1 0-0.2 0-0.1-0.1-0.1-0.1c-2.3-1.4-4.1-3.1-6.4-0.4q-0.2 0.2-0.3 0.5 0 0.2 0 0.4 0.1 0.3 0.3 0.5 0.1 0.1 0.4 0.2c2 0.8 5.9 1.6 6.9 3.6 2.8 5.4-5.5 5.9-8.7 4.2q0-0.1-0.1-0.1-0.1-0.1-0.2-0.2 0 0-0.1-0.1 0-0.1 0-0.2-0.8-2.5 0.6-2.4 0.1 0 0.1 0 0.1 0.1 0.2 0.1 0.1 0 0.1 0.1 0.1 0.1 0.1 0.1c3.4 4.6 9.2-0.1 4.8-1.6q-2.3-0.7-4.7-2z"/><path class="c" d="m222.8 136.1c-3.4-5.6-8.7-0.5-7.3 4.5 0.9 3.5 4.7 4.2 6.9 1.2 0.5-0.7 1.4-1.3 2-0.5q0.1 0 0.2 0.1 0 0.2 0 0.3 0 0.1 0 0.2 0 0.1-0.1 0.2c-3.5 7.1-12.4 2.9-11.4-4.5 0.9-5.8 6.8-7.8 11-3.2 0.6 0.7 0.9 2.6-0.8 2.1q-0.1 0-0.1-0.1-0.1 0-0.2-0.1-0.1 0-0.1-0.1-0.1-0.1-0.1-0.1z"/><path fill-rule="evenodd" class="c" d="m244 145.7q-1.2 0-2.3-0.6-1.1-0.5-1.9-1.5-0.9-1.1-1.3-2.3-0.4-1.3-0.4-2.7 0-1.4 0.5-2.7 0.5-1.3 1.4-2.2 0.9-1 2.1-1.5 1.1-0.5 2.3-0.4 1.3 0 2.4 0.6 1.1 0.5 1.9 1.5 0.9 1 1.3 2.3 0.4 1.3 0.4 2.7-0.1 1.4-0.6 2.7-0.5 1.2-1.4 2.2-0.8 0.9-2 1.5-1.1 0.4-2.4 0.4zm0.3-2q0.8 0 1.5-0.3 0.7-0.4 1.3-1.1 0.5-0.8 0.8-1.7 0.3-0.9 0.3-1.9 0-1-0.3-1.9-0.3-0.9-0.9-1.6-0.6-0.7-1.3-1.1-0.7-0.4-1.5-0.4-0.8 0-1.5 0.4-0.7 0.4-1.3 1.1-0.5 0.7-0.8 1.7-0.3 0.9-0.3 1.9 0 1 0.3 1.9 0.3 0.9 0.9 1.6 0.5 0.7 1.3 1.1 0.7 0.4 1.5 0.3z"/><path class="c" d="m318.4 142.7c-3.8 6.2-12.1 2.2-10.9-5 1.2-7.1 10.4-8 11.2-1.8q0.1 0.1 0 0.2 0 0.1 0 0.2 0 0-0.1 0.1 0 0.1-0.1 0.1c-1.4 1.1-5.3-6.6-8.3-0.5-1.8 3.6-0.7 7.9 4.3 7.5q0.1 0 0.2 0 0.1-0.1 0.2-0.1 0.1 0 0.2-0.1 0-0.1 0.1-0.1l1.7-1.9q0.1-0.1 0.1-0.1 0.1-0.1 0.1-0.1 0.1 0 0.2-0.1 0 0 0.1 0c1.6-0.5 1.6 0.8 1.1 1.7z"/><path class="c" d="m335.6 141c2.8 6.6 7.3-0.8 8.6 0.1q0.1 0.1 0.2 0.2 0.1 0.1 0.2 0.2 0 0.1 0 0.2 0 0.2 0 0.3-0.7 2.3-2.4 3c-12.4 4.6-11.8-17.1-0.2-12.5q2.3 0.9 2.5 3.5 0.1 0.6-0.5 0.8-0.1 0-0.2 0-0.1 0-0.2 0 0-0.1-0.1-0.1-0.1 0-0.2-0.1c-1.1-1.2-2-2.6-3.7-2.8-3.8-0.5-5.1 4.4-4 7.2z"/><path class="c" d="m509.2 142.7c-5.6 8.5-15.4-2.1-9.3-9.1 2.5-2.9 9-2.3 9.6 2.3q0 0.1 0 0.2 0 0.1-0.1 0.2 0 0.1-0.1 0.2 0 0-0.1 0.1c-0.6 0.3-1.4-0.2-1.7-0.8-2.3-3.4-6.1-2.2-7.1 1.3-1.3 4.8 4.3 9.8 7.2 4.4q0.1-0.1 0.1-0.2 0.1-0.1 0.2-0.2 0.1 0 0.2-0.1 0.1 0 0.2 0c1.5-0.4 1.4 0.8 0.9 1.7z"/><path class="c" d="m205.5 143.8l4.5-0.1q0.2 0.1 0.4 0.1 0.2 0.1 0.3 0.2 0.1 0.2 0.2 0.4 0.1 0.2 0.1 0.3v0.4q0 0.1 0 0.1-0.1 0.1-0.1 0.2-0.1 0-0.2 0.1 0 0-0.1 0h-7.3q-0.2 0-0.4-0.1-0.2-0.1-0.4-0.2-0.1-0.1-0.2-0.3 0-0.2-0.1-0.4v-11.5q0.1-0.2 0.1-0.4 0.1-0.2 0.2-0.3 0.2-0.1 0.4-0.2 0.2-0.1 0.3-0.1h6.8q0.2 0 0.3 0.1 0.2 0 0.4 0.2 0.1 0.1 0.2 0.2 0.1 0.2 0.1 0.4v0.3q0 0.1 0 0.2-0.1 0.1-0.1 0.2-0.1 0.1-0.2 0.1-0.1 0.1-0.2 0h-5q-0.2 0.1-0.4 0.1-0.2 0.1-0.3 0.2-0.1 0.2-0.2 0.4-0.1 0.2-0.1 0.3v2q0 0.2 0.1 0.4 0.1 0.2 0.2 0.4 0.1 0.1 0.3 0.2 0.2 0 0.4 0h4q0.1 0.1 0.2 0.1 0 0 0.1 0 0.1 0 0.1 0 0.1 0.1 0.2 0.1c1.5 1.1-0.4 1.8-1.3 1.8q-1.7 0-3.3 0.1-0.2 0-0.4 0.1-0.2 0-0.3 0.2-0.1 0.1-0.2 0.3-0.1 0.2-0.1 0.4v1.9q0 0.2 0.1 0.4 0.1 0.2 0.2 0.4 0.1 0.1 0.3 0.2 0.2 0 0.4 0z"/><path class="c" d="m229.5 133.8l-2.4-0.1q-0.1 0-0.2 0-0.1 0-0.2-0.1-0.1 0-0.2-0.1 0-0.1-0.1-0.2-0.6-1.1 1.2-1.2c3.2-0.1 10.4-0.7 9.6 1.1q-0.1 0.1-0.2 0.2-0.1 0.1-0.2 0.2-0.1 0.1-0.2 0.1-0.2 0-0.3 0h-2.5q-0.2 0.1-0.4 0.1-0.1 0.1-0.3 0.2-0.1 0.2-0.2 0.3-0.1 0.2-0.1 0.4-0.2 7.1 0 8.8 0.1 2.4-1.5 2-0.2-0.1-0.3-0.1-0.2-0.1-0.3-0.3-0.1-0.1-0.1-0.3-0.1-0.1-0.1-0.3v-9.8q0-0.1-0.1-0.3-0.1-0.2-0.2-0.4-0.1-0.1-0.3-0.2-0.2 0-0.4-0.1z"/><path fill-rule="evenodd" class="c" d="m260.4 141l1.9 3.3q0.1 0.2 0.1 0.4 0 0.2-0.1 0.4-0.1 0.2-0.2 0.3-0.2 0.1-0.4 0.1-0.4 0.1-0.8 0c-1-0.3-2.3-3.5-2.8-4.4q-0.1-0.2-0.2-0.3-0.1-0.1-0.2-0.2-0.1 0-0.3-0.1-0.1 0-0.3 0l-1.2 0.1q-0.2 0-0.3 0.1-0.2 0-0.3 0.2-0.2 0.1-0.2 0.3-0.1 0.2-0.1 0.4v2.9q0 0.2-0.1 0.4-0.1 0.2-0.2 0.3-0.2 0.2-0.4 0.2-0.2 0.1-0.4 0.1l-0.3-0.1q-0.2 0-0.3-0.1-0.2-0.1-0.3-0.2-0.1-0.1-0.2-0.3 0-0.2 0-0.4v-11.3q0-0.2 0-0.3 0.1-0.2 0.2-0.3 0.1-0.2 0.3-0.3 0.1 0 0.3-0.1 2.8-0.4 5 0c4 0.7 5 4.9 2 7.7q-0.2 0.1-0.2 0.2-0.1 0.2-0.2 0.3 0 0.2 0.1 0.4 0 0.2 0.1 0.3zm-2.1-7q-4.6-1.8-3.2 3.6 0 0.2 0.1 0.3 0 0.1 0.1 0.2 0.1 0.1 0.2 0.2 0.1 0 0.3 0.1c3.9 1 6.4-2.9 2.5-4.4z"/><path class="c" d="m271.8 140.8l-0.1 1.9q0.1 0.2 0.1 0.4 0.1 0.2 0.2 0.4 0.2 0.1 0.4 0.2 0.2 0 0.3 0h5.2q0 0.1 0.1 0.1 0.1 0 0.1 0.1 0.1 0 0.1 0.1 0.1 0.1 0.1 0.2l-0.1 0.3q0 0.2 0 0.4-0.1 0.2-0.2 0.3-0.2 0.2-0.4 0.2-0.2 0.1-0.4 0.1h-6.7q-0.2 0-0.4-0.1-0.2-0.1-0.3-0.2-0.1-0.1-0.2-0.3-0.1-0.2-0.1-0.4v-11.5q0-0.2 0.1-0.3 0-0.2 0.2-0.4 0.1-0.1 0.3-0.2 0.2-0.1 0.4-0.1 3.2 0 6.4 0c0.8 0 2.3 0.4 1.2 1.5q0 0-0.1 0.1-0.1 0-0.2 0.1-0.1 0-0.2 0-0.1 0-0.2 0l-4.6 0.1q-0.2 0-0.3 0-0.2 0.1-0.3 0.2-0.2 0.1-0.3 0.2 0 0.1-0.1 0.3c-1.9 6.5 7 0.9 5.9 4.5q0 0.2-0.1 0.3-0.1 0.2-0.2 0.3-0.2 0-0.3 0.1-0.2 0-0.3 0h-4.1q-0.1 0.1-0.3 0.1-0.2 0.1-0.4 0.2-0.1 0.2-0.2 0.4 0 0.2-0.1 0.3z"/><path fill-rule="evenodd" class="c" d="m288.7 132.8q2.6 0.8 2.8 4.1 0.7 10.5-9.9 8.4-0.2 0-0.4-0.1-0.1-0.1-0.2-0.2-0.1-0.2-0.2-0.3 0-0.2-0.1-0.4l0.1-11.3q0-0.2 0-0.3 0.1-0.2 0.2-0.3 0.1-0.2 0.3-0.3 0.1 0 0.3-0.1 3.7-0.4 7.1 0.7zm0 2.8q-2.2-1.8-5-1.8-0.2 0.1-0.4 0.1-0.1 0.1-0.3 0.3-0.1 0.1-0.2 0.3 0 0.2 0 0.3v7.8q0 0.2 0 0.4 0.1 0.2 0.2 0.3 0.2 0.1 0.3 0.2 0.2 0.1 0.4 0.1 7.3 0.4 5.4-7.5 0 0-0.1-0.1 0-0.1-0.1-0.2 0 0 0-0.1-0.1 0-0.2-0.1z"/><path class="c" d="m294.2 142.9q0-0.1-0.1-0.2 0 0 0-0.1-0.1-0.1-0.1-0.2 0 0 0-0.1v-9.3q0-0.2 0.1-0.4 0-0.1 0.2-0.3 0.1-0.1 0.3-0.2 0.2-0.1 0.4-0.1h0.2q0.2 0 0.4 0.1 0.2 0 0.3 0.2 0.2 0.1 0.3 0.3 0 0.2 0.1 0.4v8.9q0 0.1 0 0.2 0 0.1 0.1 0.3 0 0.1 0.1 0.2 0.1 0.1 0.2 0.1c4.1 2.8 6.1 0 6.1-3.9q-0.1-2.9 0-5.8 0-0.2 0-0.4 0.1-0.2 0.3-0.3 0.1-0.1 0.3-0.2 0.2-0.1 0.4-0.1h0.3q0.1 0 0.2 0 0.2 0.1 0.2 0.2 0.1 0.1 0.2 0.2 0 0.1 0 0.2c0 3 0.7 8.6-0.6 10.8-2.2 3.7-7.4 2.6-9.9-0.5z"/><path fill-rule="evenodd" class="c" d="m328.1 142h-3.7q-0.2 0-0.3 0-0.2 0.1-0.3 0.2-0.2 0.1-0.2 0.2-0.1 0.1-0.2 0.3l-0.8 2.3q0 0.1-0.1 0.2 0 0.1-0.2 0.2-0.1 0-0.2 0.1-0.1 0-0.2 0h-0.4q-0.3 0-0.5-0.1-0.2-0.2-0.3-0.4-0.1-0.2-0.2-0.4 0-0.2 0.1-0.5 1.9-5.2 3.8-10.4c0.5-1.6 1.5-2.4 3-1.4q0.1 0.1 0.2 0.1 0 0.1 0.1 0.2 0 0 0 0.1 0.1 0.1 0.1 0.1 2 5.7 3.9 11.4 0.7 2-1.4 1.2-0.1-0.1-0.2-0.1-0.1-0.1-0.2-0.2 0-0.1-0.1-0.2 0 0-0.1-0.1l-0.7-2.1q0-0.2-0.1-0.3-0.1-0.1-0.2-0.2-0.2-0.1-0.3-0.2-0.2 0-0.3 0zm-3.6-2.7q-0.1 0.1-0.1 0.2 0 0.2 0.1 0.2 0.1 0.1 0.2 0.2 0.1 0.1 0.2 0.1h2.5q0.2 0 0.3 0 0.1-0.1 0.1-0.1 0.1-0.1 0.1-0.2 0-0.2 0-0.3l-1.2-3.8q0-0.1-0.1-0.2-0.1-0.1-0.3-0.1-0.1 0-0.3 0.1-0.1 0-0.1 0.2z"/><path class="c" d="m347 132.5c0-0.3 0.2-0.5 0.5-0.5h1.2c0.3 0 0.5 0.2 0.5 0.5v12.5c0 0.3-0.2 0.5-0.4 0.5h-1.3c-0.3 0-0.5-0.2-0.5-0.5z"/><path fill-rule="evenodd" class="c" d="m363.5 140.1q0 1-0.4 2-0.4 1-1.1 1.8-0.8 0.7-1.8 1.2-0.9 0.4-2 0.4h-1q-1 0-2-0.4-1-0.4-1.8-1.2-0.7-0.7-1.1-1.7-0.5-1-0.5-2v-2.8q0-1 0.4-2 0.4-1 1.2-1.8 0.7-0.7 1.7-1.1 1-0.5 2-0.5h1q1.1 0 2.1 0.4 0.9 0.4 1.7 1.2 0.8 0.7 1.2 1.7 0.4 1 0.4 2.1zm-5.7 3.5q0.7 0 1.5-0.4 0.7-0.3 1.3-1 0.5-0.7 0.8-1.6 0.3-1 0.3-1.9 0-1-0.3-1.9-0.3-0.9-0.9-1.6-0.6-0.7-1.3-1.1-0.7-0.4-1.5-0.3-0.8 0-1.5 0.3-0.8 0.4-1.3 1.1-0.6 0.7-0.9 1.6-0.3 0.9-0.3 1.9 0 1 0.4 1.9 0.3 0.9 0.8 1.6 0.6 0.7 1.3 1.1 0.8 0.3 1.6 0.3z"/><path class="c" d="m368.5 138.3v6.2q0 0.2-0.1 0.4 0 0.1-0.2 0.3-0.1 0.1-0.3 0.2-0.2 0.1-0.4 0.1h-0.2q-0.2 0-0.4-0.1-0.2 0-0.3-0.2-0.2-0.1-0.3-0.3 0-0.2 0-0.4v-11.5q0-0.2 0-0.4 0.1-0.2 0.2-0.3 0.2-0.1 0.4-0.2 0.2-0.1 0.3-0.1h0.6q0.1 0 0.2 0 0.1 0.1 0.2 0.1 0.1 0.1 0.2 0.2 0.1 0 0.2 0.1l4.6 6.7q1.8 2.7 1.8-0.5v-5.6q0-0.2 0.1-0.4 0-0.1 0.2-0.3 0.1-0.1 0.3-0.2 0.2-0.1 0.4-0.1h0.4q0.2 0 0.3 0.1 0.2 0 0.3 0.1 0.1 0.1 0.2 0.3 0 0.1 0 0.3 0.1 5.6 0.1 11.2c0 2.6-2.1 1.5-2.9 0.4q-2.1-3.4-4.5-6.6-1.4-2-1.4 0.5z"/><path fill-rule="evenodd" class="c" d="m390.9 132.3c6.8 1.7 6.7 11.6-0.1 13q-2.4 0.5-4.9 0.1-0.2 0-0.4-0.1-0.1-0.1-0.3-0.2-0.1-0.1-0.1-0.3-0.1-0.2-0.1-0.4v-11.4q0-0.1 0.1-0.3 0-0.2 0.1-0.3 0.2-0.1 0.3-0.2 0.2-0.1 0.3-0.1 2.7-0.5 5.1 0.1zm-0.1 11.1c5.2-1.6 3.5-10.3-3-9.6q-0.1 0-0.3 0.1-0.2 0.1-0.3 0.2-0.1 0.2-0.2 0.4 0 0.1-0.1 0.3l0.1 7.9q0 0.2 0.1 0.3 0.1 0.2 0.2 0.3 0.1 0.2 0.3 0.2 0.1 0.1 0.3 0.1 1.5 0.2 2.9-0.2z"/><path class="c" d="m400.8 137.8l5.3-0.1q0.1 0.1 0.2 0.1 0 0 0.1 0 0 0.1 0 0.2 0.1 0 0.1 0.1v1.3q0 0.1-0.1 0.1 0 0.1 0 0.2-0.1 0-0.1 0-0.1 0-0.2 0h-5.2q-0.1 0-0.1 0.1-0.1 0-0.2 0 0 0.1 0 0.1-0.1 0.1-0.1 0.2l-0.1 3.3q0 0.1 0 0.1 0 0.1 0.1 0.1 0 0.1 0.1 0.1 0.1 0 0.1 0h6q0 0.1 0.1 0.1 0.1 0 0.1 0 0.1 0.1 0.1 0.2 0 0 0 0.1v1.1q0 0.1 0 0.1-0.1 0.1-0.1 0.1 0 0.1-0.1 0.1-0.1 0-0.1 0h-8.1q-0.1 0-0.2 0 0-0.1-0.1-0.1 0-0.1 0-0.1-0.1-0.1-0.1-0.2v-12.8q0.1 0 0.1-0.1 0-0.1 0-0.1 0.1 0 0.2-0.1 0 0 0.1 0h7.8q0.1 0 0.2 0 0 0.1 0.1 0.1 0 0.1 0.1 0.1 0 0.1 0 0.2l-0.1 1q0 0.1 0 0.2-0.1 0-0.1 0.1-0.1 0-0.1 0-0.1 0.1-0.1 0h-5.6q0 0.1-0.1 0.1-0.1 0-0.1 0 0 0.1-0.1 0.2 0 0 0 0.1v3.3q0 0.1 0 0.1 0.1 0.1 0.1 0.2 0 0 0.1 0 0.1 0 0.1 0z"/><path fill-rule="evenodd" class="c" d="m416.6 142.6c-0.5 1.2-0.6 3.2-2.3 3q-0.2-0.1-0.3-0.2-0.2-0.1-0.3-0.2 0-0.2-0.1-0.3 0-0.2 0.1-0.4l4.1-11.8q0.1-0.1 0.2-0.2 0.1-0.1 0.2-0.2 0.1-0.1 0.3-0.2 0.1 0 0.3 0h1.2q0.1 0 0.3 0 0.1 0.1 0.2 0.2 0.2 0 0.3 0.2 0.1 0.1 0.1 0.2l4.2 11.7q0 0.2 0 0.3 0 0.2 0 0.3-0.1 0.2-0.2 0.3-0.1 0.1-0.3 0.1c-1.6 0.8-2.1-1.9-2.5-2.8q-0.1-0.2-0.2-0.3-0.1-0.1-0.2-0.1-0.1-0.1-0.2-0.2-0.2 0-0.3 0h-3.7q-0.1 0-0.3 0-0.1 0.1-0.2 0.2-0.2 0.1-0.3 0.2-0.1 0.1-0.1 0.2zm1-3.1q0 0.1 0 0.2 0 0.1 0 0.1 0.1 0.1 0.1 0.1 0.1 0.1 0.2 0.1h2.9q0 0 0.1 0 0.1 0 0.1-0.1 0.1-0.1 0.1-0.1 0-0.1 0-0.2l-1.4-4.3q0-0.1-0.1-0.2-0.1 0-0.2-0.1-0.1 0-0.2 0.1-0.1 0.1-0.1 0.2z"/><path fill-rule="evenodd" class="c" d="m432.5 132.1c4.8 0.8 5.8 5.1 2.2 8.3q-0.1 0-0.2 0 0 0.1-0.1 0.1-0.1 0.1-0.2 0.1 0 0-0.1 0l-3.6 0.2q-0.2 0-0.4 0.1-0.2 0.1-0.3 0.2-0.2 0.1-0.2 0.3-0.1 0.2-0.1 0.4v2.7q0 0.2-0.1 0.4-0.1 0.2-0.2 0.3-0.1 0.2-0.3 0.2-0.2 0.1-0.4 0.1h-0.5q-0.1 0-0.3-0.1-0.1 0-0.2-0.1-0.1-0.1-0.2-0.3 0-0.1 0-0.3v-11.7q0-0.1 0-0.3 0.1-0.2 0.2-0.3 0.1-0.1 0.3-0.2 0.1-0.1 0.3-0.1 2.3-0.4 4.4 0zm1.3 6.3c2.3-3-0.5-5.1-3.5-4.6q-0.1 0-0.3 0.1-0.1 0.1-0.3 0.2-0.1 0.1-0.1 0.3-0.1 0.2-0.1 0.3v3.3q0 0.2 0.1 0.4 0.1 0.2 0.2 0.3 0.2 0.2 0.4 0.3 0.2 0 0.4 0l2.5-0.2q0.1 0 0.2 0 0.1-0.1 0.2-0.1 0.1-0.1 0.1-0.1 0.1-0.1 0.2-0.2z"/><path class="c" d="m441.5 144.9q-2.3-0.9-2.4-3.2l-0.1-8.7q-0.1-0.2 0-0.4 0.1-0.2 0.2-0.3 0.2-0.1 0.4-0.2 0.1-0.1 0.4-0.1h0.2q0.2 0 0.4 0.1 0.2 0.1 0.4 0.2 0.1 0.1 0.2 0.3 0 0.2 0 0.4l0.1 9q0 0.1 0 0.2 0 0.2 0.1 0.3 0.1 0.1 0.2 0.2 0.1 0.1 0.2 0.2c9.9 5.3 3.5-12.5 7.3-10.9q0.2 0 0.3 0.1 0.1 0.1 0.2 0.3 0.1 0.1 0.1 0.2 0 0.2 0 0.3c-0.1 5.3 1.6 15.9-8.2 12z"/><path fill-rule="evenodd" class="c" d="m460.5 141l1.6 3.3q0.1 0.2 0.1 0.4 0 0.2-0.1 0.4-0.1 0.2-0.3 0.3-0.2 0.1-0.4 0.1h-0.5q-0.2 0-0.3-0.1-0.1 0-0.2-0.1-0.2-0.1-0.3-0.2 0-0.1-0.1-0.2l-2.1-3.9q0-0.1-0.1-0.2-0.1-0.1-0.2-0.2-0.1 0-0.3-0.1-0.1 0-0.2 0h-1.4q-0.1 0-0.3 0.1-0.2 0.1-0.4 0.2-0.1 0.1-0.2 0.3 0 0.2-0.1 0.4v3q0 0.2 0 0.4-0.1 0.2-0.2 0.3-0.2 0.1-0.4 0.2-0.2 0.1-0.3 0.1h-0.4q-0.1 0-0.3 0-0.1-0.1-0.2-0.2-0.1-0.1-0.1-0.2 0-0.1 0-0.2v-12q0-0.2 0-0.3 0.1-0.2 0.3-0.4 0.1-0.1 0.3-0.2 0.2-0.1 0.4-0.1l6 0.3q0.1 0 0.2 0 0.1 0.1 0.1 0.1 0.1 0 0.2 0.1 0.1 0 0.1 0.1 3.7 3.7 0.2 7.3-0.1 0.1-0.1 0.3-0.1 0.1-0.1 0.3 0 0.1 0 0.3 0 0.1 0.1 0.3zm-0.8-3.4c1.5-3.1-1.6-4-3.9-3.9q-0.2 0-0.3 0.1-0.2 0.1-0.3 0.2-0.1 0.1-0.2 0.2-0.1 0.1-0.1 0.3-1.5 5.8 4.3 3.6 0-0.1 0.1-0.1 0.1-0.1 0.2-0.1 0-0.1 0.1-0.2 0 0 0.1-0.1z"/><path class="c" d="m464.5 132.6c0-0.3 0.3-0.6 0.6-0.6h1c0.4 0 0.7 0.3 0.7 0.6v12.3c0 0.3-0.3 0.6-0.7 0.6h-1c-0.3 0-0.6-0.3-0.6-0.6z"/><path class="c" d="m479.7 139.7l-2.1 5.2q0 0-0.1 0.1 0 0.1-0.1 0.1 0 0.1-0.1 0.1 0 0.1-0.1 0.1c-2.8 1.9-3.9-8.2-5.3-8q0 0 0 0-0.1 0-0.1 0 0 0.1 0 0.1-0.1 0-0.1 0.1l0.1 7q-0.1 0.2-0.1 0.4-0.1 0.1-0.2 0.3-0.2 0.1-0.3 0.2-0.2 0.1-0.4 0.1h-0.5q-0.1 0-0.3-0.1-0.1 0-0.3-0.1-0.1-0.1-0.1-0.3-0.1-0.1-0.1-0.3v-11.7q0-0.2 0.1-0.3 0-0.2 0.1-0.3 0.1-0.2 0.2-0.3 0.2 0 0.3-0.1c1.3-0.4 2.1 0.1 2.6 1.3q1.5 3.6 2.9 7.3 0.8 1.9 1.5 0l3.2-8q0.1-0.1 0.2-0.2 0.1-0.1 0.2-0.2 0.1-0.1 0.3-0.1 0.1-0.1 0.2-0.1h0.9q0.2 0 0.4 0.1 0.2 0 0.3 0.2 0.2 0.1 0.3 0.3 0 0.2 0.1 0.4v11.7q-0.1 0.1-0.1 0.2 0 0.2-0.1 0.3-0.1 0.1-0.2 0.2-0.1 0.1-0.2 0.2c-1 0.5-1.5-0.6-1.4-1.4q0-2.1 0-4.2-0.1-3.9-1.6-0.3z"/><path fill-rule="evenodd" class="c" d="m493.1 142h-3.7q-0.2 0-0.3 0-0.2 0.1-0.3 0.2-0.1 0.1-0.2 0.2-0.1 0.1-0.2 0.2l-0.9 2.4q0 0.1-0.1 0.2 0 0.1-0.1 0.1 0 0.1-0.1 0.1-0.1 0.1-0.1 0.1c-1.6 1-1.8-0.5-1.4-1.6q2-5.6 4-11.2 0-0.1 0.1-0.2 0.1-0.2 0.2-0.3 0.2 0 0.3-0.1 0.2 0 0.3 0h1.3q0.1 0 0.3 0.1 0.1 0 0.2 0.1 0.1 0.1 0.2 0.2 0.1 0.1 0.2 0.3 2 5.6 3.9 11.2 0.8 2.3-1.4 1.4-0.1-0.1-0.2-0.1-0.1-0.1-0.2-0.2 0-0.1-0.1-0.2 0 0-0.1-0.1l-0.7-2.1q0-0.2-0.1-0.3-0.1-0.1-0.2-0.2-0.2-0.1-0.3-0.2-0.2 0-0.3 0zm-3.7-2.5q0 0 0 0.1 0 0.1 0.1 0.2 0 0.1 0.1 0.1 0.1 0.1 0.2 0.1h2.8q0.1 0 0.2 0 0.1-0.1 0.1-0.1 0.1-0.1 0.1-0.2 0-0.1 0-0.2l-1.4-3.9q0-0.1-0.1-0.2-0.1 0-0.2 0-0.2-0.1-0.3 0-0.1 0.1-0.1 0.2z"/><path class="b" d="m387.8 133.7c6.5-0.7 8.2 8 3 9.6q-1.4 0.4-2.9 0.3-0.2-0.1-0.3-0.2-0.2 0-0.3-0.2-0.1-0.1-0.2-0.3-0.1-0.1-0.1-0.3v-7.9q0-0.2 0-0.3 0.1-0.2 0.2-0.4 0.1-0.1 0.3-0.2 0.2-0.1 0.3-0.1z"/><path class="b" d="m240.3 138.8c0-2.8 1.7-5.1 3.9-5.1 2.2 0 4 2.2 4 5 0 2.8-1.7 5-3.9 5-2.2 0.1-4-2.2-4-4.9z"/><path class="b" d="m258.3 134c3.9 1.5 1.4 5.4-2.5 4.4q-0.2-0.1-0.3-0.1-0.1-0.1-0.2-0.2-0.1-0.1-0.1-0.2-0.1-0.1-0.1-0.3-1.4-5.4 3.2-3.6z"/><path class="b" d="m288.7 135.5q0.1 0.1 0.2 0.1 0 0.1 0 0.1 0.1 0.1 0.1 0.2 0.1 0.1 0.1 0.1 1.9 7.9-5.4 7.5-0.2 0-0.4-0.1-0.1-0.1-0.3-0.2-0.1-0.1-0.2-0.3 0-0.2 0-0.4v-7.8q0-0.1 0-0.3 0.1-0.2 0.2-0.3 0.2-0.2 0.3-0.3 0.2 0 0.4-0.1 2.8 0 5 1.8z"/><path class="b" d="m353.8 138.7c-0.1-2.7 1.7-4.9 3.9-4.9 2.2 0 4 2.2 4 4.9 0 2.7-1.7 4.9-3.9 4.9-2.2 0.1-4-2.1-4-4.9z"/><path class="b" d="m430.3 133.8c3-0.6 5.8 1.6 3.5 4.6q-0.1 0.1-0.2 0.2 0 0-0.1 0.1-0.1 0-0.2 0.1-0.1 0-0.2 0l-2.5 0.2q-0.2 0-0.4 0-0.2-0.1-0.4-0.3-0.1-0.1-0.2-0.3-0.1-0.2-0.1-0.4v-3.3q0-0.1 0.1-0.3 0-0.2 0.1-0.3 0.2-0.1 0.3-0.2 0.2-0.1 0.3-0.2z"/><path class="b" d="m455.8 133.7c2.3-0.1 5.4 0.8 3.9 3.9q-0.1 0.1-0.1 0.1-0.1 0.1-0.1 0.2-0.1 0-0.2 0.1-0.1 0-0.1 0.1-5.8 2.2-4.3-3.6 0-0.2 0.1-0.3 0.1-0.1 0.2-0.2 0.1-0.1 0.3-0.2 0.1-0.1 0.3-0.1z"/><path class="b" d="m417.6 139.5l1.5-4.2q0-0.1 0.1-0.2 0.1-0.1 0.2-0.1 0.1 0.1 0.2 0.1 0.1 0.1 0.1 0.2l1.4 4.3q0 0.1 0 0.2 0 0-0.1 0.1 0 0.1-0.1 0.1-0.1 0-0.1 0h-2.9q-0.1 0-0.2-0.1 0 0-0.1-0.1 0 0 0-0.1 0-0.1 0-0.2z"/><path class="b" d="m324.5 139.3l1.4-3.7q0-0.2 0.1-0.2 0.2-0.1 0.3-0.1 0.2 0 0.3 0.1 0.1 0.1 0.1 0.2l1.2 3.8q0 0.1 0 0.3 0 0.1-0.1 0.2 0 0-0.1 0.1-0.1 0-0.3 0h-2.5q-0.1 0-0.2-0.1-0.1-0.1-0.2-0.2-0.1 0-0.1-0.2 0-0.1 0.1-0.2z"/><path class="b" d="m489.4 139.5l1.5-3.9q0-0.1 0.1-0.2 0.1-0.1 0.3 0 0.1 0 0.2 0 0.1 0.1 0.1 0.2l1.4 3.9q0 0.1 0 0.2 0 0.1-0.1 0.2 0 0-0.1 0.1-0.1 0-0.2 0h-2.8q-0.1 0-0.2-0.1-0.1 0-0.1-0.1-0.1-0.1-0.1-0.2 0-0.1 0-0.1z"/></svg>